<svg xmlns="http://www.w3.org/2000/svg" xmlns:xlink="http://www.w3.org/1999/xlink" width="300" height="150" viewBox="0 0 300 150">
  <defs>
    <clipPath id="clip-path">
      <rect id="矩形_4072" data-name="矩形 4072" width="300" height="150" transform="translate(480 716)" fill="none" stroke="#707070" stroke-width="1"/>
    </clipPath>
    <linearGradient id="linear-gradient" y1="0.5" x2="1" y2="0.5" gradientUnits="objectBoundingBox">
      <stop offset="0" stop-color="#0086cd"/>
      <stop offset="1" stop-color="#00317c"/>
    </linearGradient>
    <linearGradient id="linear-gradient-2" x1="0.761" y1="0.308" x2="0.304" y2="0.955" gradientUnits="objectBoundingBox">
      <stop offset="0" stop-color="#0086cd"/>
      <stop offset="0.759" stop-color="#00458f"/>
      <stop offset="1" stop-color="#00317c"/>
    </linearGradient>
    <linearGradient id="linear-gradient-3" y1="0.5" x2="1" y2="0.5" gradientUnits="objectBoundingBox">
      <stop offset="0" stop-color="#a7d8f1"/>
      <stop offset="0.3" stop-color="#0086cd"/>
      <stop offset="1" stop-color="#004690"/>
    </linearGradient>
    <linearGradient id="linear-gradient-4" x1="0.844" y1="0.785" x2="-0.219" y2="-0.027" xlink:href="#linear-gradient-3"/>
    <linearGradient id="linear-gradient-5" x1="0.638" y1="0.95" x2="-0.122" y2="-0.426" gradientUnits="objectBoundingBox">
      <stop offset="0" stop-color="#0086cd"/>
      <stop offset="0.744" stop-color="#0e2247"/>
      <stop offset="1" stop-color="#00317c"/>
    </linearGradient>
    <linearGradient id="linear-gradient-6" x1="0.738" y1="0.051" x2="0.22" y2="0.853" xlink:href="#linear-gradient-3"/>
    <radialGradient id="radial-gradient" cx="0.454" cy="0.517" r="0.803" gradientTransform="translate(0.11) scale(0.78 1)" gradientUnits="objectBoundingBox">
      <stop offset="0" stop-color="#ffec00"/>
      <stop offset="1" stop-color="#d39b2b"/>
    </radialGradient>
  </defs>
  <g id="蒙版组_17" data-name="蒙版组 17" transform="translate(-480 -716)" clip-path="url(#clip-path)">
    <g id="组_4535" data-name="组 4535" transform="translate(448.444 661.305)">
      <g id="组_4532" data-name="组 4532" transform="translate(31.556 90.102)">
        <path id="路径_15121" data-name="路径 15121" d="M61.412,140.731a54.684,54.684,0,0,0-4.242-12.993,55.707,55.707,0,0,1-15.983-2.359,2.584,2.584,0,0,0-3,1.175l-4.312,7.471c-1.256,2.173-2.157,3.594-2.322,6.268a2.362,2.362,0,0,1,3.1-1.629l0,0A66.168,66.168,0,0,0,61.025,141.6.755.755,0,0,0,61.412,140.731Z" transform="translate(-31.556 -98.763)" fill-rule="evenodd" fill="url(#linear-gradient)"/>
        <path id="路径_15122" data-name="路径 15122" d="M100.037,116.676a57.66,57.66,0,0,0,13.173,2.8,55.693,55.693,0,0,1,9.983-12.578,2.582,2.582,0,0,0,.482-3.183l-4.316-7.47h0c-1.255-2.171-2.036-3.664-4.271-5.145a2.359,2.359,0,0,1-.137,3.5h0A66.318,66.318,0,0,0,99.312,115.77C99.232,116.065,99.277,116.42,100.037,116.676Z" transform="translate(-47.591 -90.673)" fill-rule="evenodd" fill="url(#linear-gradient-2)"/>
        <path id="路径_15123" data-name="路径 15123" d="M133.219,128.577a2.966,2.966,0,0,0-2.813-1.5c-10.527,2.009-20.432,1.763-30.987-1.777-.051-.018-.1-.034-.14-.053v0a1.263,1.263,0,0,1-.268-.135.745.745,0,0,1-.293-.3.755.755,0,0,1-.1-.3c-.516,1.132-1.154,2.27-.241,4.054l5.33,9.229a6.989,6.989,0,0,0,3.3,2.607c7.7,2.5,22.006,1.838,29.128.136h0l.007,0h.005l.013,0,.011,0,.018,0,.19-.049.037-.008a15.051,15.051,0,0,0,2.971-1.033Z" transform="translate(-47.268 -98.585)" fill-rule="evenodd" fill="url(#linear-gradient-3)"/>
        <path id="路径_15124" data-name="路径 15124" d="M76.252,118.095c-1.678-7.917-9.411-19.974-14.448-25.287v0l0-.005,0,0-.009-.01-.011-.009-.01-.012-.137-.143L61.6,92.6a15.37,15.37,0,0,0-2.38-2.058l-6.334,10.776A2.954,2.954,0,0,0,53,104.5c7,8.11,11.744,16.811,13.951,27.718.018.092.029.172.037.25h0a1.253,1.253,0,0,1-.131.817,3.857,3.857,0,0,0,3.449-1.8l5.331-9.229A6.977,6.977,0,0,0,76.252,118.095Z" transform="translate(-36.51 -90.539)" fill-rule="evenodd" fill="url(#linear-gradient-4)"/>
        <path id="路径_15125" data-name="路径 15125" d="M113.114,184.73h0a2.636,2.636,0,0,1-.688-1.281l0,0a66.2,66.2,0,0,0-10.484-24.079.974.974,0,0,0-1.218.121,56.912,56.912,0,0,0-8.987,9.994,55.819,55.819,0,0,1,5.915,14.947,2.578,2.578,0,0,0,2.513,2.011h8.629c2.319,0,3.932.055,6.057-.878A2.886,2.886,0,0,1,113.114,184.73Z" transform="translate(-45.804 -106.797)" fill-rule="evenodd" fill="url(#linear-gradient-5)"/>
        <path id="路径_15126" data-name="路径 15126" d="M92.19,158.668a4.811,4.811,0,0,1,1.658-1.21,3.787,3.787,0,0,0-3.224-2H79.964a6.994,6.994,0,0,0-3.905,1.549c-6.02,5.411-12.6,18.136-14.684,25.151v0l0,0,0,.008,0,.012,0,.011,0,.018-.056.185-.011.037a15.244,15.244,0,0,0-.592,3.09l12.5.1a2.962,2.962,0,0,0,2.7-1.688A59.036,59.036,0,0,1,92.19,158.668Z" transform="translate(-38.456 -105.909)" fill-rule="evenodd" fill="url(#linear-gradient-6)"/>
        <path id="路径_15127" data-name="路径 15127" d="M51.4,146.989a64.026,64.026,0,0,1-16.738-2.738h0a2.119,2.119,0,0,0-2.675,1.366c4.146,5.285,16.374,20.378,21.38,35.757.1-.5.215-.96.289-1.238l.01-.035.05-.191.006-.017,0-.01,0-.015,0-.007,0,0v0a74.908,74.908,0,0,1,7.351-16.39A55.55,55.55,0,0,0,51.4,146.989Z" transform="translate(-31.657 -103.234)" fill="#004690" fill-rule="evenodd"/>
        <path id="路径_15128" data-name="路径 15128" d="M140.24,146.1l-.037.009-.189.047-.018,0-.012,0-.012.006h-.014a74.618,74.618,0,0,1-17.687,1.475,46.717,46.717,0,0,0-9.814,16.748,63.767,63.767,0,0,1,5.512,15.653l0,0a2.119,2.119,0,0,0,2.488,1.685c2.629-6.181,9.949-24.174,21-35.978C140.973,145.911,140.519,146.032,140.24,146.1Z" transform="translate(-50.71 -103.613)" fill="#004690" fill-rule="evenodd"/>
        <path id="路径_15129" data-name="路径 15129" d="M74.517,105.281a57.273,57.273,0,0,0,22.144-.475,61.913,61.913,0,0,1,9.428-10.6l0,0a2.032,2.032,0,0,0-.031-2.962c-6.529.8-25.991,3.65-41.747.138.333.311.624.6.806.789l.027.027.137.144.009.009.011.013.008.008.005,0,0,0v0A72.705,72.705,0,0,1,74.517,105.281Z" transform="translate(-39.312 -90.705)" fill="#004690" fill-rule="evenodd"/>
      </g>
      <g id="组_4533" data-name="组 4533" transform="translate(246.732 88.695)">
        <path id="路径_15130" data-name="路径 15130" d="M317.272,89.762v5.077h-1.155V89.762h-2.634V88.7H319.9v1.067Z" transform="translate(-313.482 -88.695)" fill="#767676"/>
        <path id="路径_15131" data-name="路径 15131" d="M330.43,91.965v1.066h-4.518V91.965Z" transform="translate(-316.425 -89.469)" fill="#767676"/>
        <path id="路径_15132" data-name="路径 15132" d="M336.906,94.838a3.317,3.317,0,0,1-2.5-.983,3.014,3.014,0,0,1-.851-2.152,2.845,2.845,0,0,1,.815-2.071,3.406,3.406,0,0,1,2.54-.936h3.747v1.067h-3.747a2.231,2.231,0,0,0-1.623.607A1.948,1.948,0,0,0,334.7,91.7a1.89,1.89,0,0,0,.52,1.415,2.183,2.183,0,0,0,1.688.653h3.747v1.068Z" transform="translate(-318.234 -88.695)" fill="#767676"/>
        <path id="路径_15133" data-name="路径 15133" d="M351.287,91.214V88.7h1.16v6.143h-1.16V92.285h-3.918V91.214Z" transform="translate(-321.506 -88.695)" fill="#767676"/>
        <path id="路径_15134" data-name="路径 15134" d="M346.33,94.838h-1.154V88.7h1.154v6.143Z" transform="translate(-320.986 -88.695)" fill="#767676"/>
        <path id="路径_15135" data-name="路径 15135" d="M361.856,94.535l-4.265-3.955v4.259h-1.159V89.232a.557.557,0,0,1,.138-.393.479.479,0,0,1,.361-.143.965.965,0,0,1,.66.313l4.268,3.951V88.7h1.161v5.614c0,.395-.147.591-.44.591a1.148,1.148,0,0,1-.724-.366Z" transform="translate(-323.651 -88.695)" fill="#767676"/>
        <path id="路径_15136" data-name="路径 15136" d="M375.469,89.632a3.365,3.365,0,0,0-2.529-.936h-1.859a3.4,3.4,0,0,0-2.54.936,2.844,2.844,0,0,0-.814,2.071,3.016,3.016,0,0,0,.853,2.152,3.3,3.3,0,0,0,2.5.983h1.859a3.322,3.322,0,0,0,2.5-.983A3.034,3.034,0,0,0,376.3,91.7,2.818,2.818,0,0,0,375.469,89.632Zm-.842,3.486a2.2,2.2,0,0,1-1.687.653h-1.859a2.188,2.188,0,0,1-1.686-.653,1.876,1.876,0,0,1-.52-1.415,1.932,1.932,0,0,1,.585-1.334,2.232,2.232,0,0,1,1.622-.607h1.859a2.207,2.207,0,0,1,1.611.607,1.879,1.879,0,0,1,.585,1.334A1.859,1.859,0,0,1,374.627,93.118Z" transform="translate(-326.326 -88.695)" fill="#767676"/>
        <path id="路径_15137" data-name="路径 15137" d="M397.637,89.632a3.372,3.372,0,0,0-2.529-.936h-1.864a3.4,3.4,0,0,0-2.539.936,2.849,2.849,0,0,0-.812,2.071,3.008,3.008,0,0,0,.851,2.152,3.307,3.307,0,0,0,2.5.983h1.864a3.307,3.307,0,0,0,2.5-.983,3.01,3.01,0,0,0,.853-2.152A2.821,2.821,0,0,0,397.637,89.632Zm-.843,3.486a2.2,2.2,0,0,1-1.686.653h-1.864a2.176,2.176,0,0,1-1.683-.653,1.87,1.87,0,0,1-.521-1.415,1.911,1.911,0,0,1,.583-1.334,2.229,2.229,0,0,1,1.62-.607h1.864a2.2,2.2,0,0,1,1.611.607A1.906,1.906,0,0,1,397.3,91.7,1.868,1.868,0,0,1,396.793,93.118Z" transform="translate(-331.574 -88.695)" fill="#767676"/>
        <path id="路径_15138" data-name="路径 15138" d="M406.324,94.838a3.316,3.316,0,0,1-2.5-.983,3.022,3.022,0,0,1-.853-2.152,2.84,2.84,0,0,1,.815-2.071,3.4,3.4,0,0,1,2.54-.936H410.6v1.067h-4.273a2.217,2.217,0,0,0-1.623.607,1.931,1.931,0,0,0-.582,1.334,1.89,1.89,0,0,0,.52,1.415,2.183,2.183,0,0,0,1.686.653h3.065V92.431H406.23v-.984h4.313v3.391Z" transform="translate(-334.67 -88.695)" fill="#767676"/>
        <path id="路径_15139" data-name="路径 15139" d="M418.887,94.838H417.73V92.79L414.34,88.7h1.5l2.512,3.027L420.7,88.7h1.489l-3.3,4.108Z" transform="translate(-337.362 -88.695)" fill="#767676"/>
        <path id="路径_15140" data-name="路径 15140" d="M329.749,93.771h-3.361a2.183,2.183,0,0,1-1.687-.653,1.9,1.9,0,0,1-.519-1.415,1.943,1.943,0,0,1,.583-1.334,2.239,2.239,0,0,1,1.623-.607h3.361V88.7h-3.361a3.4,3.4,0,0,0-2.54.936,2.843,2.843,0,0,0-.813,2.071,3,3,0,0,0,.851,2.152,3.307,3.307,0,0,0,2.5.983h3.361Z" transform="translate(-315.744 -88.695)" fill="#767676"/>
        <path id="路径_15141" data-name="路径 15141" d="M382.52,93.771c-.007,0-.01,0-.016,0a.722.722,0,0,1-.72-.721h0V88.7h-1.159v4.982l0,0h0a1.124,1.124,0,0,0,1.182,1.153h4.539v0h.018V93.771Z" transform="translate(-329.379 -88.695)" fill="#767676"/>
      </g>
      <path id="路径_15142" data-name="路径 15142" d="M264.674,107.858H277.5v24.668h8.661V107.858h12.941v-5.21H264.674Z" transform="translate(-55.194 -3.304)" fill="#004b9e"/>
      <path id="路径_15143" data-name="路径 15143" d="M195.218,104.317a3.243,3.243,0,0,0-2.854-1.72.343.343,0,0,0-.054.005l-.006-.005h-7.541l-15.891,29.917h6.214a3.237,3.237,0,0,0,2.838-1.694l.029-.019,2.966-5.583h17.251l3.876,7.3h8.17l-14.973-28.187Zm-11.536,15.7,5.862-11.035,5.862,11.035Z" transform="translate(-32.511 -3.291)" fill="#004b9e"/>
      <path id="路径_15144" data-name="路径 15144" d="M219.622,116.331v2.512A13.722,13.722,0,0,0,233.3,132.526h18.978V127.32H237.666a9.086,9.086,0,0,1-9.058-9.061v-1.468a9.084,9.084,0,0,1,9.058-9.057h14.616v-5.085H233.3A13.723,13.723,0,0,0,219.622,116.331Z" transform="translate(-44.527 -3.304)" fill="#004b9e"/>
      <path id="路径_15145" data-name="路径 15145" d="M317.58,102.6c-.05,0-.094.013-.146.014l-.006-.014h-5.369v29.917h8.774v-26.7l0,0A3.251,3.251,0,0,0,317.58,102.6Z" transform="translate(-66.413 -3.291)" fill="#004b9e"/>
      <path id="路径_15146" data-name="路径 15146" d="M356.47,102.176H334.028a8.41,8.41,0,0,0-8.385,8.385v13.8a8.412,8.412,0,0,0,8.385,8.386H356.47a8.411,8.411,0,0,0,8.385-8.386v-13.8A8.409,8.409,0,0,0,356.47,102.176Zm-2.589,9.19v13.915a1.034,1.034,0,0,1-1.03,1.094l-15.2-1.686a1.113,1.113,0,0,1-1.03-1.1V111.832a1.125,1.125,0,0,1,1.03-1.091l15.2-2.189c.559-.081,1.03.492,1.03,1.094Z" transform="translate(-69.629 -3.192)" fill="url(#radial-gradient)"/>
      <path id="路径_15147" data-name="路径 15147" d="M405.459,102.6v15.556l.106,5.942-15.374-20.25-.028-.01a3.239,3.239,0,0,0-2.54-1.238l-.019,0,0,0h-8.968v29.917H386.9V112.7l-.047-2.813,16.2,21.364.025.005a3.233,3.233,0,0,0,2.5,1.253l0,0h8.148V102.6Z" transform="translate(-82.175 -3.291)" fill="#004b9e"/>
      <g id="组_4534" data-name="组 4534" transform="translate(136.361 136.222)">
        <path id="路径_15148" data-name="路径 15148" d="M244.413,176.61V162.038a2.206,2.206,0,0,0-.372-1.233,2.581,2.581,0,0,0-.973-.871,3.023,3.023,0,0,0-1.37-.324h-18.57v17.364a2.182,2.182,0,0,0,.371,1.232,2.567,2.567,0,0,0,.972.872,2.925,2.925,0,0,0,1.372.327h18.57Zm-6.165-4.428v4.756h-7.417a1.59,1.59,0,0,1-.756-.189,1.536,1.536,0,0,1-.568-.5,1.3,1.3,0,0,1-.218-.705V162.036h7.419a1.618,1.618,0,0,1,1.325.691,1.227,1.227,0,0,1,.214.705Z" transform="translate(-181.718 -153.012)" fill="#004b9e" fill-rule="evenodd"/>
        <path id="路径_15149" data-name="路径 15149" d="M173.513,160.148h5.919l-1.134-5.115h-5.92Z" transform="translate(-169.702 -151.928)" fill="#004b9e" fill-rule="evenodd"/>
        <path id="路径_15150" data-name="路径 15150" d="M209.637,160.148l1.136-5.115h-5.922l-1.134,5.115Z" transform="translate(-177.122 -151.928)" fill="#004b9e" fill-rule="evenodd"/>
        <path id="路径_15151" data-name="路径 15151" d="M189.036,160.148h5.959l-1.135-5.115h-5.92Z" transform="translate(-173.386 -151.928)" fill="#004b9e" fill-rule="evenodd"/>
        <path id="路径_15152" data-name="路径 15152" d="M196.358,181.172a44.652,44.652,0,0,0,4.479-2.6,48.025,48.025,0,0,0,3.873-2.848,1.435,1.435,0,0,0,.418-.533.883.883,0,0,0,.029-.643.956.956,0,0,0-.394-.535,1.239,1.239,0,0,0-.7-.2H179.8l.442-1.448h25.239v-2.355h-24.52l.9-2.957h-6.189l-.9,2.957h-5.9v2.355h5.183l-4.3,14.073h5.052v0a.361.361,0,0,0,.04,0,1.478,1.478,0,0,0,1.414-1.059l.009,0,2.889-9.466h17.2a.408.408,0,0,1,.243.062.277.277,0,0,1,.122.2.14.14,0,0,1,0,.162.528.528,0,0,1-.122.169,24.379,24.379,0,0,1-2.438,1.575,29.12,29.12,0,0,1-2.629,1.33c-.831-.352-1.623-.714-2.379-1.1s-1.472-.791-2.16-1.217l-7.5-.108q1.551,1.1,3.357,2.169c1.2.714,2.481,1.4,3.819,2.063q-2.157.632-4.527,1.115t-4.96.869v3.164a54.853,54.853,0,0,0,7.608-1.1,49.883,49.883,0,0,0,6.784-1.984,53.676,53.676,0,0,0,6.7,2,49.153,49.153,0,0,0,7.242,1.091V183.2q-2.371-.33-4.666-.836C199.32,182.029,197.818,181.632,196.358,181.172Z" transform="translate(-168.872 -154.775)" fill="#004b9e" fill-rule="evenodd"/>
        <path id="路径_15153" data-name="路径 15153" d="M174.845,164.987H198.07a1.559,1.559,0,0,1,1.068.414,1.325,1.325,0,0,1,.432.986v1.764h5.878V165.32a2.284,2.284,0,0,0-.352-1.219,2.435,2.435,0,0,0-.919-.872,2.678,2.678,0,0,0-1.323-.337h-31.38l-.038,0H168.9v5.278h5.943Z" transform="translate(-168.879 -153.789)" fill="#004b9e" fill-rule="evenodd"/>
        <rect id="矩形_4065" data-name="矩形 4065" width="35.358" height="2.352" transform="translate(0.625 0.051)" fill="#004b9e"/>
        <path id="路径_15154" data-name="路径 15154" d="M220.3,153.383h28.6v25.488a1.284,1.284,0,0,1-.453.988,1.559,1.559,0,0,1-1.087.411h-5.513v2.354h10.5a2.832,2.832,0,0,0,1.351-.337,2.732,2.732,0,0,0,.988-.87,2.162,2.162,0,0,0,.376-1.221V153.383h3.689v-2.352H220.3Z" transform="translate(-181.047 -150.981)" fill="#004b9e" fill-rule="evenodd"/>
        <path id="路径_15155" data-name="路径 15155" d="M297.114,180.278v-9.17h12.72v-2.353h-12.72V158.407h12.72v-2.353h-12.72v-5.089h-6.161v5.089h-7.412l1.378-5.089h-6.255L274.83,165.1H279.9l0-.005a.489.489,0,0,0,.05.005,1.605,1.605,0,0,0,.243-.024h.091c0-.007.006-.014.011-.021a1.484,1.484,0,0,0,1.088-1.077h.006l1.51-5.567h8.05v10.349h-14.83v2.353h14.83v9.17H273.965v2.352h38.029v-2.352Z" transform="translate(-193.754 -150.965)" fill="#004b9e" fill-rule="evenodd"/>
      </g>
    </g>
  </g>
</svg>
