<svg xmlns="http://www.w3.org/2000/svg" viewBox="0 0 336.38 140.18" fill="#e8471c"><path d="M315.37 97.17h21.01v43.01h-21.01V97.17h0zM126 71.33l-20.17-35h0l-20.16-35a3.12 3.12 0 0 0-.44-.59 2.65 2.65 0 0 0-3.47-.2 2.74 2.74 0 0 0-.75.92L63.18 32.37 45.3 1.36a2.75 2.75 0 0 0-.44-.59A2.64 2.64 0 0 0 41.4.54a2.78 2.78 0 0 0-.76.92l-20.1 34.86h0l-.09.15h0L.35 71.33a2.64 2.64 0 0 0 2.28 4H43A2.63 2.63 0 0 0 45.28 74l17.9-31 17.91 31a2.63 2.63 0 0 0 2.28 1.32h40.36a2.64 2.64 0 0 0 2.28-4zM83.37 7.91l17.15 29.73-17.15 29.73-17.15-29.73L83.37 7.91zM43 7.91l17.15 29.73L43 67.37 25.85 37.64 43 7.91zM7.19 70l15.63-27.08L38.44 70zm80.74 0l15.62-27.1L119.18 70zm49.69-6.19A42.3 42.3 0 0 0 144 49.55l8.22 3c-1.49 5.41-3.61 11.64-6.48 15.81zm35.24-.94c2.37 0 2.8-.81 3.18-6.6 1.8 1.37 5.73 2.74 8.16 3.3-1 9.16-3.49 11.46-10.59 11.46h-9.16c-9.09 0-11.27-2.55-11.27-10.15v-9h9.16l-2.74-1.62 4.4-4.2h-20V15.55h45.52v30.51h-21.2a40.7 40.7 0 0 1 9.46 6.85l-6.48 6.17a41.84 41.84 0 0 0-9-7.23v8.91c0 1.93.5 2.11 3.3 2.11zM152.5 27.13h9.78v-3.8h-9.78zm0 11.15h9.78v-3.93h-9.78zm28-15h-9.46v3.8h9.46zm0 11h-9.46v3.93h9.46zm8.35 14.95c3.3 4.61 6.72 10.59 7.84 15L187.87 68c-.87-4.17-3.92-10.52-7.1-15.38zm17.89-33.81h23v8.16h-8.53c-.81 3.8-1.87 7.66-3.05 11.4h10.46v29.7H218v4.48h-7.6V51.23a30.11 30.11 0 0 1-2.12 2.68 51.84 51.84 0 0 0-2.92-11c3.61-4.8 6-11.77 7.53-19.31h-6.1zm14.2 27.4h-3v14h3zm31.13 17.38h-21.36v-8h21.36zm11.71-20.37s-.12 2.37-.25 3.43c-1.18 16.25-2.49 23.1-4.67 25.53a7.79 7.79 0 0 1-5.35 2.93A53.7 53.7 0 0 1 246 72a19.55 19.55 0 0 0-2.37-8 54.08 54.08 0 0 0 5.73.25 2.58 2.58 0 0 0 2.24-.87c1.19-1.18 2.25-5.73 3.12-15.88h-22.57c.93-5.73 1.86-14.76 2.3-21.86l8.47.5c-.31 4.36-.81 9.28-1.31 13.76h7.16c.62-5.29 1.19-11 1.62-15.81h-18.93v-8.1h20.36l1.37-.31 6.42.56c-.44 7.22-1.31 15.82-2.24 23.66zm26.59 18.5l4.92 2.49c4.3 2 10.27 2.43 16.81 2.43a169.38 169.38 0 0 0 21.67-1.5 34.13 34.13 0 0 0-2.36 8.78c-3.93.25-13.39.69-19.62.69-7.47 0-13-.81-17.81-3-3.11-1.5-5.23-3.11-6.85-3.11-2.18 0-5.35 3.86-8 7.22l-5.42-7.78a33.28 33.28 0 0 1 8-5.55V43.63h-6.66v-8.34h15.32zm-6.48-28.4c-1.68-3-5.79-7.28-9.15-10.33l6.73-4.92c3.36 2.74 7.66 6.78 9.65 9.77zm11.4 2.12a70.59 70.59 0 0 0-5.73-4.3 36.94 36.94 0 0 0 12-14.82l8.78 2.49a32.22 32.22 0 0 1-1.06 2.12h7.47l1.31-.31 6 3.49a54.15 54.15 0 0 1-4.06 6.66h9.78V45h-4.92a22.13 22.13 0 0 1 3.92 3.43l-5 4a24.85 24.85 0 0 0-5.3-4.8l3.4-2.63H318v6.85c0 1.81.31 1.93 2.05 1.93h4.42c1.37 0 1.75-.43 1.93-3.36a23.89 23.89 0 0 0 7 2.8c-.93 6-3 7.72-8.1 7.72h-6.53c-7.1 0-8.72-2.18-8.78-8.59-3 3.49-7.29 6.41-13.52 8.66a20.63 20.63 0 0 0-4.61-6.36C299 52.29 303 49.05 305.25 45h-10zm9.9-7.78l-2.43 3.11h7c.75-.93 1.56-2.06 2.24-3.11zm2.43 13.88c.25-1.31.44-2.61.62-4h-4.79v4zm13.45-4h-4.42l-.56 4h5zM42.06 118.17a51.84 51.84 0 0 0-7.6-4.93l2.36-3.84a48 48 0 0 1 7.77 4.45zm3.49 5.5c-1.92 4.54-4.28 9.48-6.51 13.71l-3.88-3.67a146.88 146.88 0 0 0 7.07-13.62zM43.37 106a55.3 55.3 0 0 0-7.16-4.45l2.57-4a52.33 52.33 0 0 1 7.25 4zm22.48 16.89a28.27 28.27 0 0 0 9.47 8.87 19.8 19.8 0 0 0-3.66 4 31.76 31.76 0 0 1-8.56-9.12v10.91h-5.28v-11a29.34 29.34 0 0 1-9.91 9.45 22.74 22.74 0 0 0-3.41-3.92 25.69 25.69 0 0 0 10.57-9.22h-7.91v-4.62h10.66v-4.34h5.28v4.32h10.74v4.62zm-6.77-15.93a33.25 33.25 0 0 1-8.95 9.91 38.73 38.73 0 0 0-3.58-3.54 23.6 23.6 0 0 0 7.86-7.85zm-7.29 1.14h-4.54v-8.96h26.59v8.64h-4.76v-4.23H51.79zm13.36-3a55.7 55.7 0 0 1 8.3 9l-4 2.75a54.74 54.74 0 0 0-8-9.34zm23.49 7.35c0 7.34-.57 18.25-4.19 25.37a20.81 20.81 0 0 0-4.76-2.23c3.49-6.72 3.79-16.46 3.79-23.09v-11.61h16.29a23.06 23.06 0 0 0-1-2.89l5.23-1.17a30.52 30.52 0 0 1 1.66 4.06h14.41v4.84H88.64zm28.85 11.27a21.64 21.64 0 0 1-7.68 8.07 71.79 71.79 0 0 0 11 1.58 23 23 0 0 0-3 4.49 51.31 51.31 0 0 1-14.15-3.18 60.21 60.21 0 0 1-13.79 2.92 20.43 20.43 0 0 0-2.14-4.32A67.24 67.24 0 0 0 98 131.75a24.84 24.84 0 0 1-5.26-4.75l1.75-.7h-4.63v-4.06h23.48l.92-.17zm-22.09-3.23v-6.81h-5.89v-4.06h5.89v-2.88h4.89v2.88h7.95v-2.88h5.15v2.88h6.28v4.06h-6.28v6.81zm2.75 5.8a20.23 20.23 0 0 0 5.76 3.54 21.1 21.1 0 0 0 5.77-3.54zm2.14-12.61v2.88h7.95v-2.88zm41.04-14.58a70.38 70.38 0 0 1-4.06 8v30.69h-5.42V114.9a41.43 41.43 0 0 1-4.54 4.89 32.88 32.88 0 0 0-2.88-5.28 45.65 45.65 0 0 0 11.92-17zm12 15.8c1.22 9.69 3.53 16.15 7 16.59 1 .09 1.52-2.1 1.87-6.94a18.22 18.22 0 0 0 4.24 3c-1.09 8.42-3.45 10.43-5.9 10.3-7.37-.7-10.82-8.91-12.39-22.22l-8.6 1.18-.75-5 8.82-1.18c-.3-3.93-.57-8.21-.7-12.79h5.29c.08 4.28.26 8.38.56 12.09l12.44-1.62.75 4.89zm7.81-7.73a37.23 37.23 0 0 0-6-7.33l3.89-2.4a38.83 38.83 0 0 1 6.28 7zm10.18-8.12h15.62v4.72h-6.15a66.24 66.24 0 0 1-2.36 8.82H186v20h-7.64v3.19h-4.4v-13.5l-1.79 2.4a29.74 29.74 0 0 0-1.79-6.2c2.7-3.62 4.49-9 5.63-14.71h-4.67zm10.21 18.08h-3.19v11h3.19zm21.57 12h-15.46v-4.62h15.46zm7.55-13.13s0 1.44-.13 2.09c-.87 11.44-1.84 16.15-3.32 17.77a5 5 0 0 1-3.54 1.79 37.72 37.72 0 0 1-5.23.09 11.8 11.8 0 0 0-1.31-4.63c1.74.17 3.44.17 4.27.17a1.84 1.84 0 0 0 1.58-.56c.91-1 1.79-4.37 2.44-12.31H189c.61-3.85 1.26-10 1.57-14.63l4.84.26c-.26 3.15-.61 6.77-1 10h6.5c.48-3.93 1-8.34 1.27-11.92h-13.75v-4.76H203l.83-.18 3.71.31c-.31 4.89-1 11-1.62 16.46zm34.05-18.34a52 52 0 0 0 12.35 15.67 23.4 23.4 0 0 0-4.19 4.41l-2.44-2.49v.13c-.44 12.88-1 18-2.49 19.82a5.09 5.09 0 0 1-3.93 2.05 43.93 43.93 0 0 1-6.64.13 12.48 12.48 0 0 0-1.65-5.24c2.35.22 4.67.22 5.71.22a2.28 2.28 0 0 0 1.75-.57c.92-1 1.35-4.71 1.75-13.57h-9.13c-1.13 8.25-4 15.67-15.23 19.82a17.39 17.39 0 0 0-3.28-4.63c9.74-3.14 12.05-8.91 13-15.19h-7v-2.58a22.66 22.66 0 0 1-2.62 2.49 35.3 35.3 0 0 0-4.41-4.1c5.11-3.67 9.52-9.78 12-16.29l5.59 1.53a50.62 50.62 0 0 1-8.16 13.8h23a74.61 74.61 0 0 1-8.77-13.58zm31.21 26.8c-.61-1.35-1.66-3.36-2.75-5.28v18.68h-5v-16.94a37.89 37.89 0 0 1-4.62 9.48 27.57 27.57 0 0 0-2.45-4.85c2.75-3.45 5.2-9.38 6.51-14.54h-5.33v-4.89h5.89v-9h5v9h5.94V111h-5.94v1.66c1.62 2 5 6.55 5.76 7.69zm26.41-7.77h-5.63v21.17h-5.15v-21.17h-5.72c-.17 6.63-1.09 15.41-4.93 21.09a21.2 21.2 0 0 0-4.32-2.58c4-5.81 4.32-14.23 4.32-20.39v-12.88a63.69 63.69 0 0 0 14.71-4.36l4.37 4.1a74.25 74.25 0 0 1-14.15 4v6.16h16.5zm-282.04 1c-2-1.44-4.36-1.76-6.75-2.06l-1.48-.2c-2.17-.31-4.64-1.1-4.64-3.72A2.74 2.74 0 0 1 9 109.15c3.25-1.89 9.63-1.47 12.74.19v-5.44a23.16 23.16 0 0 0-7-1.06v-5.67h-4v6.06a14 14 0 0 0-4.27 1.54 7.85 7.85 0 0 0-4.16 6.94 8.51 8.51 0 0 0 3.39 6.58c2.58 2 5.52 2.12 8.61 2.57 2.18.31 4.7 1.12 4.7 3.74 0 .7-.2 1.51-1.69 2.17-4 1.79-11.68.31-13.95-1.25v5.59a26.55 26.55 0 0 0 7.37 1.48v6.6h4v-6.67a15.25 15.25 0 0 0 4.65-1.12 7.25 7.25 0 0 0 4.7-6.8 8.62 8.62 0 0 0-3.81-6.91z"/></svg>
