<svg xmlns="http://www.w3.org/2000/svg" xmlns:xlink="http://www.w3.org/1999/xlink" width="236" height="150" viewBox="0 0 236 150">
  <defs>
    <clipPath id="clip-path">
      <rect id="矩形_4070" data-name="矩形 4070" width="236" height="150" transform="translate(1840 1032)" fill="none" stroke="#707070" stroke-width="1"/>
    </clipPath>
  </defs>
  <g id="蒙版组_21" data-name="蒙版组 21" transform="translate(-1840 -1032)" clip-path="url(#clip-path)">
    <g id="组_4553" data-name="组 4553" transform="translate(1786.866 977.243)">
      <g id="组_4552" data-name="组 4552" transform="translate(53.134 94.757)">
        <g id="组_4540" data-name="组 4540" transform="translate(226.597 13.767)">
          <g id="组_4536" data-name="组 4536" transform="translate(0.217 29.001)">
            <path id="路径_15156" data-name="路径 15156" d="M200.33,122.437h-1.8a4.042,4.042,0,0,1,2.012,3.366,2.579,2.579,0,0,1-.779,1.981,3,3,0,0,1-2.13.737h-6.848v-1.73h6.293a2.661,2.661,0,0,0,1.519-.325,1.142,1.142,0,0,0,.463-1.028c0-1.051-.705-2.048-2.093-3h-6.182v-1.724h9.542Z" transform="translate(-190.788 -120.713)" fill="#95a0a6"/>
          </g>
          <g id="组_4537" data-name="组 4537" transform="translate(0 19.395)">
            <path id="路径_15157" data-name="路径 15157" d="M200.114,114.932a10.431,10.431,0,0,1,.517,2.972,4.571,4.571,0,0,1-1.4,3.452,5.08,5.08,0,0,1-3.635,1.33,5.285,5.285,0,0,1-3.554-1.191,3.687,3.687,0,0,1-1.391-2.989,3.181,3.181,0,0,1,1.229-2.676,5.674,5.674,0,0,1,3.493-.947l.544.012v6.026q3.393-.39,3.4-3.34a8.06,8.06,0,0,0-.578-2.648Zm-5.5,5.891v-4.192c-1.773,0-2.661.662-2.661,1.979C191.956,119.955,192.844,120.676,194.617,120.823Z" transform="translate(-190.656 -114.883)" fill="#95a0a6"/>
          </g>
          <g id="组_4538" data-name="组 4538" transform="translate(0.217 9.606)">
            <path id="路径_15158" data-name="路径 15158" d="M200.33,110.68h-1.8a3.994,3.994,0,0,1,2.012,3.343,2.566,2.566,0,0,1-.779,1.982,3,3,0,0,1-2.13.748h-6.848v-1.735h6.293a2.7,2.7,0,0,0,1.519-.318,1.134,1.134,0,0,0,.463-1.033c0-1.059-.705-2.05-2.093-2.987h-6.182v-1.738h9.542Z" transform="translate(-190.788 -108.942)" fill="#95a0a6"/>
          </g>
          <g id="组_4539" data-name="组 4539">
            <path id="路径_15159" data-name="路径 15159" d="M200.114,103.166a10.392,10.392,0,0,1,.517,2.968,4.531,4.531,0,0,1-1.4,3.444,5.058,5.058,0,0,1-3.635,1.328,5.278,5.278,0,0,1-3.554-1.178,3.716,3.716,0,0,1-1.391-3,3.159,3.159,0,0,1,1.229-2.668,5.61,5.61,0,0,1,3.493-.951l.544,0v6.026q3.393-.386,3.4-3.328a7.9,7.9,0,0,0-.578-2.646Zm-5.5,5.91v-4.213q-2.659,0-2.661,1.982C191.956,108.172,192.844,108.9,194.617,109.077Z" transform="translate(-190.656 -103.112)" fill="#95a0a6"/>
          </g>
        </g>
        <g id="组_4541" data-name="组 4541" transform="translate(0 1.42)">
          <path id="路径_15160" data-name="路径 15160" d="M68.534,158.272h-15.4V95.619h15.4Z" transform="translate(-53.134 -95.619)" fill="#004d9e"/>
        </g>
        <g id="组_4542" data-name="组 4542" transform="translate(25.513 16.41)">
          <path id="路径_15161" data-name="路径 15161" d="M68.618,152.38V105.807h14.09v4.324a17.906,17.906,0,0,1,6.139-4.07,20.929,20.929,0,0,1,7.673-1.345q7.62,0,11.328,4.806t3.711,14.739V152.38H97.476V124.942q0-4.721-1.658-6.911c-1.112-1.5-2.877-2.215-5.268-2.215-2.831,0-4.843.674-6.044,2.05s-1.8,3.724-1.8,7.075V152.38Z" transform="translate(-68.618 -104.716)" fill="#004d9e"/>
        </g>
        <g id="组_4543" data-name="组 4543" transform="translate(71.611 1.42)">
          <path id="路径_15162" data-name="路径 15162" d="M103.753,158.272v-36.92H96.6v-8.534h7.158c-.1-.957-.147-1.633-.17-2.073s-.018-.827-.018-1.173c0-4.94,1.2-8.487,3.605-10.68s6.354-3.272,11.827-3.272a31.49,31.49,0,0,1,3.676.222,35.039,35.039,0,0,1,3.9.682v9.75h-2.35q-3.9,0-5.139.956c-.842.648-1.254,1.913-1.254,3.808v1.781h8.743v8.534h-8.743v36.92Z" transform="translate(-96.595 -95.619)" fill="#004d9e"/>
        </g>
        <g id="组_4544" data-name="组 4544" transform="translate(101.916 15.978)">
          <path id="路径_15163" data-name="路径 15163" d="M140.128,154.049q-11.335,0-18.234-6.8-6.92-6.809-6.907-17.975,0-11.132,6.93-17.973,6.935-6.861,18.211-6.851,11.4,0,18.314,6.818,6.906,6.841,6.915,18.006,0,11.13-6.953,17.957T140.128,154.049Zm-10.738-24.77q0,6.362,2.92,10.114a10.018,10.018,0,0,0,15.653-.04c1.959-2.493,2.936-5.863,2.936-10.074,0-4.24-.964-7.629-2.91-10.125a9.965,9.965,0,0,0-15.653.031C130.367,121.73,129.39,125.085,129.39,129.279Z" transform="translate(-114.987 -104.454)" fill="#004d9e"/>
        </g>
        <g id="组_4545" data-name="组 4545" transform="translate(157.82)">
          <path id="路径_15164" data-name="路径 15164" d="M197.384,156.438a30.915,30.915,0,0,1-7.708,2.908,39.531,39.531,0,0,1-8.927.984q-14.471,0-23.146-8.922-8.692-8.908-8.688-23.821a37.844,37.844,0,0,1,2.658-14.581,28.906,28.906,0,0,1,17.443-16.431,36.162,36.162,0,0,1,11.732-1.817q14.4,0,23.106,8.973,8.7,8.955,8.7,23.856a41.11,41.11,0,0,1-1.442,11.285,28.126,28.126,0,0,1-4.488,9.109,22.668,22.668,0,0,0,12.809,5.594l-4.7,11.183a28.2,28.2,0,0,1-9.722-2.631A24.258,24.258,0,0,1,197.384,156.438Zm-16.637-9.24c4.983,0,8.88-1.707,11.669-5.172q4.207-5.166,4.207-14.439c0-6.19-1.412-11.005-4.226-14.488s-6.7-5.213-11.649-5.213-8.81,1.752-11.641,5.26-4.246,8.323-4.246,14.442,1.41,10.929,4.221,14.409S175.778,147.2,180.747,147.2Z" transform="translate(-148.915 -94.757)" fill="#147c2f"/>
        </g>
        <g id="组_4546" data-name="组 4546" transform="translate(158.738 39.01)">
          <path id="路径_15165" data-name="路径 15165" d="M206.267,132.645a28.125,28.125,0,0,0,4.488-9.109,35.628,35.628,0,0,0,1.04-5.1q-8.267.418-16.279.8a17.925,17.925,0,0,1-3.46,7.458c-2.79,3.465-6.686,5.172-11.669,5.172s-8.856-1.728-11.666-5.2a17.551,17.551,0,0,1-3.126-6.115q-8.144.339-16.123.6a29.73,29.73,0,0,0,7.771,14.927q8.668,8.935,23.145,8.922a39.53,39.53,0,0,0,8.927-.984,30.915,30.915,0,0,0,7.708-2.908,24.258,24.258,0,0,0,7.632,5.688,28.2,28.2,0,0,0,9.722,2.631l4.7-11.183a22.668,22.668,0,0,1-12.809-5.594Z" transform="translate(-149.472 -118.432)" fill="#007024"/>
        </g>
        <g id="组_4547" data-name="组 4547" transform="translate(101.995 41.936)">
          <path id="路径_15166" data-name="路径 15166" d="M147.932,129.149a10.018,10.018,0,0,1-15.653.04,14.925,14.925,0,0,1-2.841-8.222c-4.8.071-9.6.092-14.4.11q.571,9.8,6.828,15.973,6.911,6.807,18.234,6.8t18.277-6.813c4.4-4.324,6.683-9.929,6.911-16.823-4.857.145-9.666.288-14.462.4A14.889,14.889,0,0,1,147.932,129.149Z" transform="translate(-115.035 -120.208)" fill="#004893"/>
        </g>
        <g id="组_4548" data-name="组 4548" transform="translate(78.769 42.668)">
          <path id="路径_15167" data-name="路径 15167" d="M100.939,142.058h14.076V120.771c-4.675-.018-9.362-.046-14.076-.119Z" transform="translate(-100.939 -120.652)" fill="#004893"/>
        </g>
        <g id="组_4549" data-name="组 4549" transform="translate(25.513 40.905)">
          <path id="路径_15168" data-name="路径 15168" d="M68.618,142.751h14.09v-22.5c-4.65-.189-9.338-.41-14.09-.672Z" transform="translate(-68.618 -119.582)" fill="#004893"/>
        </g>
        <g id="组_4550" data-name="组 4550" transform="translate(54.371 42.121)">
          <path id="路径_15169" data-name="路径 15169" d="M86.132,142.273h14.083V120.681c-4.661-.089-9.348-.211-14.083-.361Z" transform="translate(-86.132 -120.32)" fill="#004893"/>
        </g>
        <g id="组_4551" data-name="组 4551" transform="translate(0 39.389)">
          <path id="路径_15170" data-name="路径 15170" d="M53.134,143.346h15.4V119.639q-7.58-.447-15.4-.977Z" transform="translate(-53.134 -118.662)" fill="#004893"/>
        </g>
      </g>
    </g>
  </g>
</svg>
