<svg xmlns="http://www.w3.org/2000/svg" xmlns:xlink="http://www.w3.org/1999/xlink" width="335.889" height="150" viewBox="0 0 335.889 150">
  <defs>
    <clipPath id="clip-path">
      <rect id="矩形_4071" data-name="矩形 4071" width="335.889" height="150" transform="translate(884 716)" fill="none" stroke="#707070" stroke-width="1"/>
    </clipPath>
    <linearGradient id="linear-gradient" x1="-0.004" y1="0.5" x2="1.004" y2="0.5" gradientUnits="objectBoundingBox">
      <stop offset="0" stop-color="#71c4f0"/>
      <stop offset="0.28" stop-color="#006399"/>
      <stop offset="0.82" stop-color="#002854"/>
      <stop offset="1" stop-color="#002854"/>
    </linearGradient>
    <linearGradient id="linear-gradient-2" x1="1.038" y1="0.5" x2="-0.083" y2="0.5" xlink:href="#linear-gradient"/>
    <linearGradient id="linear-gradient-3" x1="-0.004" y1="0.5" x2="1.004" y2="0.5" xlink:href="#linear-gradient"/>
    <linearGradient id="linear-gradient-4" x1="1" y1="0.5" x2="0" y2="0.5" xlink:href="#linear-gradient"/>
    <linearGradient id="linear-gradient-5" x1="0" y1="0.5" x2="1" y2="0.5" xlink:href="#linear-gradient"/>
  </defs>
  <g id="蒙版组_18" data-name="蒙版组 18" transform="translate(-884 -716)" clip-path="url(#clip-path)">
    <g id="组_4531" data-name="组 4531" transform="translate(714.574 371.123)">
      <path id="路径_15107" data-name="路径 15107" d="M184.8,441.767h66.7c5.542,0,11.239-3.551,12.725-7.937h0c1.494-4.388-1.788-7.941-7.327-7.941h-66.7c-5.538,0-11.24,3.552-12.728,7.941h0C175.976,438.216,179.264,441.767,184.8,441.767Z" transform="translate(1.626 8.044)" fill-rule="evenodd" fill="url(#linear-gradient)"/>
      <path id="路径_15108" data-name="路径 15108" d="M175.636,422.918h85.447a13.44,13.44,0,0,0,11.748-8.2h0c1.667-4.527-.883-8.2-5.7-8.2H181.678a13.434,13.434,0,0,0-11.741,8.2h0C168.269,419.246,170.818,422.918,175.636,422.918Z" transform="translate(0 3.945)" fill-rule="evenodd" fill="url(#linear-gradient-2)"/>
      <path id="路径_15109" data-name="路径 15109" d="M267.656,388.264h-66.7c-5.54,0-11.246,3.487-12.736,7.787h0c-1.491,4.3,1.782,7.788,7.319,7.788h66.7c5.538,0,11.238-3.485,12.731-7.788h0C276.476,391.751,273.2,388.264,267.656,388.264Z" transform="translate(3.902 0.082)" fill-rule="evenodd" fill="url(#linear-gradient-3)"/>
      <path id="路径_15110" data-name="路径 15110" d="M265.419,448.489l1.6-5.466-3.884-7.523h3.929l2.424,5.142,5.325-5.142h3.857l-8.292,7.54-1.595,5.449Zm12.692-56.306h35.347l.841-3.24H278.952l-.842,3.24Zm-5.044,13.986h7.328l-12.139,21.618h33.092a3.945,3.945,0,0,0,2.685-1.194,4.079,4.079,0,0,0,1.292-2.644l.4-11.6h-9.944l-.389,11.256a.774.774,0,0,1-.327.638,1.007,1.007,0,0,1-.652.342H280.036l10.342-18.419h20.855l.841-3.241H273.91l-.843,3.241Zm69.54,17.268a1.667,1.667,0,0,1-1.448,1.237h-3.784l3.357-12.92h4.91l-3.035,11.683Zm-9.539-29.292H350.66l-1.805,6.95a1.516,1.516,0,0,1-1.357,1.193H330.952l2.116-8.143Zm-6.075,33.769h19.442a6.644,6.644,0,0,0,5.855-4.86l3.777-14.541H332.032l-5.039,19.4ZM361.044,390.9,358.3,401.478c-.577,2.219-2.622,4.052-4.556,4.052H330.11l-5.893,22.684h-9.543l9.7-37.309h13.567l.786-3.028H348.3l-.789,3.028Zm28.276,4.562.941-2.388H398.6l-.947,2.559.044-.171ZM371.1,388.73h8.733l-.408,6.992h-8.773l.448-6.992ZM388.2,413.418l-1.064,4.092,3.072,2.432,2.239-8.613H375.618l-2.239,8.613,4.335-2.432,1.063-4.092Zm-21.749-6.78h8.735L379,397.386h-8.777l-3.772,9.252Zm21.979-8.825.119-.3-.166.639-11.747,8.485h9.823l4.883-3.453,3.167,3.453h9.784l-7.3-8.485.09-.34h8.778l2.67-7.8H391.461l.837-2.132h-8.575l-3.91,9.935Zm-21.281,10.317-5.79,12.963h9.912L361.123,425.4H360.08l.469,2.857h12.4l7.825-4.391,5.541,4.391h12.36l.741-2.857H397.2l-5.524-4.306h7.528l3.37-12.963Zm60.128-8.485h1.449L423.539,419.6h-3.864l7.6-19.957Zm11.233,0h1.649L437.349,419.6h-4.026l5.186-19.957Zm-6.748-11.682h9.783l-2.194,8.444h14.211l-.842,3.239h-3.382l-3.881,27.333h-9.138l.55-4.138h-4.387l-1.4,5.374H421.3l1.4-5.374H418.47l-1.558,4.138h-9.137L418.1,399.644h-3.5l.842-3.239h14.131l2.193-8.444ZM281.828,435.5h3.361l-2.056,7.038a12.265,12.265,0,0,0-.513,2.171,1.46,1.46,0,0,0,.637,1.281,3.5,3.5,0,0,0,2.053.483,4.8,4.8,0,0,0,2.264-.457,2.706,2.706,0,0,0,1.19-1.122,13.955,13.955,0,0,0,.792-2.206l2.1-7.189h3.362l-2,6.83a16.78,16.78,0,0,1-1.236,3.308,5.173,5.173,0,0,1-1.481,1.632,7.383,7.383,0,0,1-2.252,1.059,11.882,11.882,0,0,1-3.3.394,10.222,10.222,0,0,1-3.469-.429,3.548,3.548,0,0,1-1.609-1.118,2.4,2.4,0,0,1-.514-1.442,12.8,12.8,0,0,1,.637-3.3l2.028-6.935Zm14.448,12.989,3.8-12.989h3.254l4.287,8.7,2.546-8.7h3.108l-3.8,12.989h-3.36l-4.229-8.54-2.5,8.54Zm37.673,0,3.8-12.989h3.362l-3.8,12.989Zm15.7,0,3.8-12.989h5.376a23.543,23.543,0,0,1,3.924.193,3.148,3.148,0,0,1,2.016,1.275,2.875,2.875,0,0,1,.223,2.53,4.785,4.785,0,0,1-1.143,2.01,6.122,6.122,0,0,1-1.779,1.279,7.3,7.3,0,0,1-1.916.616,25.423,25.423,0,0,1-3.529.188h-2.177l-1.433,4.9Zm6.522-10.794-1.083,3.7h1.829a11.746,11.746,0,0,0,2.7-.2,3.106,3.106,0,0,0,1.229-.641,2.119,2.119,0,0,0,.677-1.013,1.189,1.189,0,0,0-.185-1.173,1.85,1.85,0,0,0-1.174-.582,20.08,20.08,0,0,0-2.381-.087Zm23.684,10.794L377.006,435.5h-3.551l-9.036,12.989h2.345l2.248-2.958h6.659l.567,2.958Zm-4.637-5.153h-4.547l3.646-4.805.9,4.805Zm7.93,5.153,3.8-12.989h7.061a13.931,13.931,0,0,1,3.766.35,2.519,2.519,0,0,1,1.569,1.243,2.68,2.68,0,0,1,.13,2.045,4.431,4.431,0,0,1-1.8,2.418,7.835,7.835,0,0,1-3.626,1.2,5.085,5.085,0,0,1,1.465,1.087,10.158,10.158,0,0,1,1.286,2.111l1.284,2.535h-4.007l-1.576-2.838a12.4,12.4,0,0,0-1.215-1.9,1.88,1.88,0,0,0-.853-.539,6.536,6.536,0,0,0-1.653-.145H388.1l-1.586,5.426ZM388.7,441h2.481a17.067,17.067,0,0,0,3.058-.161,2.6,2.6,0,0,0,1.1-.549,1.97,1.97,0,0,0,.624-.978,1.1,1.1,0,0,0-.136-1.06,1.667,1.667,0,0,0-1.111-.509q-.4-.045-2.435-.045h-2.617L388.7,441Zm16.431,7.493,3.155-10.794h-4.913l.642-2.194h13.167l-.64,2.194h-4.893L408.5,448.489Zm11.933,0,3.8-12.989h3.258l4.286,8.7,2.546-8.7h3.108l-3.8,12.989H426.9l-4.233-8.54-2.495,8.54Zm18.246,0,3.8-12.989H451.4l-.643,2.194h-8.927l-.843,2.884h8.3l-.642,2.2h-8.3l-1.031,3.519h9.254l-.643,2.2Zm16.97,0,3.8-12.989h7.063a13.909,13.909,0,0,1,3.764.35,2.513,2.513,0,0,1,1.569,1.243,2.685,2.685,0,0,1,.131,2.045,4.414,4.414,0,0,1-1.8,2.418,7.815,7.815,0,0,1-3.623,1.2,5.1,5.1,0,0,1,1.465,1.087,9.95,9.95,0,0,1,1.286,2.111l1.284,2.535h-4.008l-1.574-2.838a12.642,12.642,0,0,0-1.218-1.9,1.864,1.864,0,0,0-.852-.539,6.552,6.552,0,0,0-1.652-.145h-.681l-1.587,5.426ZM457.838,441h2.479a17.066,17.066,0,0,0,3.058-.161,2.6,2.6,0,0,0,1.1-.549,1.994,1.994,0,0,0,.628-.978,1.106,1.106,0,0,0-.138-1.06,1.669,1.669,0,0,0-1.114-.509q-.4-.045-2.433-.045H458.8l-.964,3.3Zm13.043,3.285,3.344-.256a2.133,2.133,0,0,0,.639,1.884,3.473,3.473,0,0,0,2.246.6,5.425,5.425,0,0,0,2.59-.536,2.247,2.247,0,0,0,1.184-1.252.842.842,0,0,0-.111-.786,2.084,2.084,0,0,0-1.041-.559q-.534-.162-2.5-.569a7.8,7.8,0,0,1-3.394-1.292,2.368,2.368,0,0,1-.754-2.62,4.066,4.066,0,0,1,1.26-1.866,6.475,6.475,0,0,1,2.451-1.316,11.627,11.627,0,0,1,3.393-.453q3.112,0,4.372,1.082a2.677,2.677,0,0,1,.808,2.892l-3.389.09a1.545,1.545,0,0,0-.494-1.447,3.342,3.342,0,0,0-1.976-.442,5.4,5.4,0,0,0-2.406.474,1.351,1.351,0,0,0-.768.812.7.7,0,0,0,.269.788,7.962,7.962,0,0,0,2.816.874,15.33,15.33,0,0,1,3.333.934,2.925,2.925,0,0,1,1.447,1.321,2.821,2.821,0,0,1,.056,2.069,4.626,4.626,0,0,1-1.406,2.093,6.837,6.837,0,0,1-2.666,1.447,13.138,13.138,0,0,1-3.751.474q-3.148,0-4.5-1.136A3.4,3.4,0,0,1,470.881,444.281Z" transform="translate(19.831 0)" fill="#002854" fill-rule="evenodd"/>
      <path id="路径_15111" data-name="路径 15111" d="M334.539,440.171l3.8-12.989h5.376a23.546,23.546,0,0,1,3.924.193,3.148,3.148,0,0,1,2.016,1.275,2.875,2.875,0,0,1,.223,2.53,4.785,4.785,0,0,1-1.143,2.01,6.124,6.124,0,0,1-1.779,1.28,7.3,7.3,0,0,1-1.916.615,25.413,25.413,0,0,1-3.53.188h-2.177l-1.433,4.9Zm6.522-10.794-1.083,3.7h1.829a11.745,11.745,0,0,0,2.7-.2,3.105,3.105,0,0,0,1.229-.641,2.118,2.118,0,0,0,.677-1.013,1.189,1.189,0,0,0-.185-1.173,1.85,1.85,0,0,0-1.174-.582,20.063,20.063,0,0,0-2.381-.087Z" transform="translate(34.943 8.318)" fill="#002854" fill-rule="evenodd"/>
      <path id="路径_15112" data-name="路径 15112" d="M362.377,440.171h-3.62l-.567-2.958h-6.659l-2.248,2.958h-3.556l10.248-12.989h3.551l2.851,12.989Zm-4.637-5.153-.9-4.805-3.646,4.805Z" transform="translate(37.311 8.318)" fill="#002854" fill-rule="evenodd"/>
      <path id="路径_15113" data-name="路径 15113" d="M362.187,440.171l3.8-12.989h7.061a13.932,13.932,0,0,1,3.766.35,2.519,2.519,0,0,1,1.569,1.243,2.681,2.681,0,0,1,.13,2.045,4.431,4.431,0,0,1-1.8,2.418,7.834,7.834,0,0,1-3.626,1.2,5.086,5.086,0,0,1,1.465,1.087,10.162,10.162,0,0,1,1.286,2.111l1.284,2.535h-4.007l-1.576-2.838a12.4,12.4,0,0,0-1.215-1.9,1.88,1.88,0,0,0-.853-.539,6.535,6.535,0,0,0-1.653-.145h-.681l-1.586,5.426Zm5.552-7.493h2.481a17.066,17.066,0,0,0,3.058-.161,2.6,2.6,0,0,0,1.1-.549,1.97,1.97,0,0,0,.624-.978,1.1,1.1,0,0,0-.136-1.06,1.667,1.667,0,0,0-1.111-.509q-.4-.045-2.435-.045H368.7l-.966,3.3Z" transform="translate(40.794 8.318)" fill="#002854" fill-rule="evenodd"/>
      <path id="路径_15114" data-name="路径 15114" d="M380.637,440.171l3.155-10.795h-4.913l.643-2.195h13.167l-.64,2.195h-4.893L384,440.171Z" transform="translate(44.327 8.318)" fill="#002854" fill-rule="evenodd"/>
      <path id="路径_15115" data-name="路径 15115" d="M391.39,440.171l2.585-12.99h3.257l4.286,8.7,2.545-8.7h3.108l-3.8,12.99h-3.357l-4.234-8.539-2.494,8.539h-1.9Z" transform="translate(46.718 8.318)" fill-rule="evenodd" fill="url(#linear-gradient-4)"/>
      <path id="路径_15116" data-name="路径 15116" d="M405.238,440.171l3.8-12.99h12.289l-.643,2.195h-8.927l-.844,2.883h8.3l-.642,2.195h-8.3l-1.031,3.519H418.5l-.643,2.2Z" transform="translate(49.905 8.318)" fill="#002854" fill-rule="evenodd"/>
      <path id="路径_15117" data-name="路径 15117" d="M419.244,440.171l3.8-12.989h7.063a13.909,13.909,0,0,1,3.764.35,2.513,2.513,0,0,1,1.569,1.243,2.686,2.686,0,0,1,.131,2.045,4.414,4.414,0,0,1-1.8,2.418,7.814,7.814,0,0,1-3.623,1.2,5.1,5.1,0,0,1,1.465,1.087,9.956,9.956,0,0,1,1.286,2.111l1.284,2.535H430.17l-1.574-2.838a12.636,12.636,0,0,0-1.218-1.9,1.864,1.864,0,0,0-.852-.539,6.55,6.55,0,0,0-1.651-.145h-.681l-1.587,5.426Zm5.555-7.493h2.479a17.066,17.066,0,0,0,3.058-.161,2.6,2.6,0,0,0,1.1-.549,1.993,1.993,0,0,0,.628-.978,1.106,1.106,0,0,0-.138-1.06,1.668,1.668,0,0,0-1.114-.509q-.4-.045-2.433-.045h-2.616l-.964,3.3Z" transform="translate(52.869 8.318)" fill="#002854" fill-rule="evenodd"/>
      <path id="路径_15118" data-name="路径 15118" d="M434.6,436l3.344-.256a2.133,2.133,0,0,0,.639,1.884,3.473,3.473,0,0,0,2.246.6,5.427,5.427,0,0,0,2.59-.536,2.247,2.247,0,0,0,1.184-1.252.842.842,0,0,0-.111-.786,2.084,2.084,0,0,0-1.041-.559q-.534-.162-2.5-.569a7.805,7.805,0,0,1-3.394-1.292,2.368,2.368,0,0,1-.754-2.62,4.066,4.066,0,0,1,1.26-1.866,6.474,6.474,0,0,1,2.451-1.316,11.626,11.626,0,0,1,3.392-.453q3.112,0,4.372,1.082a2.676,2.676,0,0,1,.808,2.892l-3.389.09a1.545,1.545,0,0,0-.494-1.447,3.342,3.342,0,0,0-1.976-.442,5.4,5.4,0,0,0-2.406.474,1.351,1.351,0,0,0-.768.812.7.7,0,0,0,.269.788,7.964,7.964,0,0,0,2.816.874,15.33,15.33,0,0,1,3.333.934,2.925,2.925,0,0,1,1.447,1.321,2.821,2.821,0,0,1,.056,2.069,4.626,4.626,0,0,1-1.405,2.093,6.837,6.837,0,0,1-2.666,1.447,13.141,13.141,0,0,1-3.751.474q-3.148,0-4.5-1.137A3.4,3.4,0,0,1,434.6,436Z" transform="translate(56.108 8.277)" fill="#002854" fill-rule="evenodd"/>
      <path id="路径_15119" data-name="路径 15119" d="M304.4,426.733" transform="translate(28.564 8.223)" fill="#fff" fill-rule="evenodd"/>
      <path id="路径_15120" data-name="路径 15120" d="M319.108,438.292a8.776,8.776,0,0,0,2.355,1.1l-1.779,1.867a6.7,6.7,0,0,1-1.334-.491c-.1-.04-.723-.425-1.889-1.158a12.616,12.616,0,0,1-3.777.559q-3.829,0-5.483-1.764t-.716-4.964a8.636,8.636,0,0,1,3.626-4.96,11.406,11.406,0,0,1,6.417-1.769c2.458,0,4.242.589,5.337,1.769s1.334,2.832.712,4.957a9,9,0,0,1-1.469,2.962,9.249,9.249,0,0,1-2,1.89Zm-2.257-1.475a5.73,5.73,0,0,0,1.389-1.441,7.081,7.081,0,0,0,.888-1.934c.439-1.5.347-2.623-.283-3.368a3.724,3.724,0,0,0-2.991-1.112,6.209,6.209,0,0,0-3.651,1.12,5.985,5.985,0,0,0-2.262,3.367c-.444,1.521-.353,2.662.279,3.413A3.551,3.551,0,0,0,313.11,438a5.566,5.566,0,0,0,1.426-.184,7.777,7.777,0,0,0-1.83-.812l1.382-1.525a9.039,9.039,0,0,1,2.761,1.344Z" transform="translate(28.934 8.219)" fill-rule="evenodd" fill="url(#linear-gradient-5)"/>
      <line id="直线_45" data-name="直线 45" transform="translate(355.054 451.23)" fill="#fff"/>
    </g>
  </g>
</svg>
