<svg xmlns="http://www.w3.org/2000/svg" viewBox="0 0 179.19 40.26"><g fill-rule="evenodd"><path d="M45.93 19.49L35 .53A1.25 1.25 0 0 0 33.9 0H23.2a1.05 1.05 0 0 0-.85.56L17.58 8.8 12.92.74a1.07 1.07 0 0 0-1.75-.05L.13 19.77a.94.94 0 0 0 0 .93l11.05 19.12h0a.9.9 0 0 0 .93.38h11c.57 0 .95-.51 1.21-1l4.43-7.66 4.69 8.1a1 1 0 0 0 1.67 0l11-19.08a.9.9 0 0 0-.18-1.07zM34.24 2.83l9.45 16.34h-8.87a1.34 1.34 0 0 0-.07-.18l-4.93-8.52zM32.8 1.77l-4 6.93-4-6.93zm-9.58.84l4.54 7.86-4.61 8-4.54-7.85zm-1.09 17.6L17.6 28l-4.55-7.85 4.53-7.83zM12 2.76l4.52 7.82-5.07 8.77h-9zm0 34.94L2.41 21.12h9.14l5 8.69zm1.6.77l4-6.89 4 6.89zm9.57-.8l-4.55-7.86L23.15 22l4.56 7.87zm1-17.46l4.61-8 4.55 7.87-4.61 8zM34.24 37.6l-4.48-7.75L34.88 21v-.06h9z" fill="#22aac1"/><path d="M164.64,11.69V16.5l2.56,2.29L169,17l-1.81-1.6V11.69Zm14.55-7.27V2.86h-6.5V0h-2.6V2.86H163.6V4.42h6.49V9.09H163.6v1.56h13v3L162.88,26h3.89l12.42-11.17V9.09h-6.5V4.42Z" fill="#414142"/><path d="M174.53 21.84l-1.94 1.74 2.7 2.4h3.9l-4.66-4.14z" fill="#20aac1"/><g fill="#414142"><path d="M162.56 7.01V5.46h-2.6V0h-2.6v5.46h-2.6v1.55h2.6v7.68l-2.6.7V17l2.6-.69v8.11h-2.6v1.56h5.2V15.61l2.6-.7V13.3l-2.6.7V7.01h2.6zm-17.15 10.66V0h-2.6v17.67h-6.75v1.56h6.75V26h2.6v-6.77H147v-1.56zm-3.64-13.31l-5.71-1.53v2.69l5.71 1.53zm0 7l-5.71-1.53v2.69l5.71 1.53zM135 1.56V0h-12.45v1.56h4.93v3.9h-4.93V7h4.93v19h2.6V15.21l4.92 1.63V14.1l-4.94-1.63V7H135V5.46h-4.94v-3.9zM122.55 26h2.6V9.61h-2.6zm-10.4-26v24.42h-2.59V26h5.19V0zm-6.75 19.49h2.6V2.86h-2.6zm-2.6-17.93V0H90.33v1.56h2.48l-2.46 10.91H93l.58-2.6h6.61v7.81L90.33 23v3l12.47-6.73V8.31H94l1.52-6.75zm-9.47 13h-3L93 19.15l2.25-1.3zm-27.68-.01v-1h-2.6v1h-4.94v1.56h4.94v6.12L58.15 26h4.28l8.15-6.23v-5.2zM68 18.46l-2.34 1.79v-4.14H68zM68 26h2.59v-2.6H68z"/><path d="M77.47 20.28l4.03-7.81V5.46h1.04V3.9h-8.32V0h-2.6v12.47h2.6V5.46h4.68v6.38l-3.29 6.37-1.39-1.54v-3.16h-2.6v4.16l2.72 3.01-2.73 5.3h0 2.92l1.67-3.23 2.91 3.23h3.34l.09-.07-5.07-5.63zM65.65 4.37h.1 2.73L70.58 0h-2.87l-2.06 4.32V0h-2.6v5.46h-4.94V7h1v5.46h2.6V7h1.3v5.46h2.6V7h4.93V5.46h-4.89zm-2.72 0l.12-.06L61 0h-2.89l2.1 4.4zm-2.17 1h-.06 0zm7.49 8.08h0-.05zm-2.6-5.46l2.09 4.4h2.72l.12-.06-2.07-4.28z"/></g></g><path d="M62.56 33a3.71 3.71 0 0 0-1.56-.39c-1.06 0-1.5.53-1.5 1 0 .66.5 1 1.62 1.41 1.43.54 2.12 1.22 2.12 2.28 0 1.29-1.1 2.25-3.1 2.25a5 5 0 0 1-2.14-.44l.31-1a4.36 4.36 0 0 0 1.93.46c1 0 1.65-.48 1.65-1.17s-.46-1.06-1.51-1.45c-1.33-.46-2.22-1.16-2.22-2.2 0-1.22 1.12-2.14 2.89-2.14a4.67 4.67 0 0 1 1.87.35zm8.71 6.46h-1.35V36H66.3v3.51H65v-7.77h1.3v3.19h3.62v-3.19h1.35zm8.39-3.14a2.9 2.9 0 0 1-3.21 3.25c-1.83 0-3.06-.92-3.06-3.22v-4.6h1.35v4.67c0 1.54.73 2.2 1.76 2.2s1.81-.67 1.81-2.2v-4.67h1.35zm6.9 3.14h-4.78v-7.71h1.35v6.72h3.43zM88 31.75h1.35v7.71H88zm8.37 7.71h-4.84v-7.71h4.65v1h-3.31V35H96v1h-3.13v2.57h3.5zm12.73-6.71h-2.4v6.71h-1.35v-6.71H103v-1h6.15zm6.14 6.71h-4.85v-7.71H115v1h-3.3V35h3.11v1h-3.11v2.57h3.5zm7.41-.21a5.84 5.84 0 0 1-2.09.32c-2.48 0-4.14-1.42-4.14-3.88 0-2.62 1.9-4 4.37-4a4.88 4.88 0 0 1 1.89.3l-.29 1a4.13 4.13 0 0 0-1.55-.28 2.78 2.78 0 0 0-3 3 2.72 2.72 0 0 0 3 3 4.56 4.56 0 0 0 1.61-.28zm7.94.21h-1.34V36h-3.63v3.51h-1.35v-7.77h1.35v3.19h3.63v-3.19h1.34zm8.51 0h-1.36l-2.34-3.61a22.53 22.53 0 0 1-1.47-2.61h-.05l.09 3.33v2.88h-1.24v-7.7h1.46l2.33 3.57a21.46 21.46 0 0 1 1.48 2.55h0c-.1-1-.13-2-.13-3.27v-2.85h1.24zm9.21-3.93c0 2.68-1.66 4-3.82 4a3.6 3.6 0 0 1-3.72-3.92 3.71 3.71 0 0 1 3.83-4 3.59 3.59 0 0 1 3.71 3.92zm-6.12.09c0 1.56.81 3 2.34 3s2.36-1.41 2.36-3c0-1.47-.74-3-2.33-3s-2.37 1.49-2.37 3zm12.57 3.84H150v-7.71h1.35v6.72h3.43zm8.55-3.93c0 2.68-1.66 4-3.83 4a3.61 3.61 0 0 1-3.72-3.92 3.72 3.72 0 0 1 3.84-4 3.59 3.59 0 0 1 3.71 3.92zm-6.13.09c0 1.56.82 3 2.35 3s2.36-1.41 2.36-3c0-1.47-.74-3-2.34-3s-2.37 1.49-2.37 3zm14.19 3.53a8.54 8.54 0 0 1-2.54.39c-3.84 0-4.33-2.65-4.33-3.88 0-2.5 1.89-4 4.56-4a5.64 5.64 0 0 1 2.06.32l-.3 1a4.73 4.73 0 0 0-1.76-.29 2.81 2.81 0 0 0-3.14 3 2.74 2.74 0 0 0 3 3 3 3 0 0 0 1.19-.17v-2.27h-1.54v-.94h2.84zm7.82-7.4l-2.76 4.46v3.25h-1.35v-3.22l-2.61-4.49H174l1 2 .78 1.59h0l.78-1.6 1.06-2z" fill="#666"/></svg>
