<svg xmlns="http://www.w3.org/2000/svg" xmlns:xlink="http://www.w3.org/1999/xlink" width="543" height="150" viewBox="0 0 543 150">
  <defs>
    <clipPath id="clip-path">
      <rect id="矩形_4069" data-name="矩形 4069" width="543" height="150" transform="translate(1726 1196)" fill="none" stroke="#707070" stroke-width="1"/>
    </clipPath>
  </defs>
  <g id="蒙版组_20" data-name="蒙版组 20" transform="translate(-1726 -1196)" clip-path="url(#clip-path)">
    <g id="组_4559" data-name="组 4559" transform="translate(1679.519 1124)">
      <g id="组_4557" data-name="组 4557" transform="translate(46.481 112)">
        <g id="组_4556" data-name="组 4556">
          <g id="组_4554" data-name="组 4554" transform="translate(0 7.479)">
            <path id="路径_15171" data-name="路径 15171" d="M49.622,149.976c2.392,2.17,5.833,4.113,9.124,4.113,2.392,0,5.084-1.047,5.084-3.888,0-3.141-3.664-3.664-7.778-5.46-4.637-2.019-8.525-4.488-8.525-10.4,0-7.7,6.207-10.993,13.91-10.993,4.188,0,8.675.971,11.891,3.066v.9l-2.992,5.909a13.543,13.543,0,0,0-8.077-2.617c-2.767,0-4.486,1.122-4.486,3.29,0,2.843,3.29,3.441,7.4,5.011,5.684,2.168,9.124,4.562,9.124,10.619,0,7.928-6.207,11.369-14.434,11.369a21.046,21.046,0,0,1-13.387-4.413v-.9Z" transform="translate(-46.481 -113.556)" fill="#0d131a"/>
            <path id="路径_15172" data-name="路径 15172" d="M83.461,160.9c-12.189,0-17.126-8.452-17.126-19,0-10.4,4.562-18.547,16.6-18.547,11.593,0,15.706,7.478,15.706,17.2a15.1,15.1,0,0,1-.749,4.337c-2.841,0-20.267-.149-21.015-.149.076,3.964,1.8,9.2,7.779,9.2,3.066,0,5.608-1.57,7.852-3.964l4.262,4.787v.9A19.427,19.427,0,0,1,83.461,160.9Zm-.523-30.214c-3.664,0-5.758,2.841-5.982,8.75.822,0,11.217-.225,11.591-.225C88.546,133.6,86.9,130.682,82.937,130.682Z" transform="translate(-36.122 -113.556)" fill="#0d131a"/>
            <path id="路径_15173" data-name="路径 15173" d="M122.365,131.131v30.289c0,10.32-7.778,14.657-16.3,14.657a28.281,28.281,0,0,1-13.985-3.664l2.692-6.656h.9a17.291,17.291,0,0,0,9.273,2.992c4.413,0,6.88-2.245,6.88-6.133,0-.6.225-4.039.374-6.133l-.3-.149c-2.543,2.318-5.609,4.486-9.8,4.486-10.246,0-12.714-9.348-12.714-18.92,0-9.35,3.813-18.547,12.938-18.547a14.464,14.464,0,0,1,9.946,4.262l.225-.149.747-2.619.823-.747,8.525.224C122.514,125.073,122.365,128.886,122.365,131.131Zm-10.47,2.992a8.28,8.28,0,0,0-5.909-2.992c-5.011,0-5.609,6.731-5.609,10.769,0,4.412.225,11.816,4.937,11.816,2.094,0,4.711-1.721,6.431-3.89C111.744,149.08,111.9,134.944,111.9,134.122Z" transform="translate(-24.097 -113.556)" fill="#0d131a"/>
            <path id="路径_15174" data-name="路径 15174" d="M153.954,159.9c0-.674.3-22.885.3-23.558,0-3.739-.972-5.16-3.29-5.16a10.717,10.717,0,0,0-5.983,2.468V159.9h-10.32c0-.674.151-22.885.151-23.558,0-3.739-.9-5.16-3.066-5.16a11.052,11.052,0,0,0-6.133,2.543l.075,26.175h-10.62V133.5c0-2.543-.149-7.627-.224-9.2l8.825-.224.823.747.523,2.917.149.075a19.561,19.561,0,0,1,11.517-4.412,7.537,7.537,0,0,1,7.254,4.562,21.265,21.265,0,0,1,12.191-4.562c4.86,0,8.675,2.992,8.675,10.619,0,.749-.225,25.128-.225,25.877Z" transform="translate(-10.815 -113.53)" fill="#0d131a"/>
            <path id="路径_15175" data-name="路径 15175" d="M167.646,160.9c-12.189,0-17.126-8.452-17.126-19,0-10.4,4.562-18.547,16.6-18.547,11.593,0,15.706,7.478,15.706,17.2a15.1,15.1,0,0,1-.749,4.337c-2.841,0-20.267-.149-21.015-.149.076,3.964,1.8,9.2,7.779,9.2,3.066,0,5.608-1.57,7.852-3.964l4.262,4.787v.9A19.427,19.427,0,0,1,167.646,160.9Zm-.523-30.214c-3.664,0-5.758,2.841-5.982,8.75.822,0,11.217-.225,11.591-.225C172.731,133.6,171.086,130.682,167.122,130.682Z" transform="translate(7.8 -113.556)" fill="#0d131a"/>
            <path id="路径_15176" data-name="路径 15176" d="M194.8,159.9c0-.674.3-22.885.3-23.558,0-3.815-.9-5.16-3.439-5.16-1.87,0-4.562,1.2-6.582,2.543l.075,26.175H174.53V133.5c0-2.617-.149-7.627-.224-9.2l8.825-.224.823.747.523,2.917.149.075c3.366-2.467,8.227-4.412,12.191-4.412,5.01,0,8.825,2.992,8.825,10.619,0,.749-.225,25.128-.225,25.877Z" transform="translate(20.21 -113.53)" fill="#0d131a"/>
            <path id="路径_15177" data-name="路径 15177" d="M211.494,163.282c-9.348,0-10.021-5.385-10.021-10.62,0-.747,0-10.47.149-17.5-2.319.075-3.813.075-4.562.075l.075-7.554c.749,0,2.168,0,4.488.076-.075-4.113-.149-9.424-.149-10.1l.747-.747h9.872c0,.673,0,5.16-.149,10.844,2.617-.076,6.133-.076,6.88-.076l-.149,7.554c-.747,0-4.113,0-6.731-.075.075,6.805.075,15.555.075,16.229,0,3.739.075,4.486,3.366,4.486H218.3l.151,6.656-.749.749Z" transform="translate(32.082 -116.915)" fill="#0d131a"/>
          </g>
          <g id="组_4555" data-name="组 4555" transform="translate(255.278)">
            <path id="路径_15178" data-name="路径 15178" d="M218.723,165.847c0-.749.149-21.09.224-28.12-2.019.075-4.113.075-4.711.075l.075-7.554c.6,0,2.617,0,4.562.076,0-.3-.149-6.507-.149-6.731,0-8.452,4.935-11.593,11.367-11.593a21.5,21.5,0,0,1,8.45,1.645v1.122l-2.168,5.983a7.871,7.871,0,0,0-3.739-1.047c-2.094,0-3.441,1.047-3.441,5.011,0,1.345.075,5.309.075,5.609,2.245-.076,6.507-.076,7.1-.076L236.3,137.8c-.6,0-4.862,0-7.1-.075.149,7.03.149,27.372.149,28.12Z" transform="translate(-214.235 -112)" fill="#00995b"/>
            <path id="路径_15179" data-name="路径 15179" d="M252.449,159.923l-.747-.749-.9-2.841-.3-.075a16.173,16.173,0,0,1-11.217,4.637c-8,0-9.424-6.881-9.424-10.92,0-11.517,9.872-12.189,20.192-12.787V134.87c0-3.29-2.168-4.113-4.786-4.113a32.619,32.619,0,0,0-11.442,2.468l-2.318-5.983v-.9a49.2,49.2,0,0,1,16.826-2.99c7.4,0,12.265,3.066,12.265,11.068v16.9c0,2.917.149,7.1.224,8.6ZM250.131,142.8c-7.03.151-10.1.225-10.1,5.834,0,2.617.673,5.086,3.515,5.086a9.647,9.647,0,0,0,6.505-3.292c0-.449.151-7.1.151-7.552Z" transform="translate(-206.081 -106.077)" fill="#00995b"/>
            <path id="路径_15180" data-name="路径 15180" d="M277.207,159.591l-.749-.749-.9-2.992-.3-.075a16.765,16.765,0,0,1-12.191,4.787c-5.458,0-9.423-2.992-9.423-10.62,0-.749.225-25.2.225-25.952h9.872l.747.749c0,.823-.224,22.286-.224,23.258,0,2.692.9,5.235,3.59,5.235a11.108,11.108,0,0,0,7.029-3.365l-.149-25.877h9.872l.749.749v26.25c0,2.917.149,7.1.224,8.6Z" transform="translate(-193.671 -105.744)" fill="#00995b"/>
            <path id="路径_15181" data-name="路径 15181" d="M289.017,156.913c0,2.841.149,7.1.3,8.6H278.7c-.151-1.5-.3-5.76-.3-8.6V121.538c0-2.841-.075-7.1-.224-8.6l10.1-.3.749.747Z" transform="translate(-180.876 -111.667)" fill="#00995b"/>
            <path id="路径_15182" data-name="路径 15182" d="M302.042,163.282c-9.348,0-10.021-5.385-10.021-10.62,0-.747,0-10.47.149-17.5-2.318.075-3.813.075-4.562.075l.076-7.554c.747,0,2.169,0,4.486.076-.075-4.113-.149-9.424-.149-10.1l.747-.747h9.873c0,.673,0,5.16-.151,10.844,2.617-.076,6.133-.076,6.881-.076l-.151,7.554c-.747,0-4.113,0-6.731-.075.075,6.805.075,15.555.075,16.229,0,3.739.076,4.486,3.366,4.486h2.917l.149,6.656-.747.749Z" transform="translate(-175.954 -109.436)" fill="#00995b"/>
          </g>
        </g>
      </g>
      <g id="组_4558" data-name="组 4558" transform="translate(490.867 120.167)">
        <path id="路径_15183" data-name="路径 15183" d="M338.506,157.081a35.033,35.033,0,0,0,5.375-11.873l5.527,2c-1.228,4.351-2.969,9.52-5.427,12.9Zm21.137-15.455H343.624v-24.26h36.645v24.26H360.923a40.326,40.326,0,0,1,9.468,6.5l-4.351,4.144a42.4,42.4,0,0,0-9.98-7.318Zm-10.287-14.689h9.622v-4.3h-9.622Zm0,9.417h9.622v-4.5h-9.622Zm18.066,20.215c2.1,0,2.508-.765,2.814-5.833a17.413,17.413,0,0,0,5.477,2.251c-.665,7.268-2.456,9.111-7.778,9.111h-8.5c-6.755,0-8.444-1.791-8.444-7.216v-8.394h6.142v8.342c0,1.535.461,1.739,3.019,1.739Zm6.807-33.93h-9.366v4.3h9.366Zm0,9.211h-9.366v4.5h9.366Zm4.914,13.052c2.865,3.838,5.731,8.8,6.755,12.385l-5.936,2.508a45.809,45.809,0,0,0-6.244-12.643Z" transform="translate(-338.506 -117.367)" fill="#0d131a"/>
        <path id="路径_15184" data-name="路径 15184" d="M392.861,131.864a73.132,73.132,0,0,1-16.94,8.8,38.85,38.85,0,0,0-4.351-5.423c8.342-2.458,16.531-6.6,22.161-11.926H373.617v-5.681H418.45v5.681H402.279a34.6,34.6,0,0,1-3.226,3.48v14.432h-6.192Zm-13.919,10.8h34.647v20.165h-6.653v-1.843h-21.7v1.895h-6.294Zm6.294,5.323v7.727h21.7v-7.727Zm19.294-21.037a90.7,90.7,0,0,1,15.66,8.6l-4.4,4.555a87.133,87.133,0,0,0-15.61-9.159Z" transform="translate(-321.255 -117.227)" fill="#0d131a"/>
      </g>
      <line id="直线_46" data-name="直线 46" y2="70" transform="translate(463.24 112)" fill="none" stroke="#231815" stroke-miterlimit="10" stroke-width="0.2" opacity="0.25"/>
    </g>
  </g>
</svg>
