<svg xmlns="http://www.w3.org/2000/svg" viewBox="0 0 500 500"><defs><linearGradient id="A" gradientUnits="userSpaceOnUse" x1="212.874" y1="165.75" x2="117.516" y2="460.725"><stop offset="0" stop-color="#a92f33"/><stop offset="1" stop-color="#e62129"/></linearGradient><linearGradient id="B" gradientUnits="userSpaceOnUse" x1="266.445" y1="80.603" x2="364.441" y2="310.889"><stop offset="0" stop-color="#a92f33"/><stop offset="1" stop-color="#e8443f"/></linearGradient><linearGradient id="C" gradientUnits="userSpaceOnUse" x1="154.613" y1="258.118" x2="257.66" y2="133.373"><stop offset="0" stop-color="#e62129"/><stop offset="1" stop-color="#e8443f"/></linearGradient></defs><path d="M156.005 337.641l91.279-132.409-28.769-45.037-84.086 99.791c-27.926 33.153-32.422 41.413-55.74 80.295l77.344-2.64z" fill="url(#A)"/><path d="M382.616 340.281l37-.14L253.325 51.188h0l80.294 289.093h49.025zM253.297 51.188l-42.058 69.506 8.456-13.962 33.602-55.516z" fill="url(#B)"/><path d="M218.487 160.195L333.59 340.281 253.297 51.188h0 0l-33.573 55.515L78.661 340.281z" fill="url(#C)"/><path d="M119.467 401.913v37.918h-19.54v-3.885c-.516.973-1.539 1.859-3.063 2.656-1.551.82-2.946 1.229-4.187 1.229h-52.92c-1.423 0-2.857-.309-4.303-.93-1.446-.641-2.625-1.537-3.528-2.689-.903-1.129-1.369-2.414-1.396-3.852l-.116-10.426-.078-6.641c0-3.144.981-5.611 2.946-7.404 1.938-1.816 4.214-2.723 6.823-2.723h50.052c2.326 0 4.342.508 6.048 1.527 1.733 1.019 2.974 2.025 3.722 3.021v-5.08c0-1.063-.361-2.148-1.086-3.254-.748-1.106-1.811-2.025-3.179-2.756-1.345-.707-2.935-1.063-4.769-1.063H30.995V384.05h67.537a18.92 18.92 0 0 1 8.103 1.793c2.532 1.195 4.769 2.746 6.707 4.648s3.45 3.885 4.536 5.943c1.058 2.035 1.59 3.862 1.59 5.479zm-23.262 20.586c0-.707-.299-1.351-.892-1.926-.62-.598-1.369-1.072-2.249-1.428-.903-.332-1.628-.498-2.171-.498H53.946c-1.679 0-2.857.488-3.528 1.461-.671.996-1.008 1.76-1.008 2.291 0 1.152.438 2.082 1.318 2.789.853.687 1.717 1.029 2.598 1.029H91.94c.853 0 1.783-.375 2.791-1.129.981-.774 1.473-1.637 1.473-2.59zm115.719-27.758v13.082c0 3.121-.88 5.754-2.636 7.902s-4.691 3.221-8.801 3.221h-53.308v20.885h-18.726v-34.332h60.907c.799 0 1.613-.408 2.442-1.229.826-.797 1.241-1.693 1.241-2.689a3.11 3.11 0 0 0-1.047-2.391c-.675-.664-1.59-1.152-2.753-1.461a13.13 13.13 0 0 0-3.45-.465h-57.34V384.05h70.25c4.885 0 8.308 1.006 10.274 3.021 1.962 2.035 2.946 4.592 2.946 7.67zm28.581-10.691v55.715H221.78V384.05h18.726zm93.307 30.846v16.336c0 2.347-.787 4.373-2.365 6.076-1.601 1.683-3.838 2.523-6.707 2.523h-75.368v-13.68h60.442c1.086 0 2.21-.332 3.373-.996 1.19-.664 1.783-1.67 1.783-3.021 0-.73-.244-1.418-.737-2.059-.516-.641-1.264-1.162-2.249-1.561-1.008-.375-2.105-.564-3.295-.564h-45.748c-2.171 0-4.11-.475-5.815-1.428-1.729-.953-3.047-2.059-3.954-3.32-.93-1.262-1.396-2.291-1.396-3.088v-18.096c0-1.551 1.008-3.264 3.024-5.146s4.614-2.822 7.793-2.822h67.692v13.215h-55.906c-1.136 0-2.055.422-2.753 1.262-.698.82-1.047 1.683-1.047 2.59 0 .84.481 1.727 1.434 2.656s2.315 1.395 4.071 1.395h45.826c4.059 0 7.056.896 8.995 2.689s2.908 4.14 2.908 7.039zm29.81-30.846v55.715h-18.726V384.05h18.726zm73.771 28.289l32.062 27.426h-26.092l-23.649-20.818-23.533 20.885h-26.518l32.295-27.725-28.457-27.99h22.874l22.913 21.051 23.417-21.051h24.27l-29.581 28.223z" fill="#333"/></svg>
