<svg xmlns="http://www.w3.org/2000/svg" xmlns:xlink="http://www.w3.org/1999/xlink" width="354" height="150" viewBox="0 0 354 150">
  <defs>
    <clipPath id="clip-path">
      <rect id="矩形_4067" data-name="矩形 4067" width="354" height="150" transform="translate(2589 699)" fill="none" stroke="#707070" stroke-width="1"/>
    </clipPath>
  </defs>
  <g id="蒙版组_15" data-name="蒙版组 15" transform="translate(-2589 -699)" clip-path="url(#clip-path)">
    <g id="组_4530" data-name="组 4530" transform="translate(2581.451 722.593)">
      <path id="路径_15104" data-name="路径 15104" d="M57.876,65.2c-8.029.054-14.575-5.189-15.015-14.965C42.42,41.113,50.452,35,58.1,34.833c8.8-.219,14.081,9.831,14.081,9.831l22.715-8.357s-9.35-24.193-34.647-24.193c-23.654,0-39.989,16.384-39.989,38.615,0,19.772,15.4,39.489,39.439,38.617,26.4-.983,35.421-24.2,35.421-24.2l-23.322-7.7c.056-.109-4.731,7.756-13.916,7.756" transform="translate(0.664 0.664)" fill="#3dab53" fill-rule="evenodd"/>
      <path id="路径_15105" data-name="路径 15105" d="M58.807,91.407A37.815,37.815,0,0,1,31.974,80.743a40.96,40.96,0,0,1-12.425-29.35c0-23.169,17.395-39.985,41.36-39.985,25.936,0,35.828,24.819,35.925,25.069l.5,1.3L72.19,47.026l-.56-1.061c-.048-.093-5.065-9.292-12.834-9.1a15.068,15.068,0,0,0-10.488,4.708,12.444,12.444,0,0,0-3.415,9.261C45.268,59.146,50.569,64.5,58.412,64.5h.118l.012,1.648V64.5c7.874,0,12.28-6.389,12.757-7.116l1.522-.37.068-.2,24.691,8.151-.524,1.346c-.093.24-9.656,24.066-36.645,25.071Q59.605,91.407,58.807,91.407Zm2.1-77.26c-22.738,0-38.62,15.316-38.62,37.246A38.2,38.2,0,0,0,33.876,78.771,35.2,35.2,0,0,0,60.31,88.64c21.858-.814,31.278-17.14,33.606-22L72.981,59.726c-1.695,2.2-6.6,7.51-14.44,7.51v0c-.043,0-.085,0-.128,0-9.293,0-15.818-6.525-16.258-16.274A15.112,15.112,0,0,1,46.3,39.7a17.836,17.836,0,0,1,12.427-5.576c7.814-.136,13.01,6.8,14.713,9.518l20.262-7.455C91.365,31.316,81.633,14.147,60.909,14.147Z" transform="translate(0 0)" fill="#006838"/>
      <path id="路径_15106" data-name="路径 15106" d="M86.962,55.659c7.368,0,10.909-6.259,10.909-13.33C97.87,35.315,94.215,29,86.962,29s-10.909,6.317-10.909,13.33C76.053,49.4,79.592,55.659,86.962,55.659Zm0,8C75.182,63.657,67,54.325,67,42.329,67,30.274,75.124,21,86.962,21c11.663,0,19.962,9.563,19.962,21.329C106.923,54.327,98.857,63.657,86.962,63.657ZM123.577,21c3.25,0,11.374,1.218,11.374,5.8a4.02,4.02,0,0,1-3.89,4.287c-2.379,0-4.235-1.739-7.717-1.739-2.5,0-4.758,1.334-4.758,3.767,0,5.972,19.382,2.145,19.382,17.1,0,8.289-6.848,13.447-14.856,13.447-4.467,0-14.1-1.043-14.1-6.492a3.87,3.87,0,0,1,3.888-4.114c2.728,0,5.978,2.261,9.749,2.261,3.829,0,5.92-2.145,5.92-4.985,0-6.839-19.382-2.724-19.382-16.171C109.186,26.043,115.86,21,123.577,21Zm16.481,21.329c0-12.055,8.122-21.329,19.96-21.329,4.237,0,12.475,1.39,12.475,6.492a3.682,3.682,0,0,1-3.6,3.884c-2.379,0-4-2.03-8.879-2.03-7.2,0-10.909,6.086-10.909,13.158,0,6.9,3.771,12.809,10.909,12.809,4.875,0,6.846-2.435,9.226-2.435,2.612,0,3.831,2.608,3.831,3.942,0,5.565-8.764,6.839-13.057,6.839-11.779,0-19.962-9.332-19.962-21.329Zm37.077,16.462V25.867a4.356,4.356,0,1,1,8.706,0V38.156h18.221V25.867a4.355,4.355,0,1,1,8.7,0v32.92a4.355,4.355,0,1,1-8.7,0V46.152H185.841V58.787a4.356,4.356,0,1,1-8.706,0Zm40.854,0V25.867a4.354,4.354,0,1,1,8.7,0V58.791a4.355,4.355,0,1,1-8.7,0Zm13.577,0V25.867a4.156,4.156,0,0,1,4.353-4.518,5.425,5.425,0,0,1,3.655,1.912l18.4,24.516h.116V25.867a4.355,4.355,0,1,1,8.7,0V58.791a4.156,4.156,0,0,1-4.353,4.518,5.549,5.549,0,0,1-3.655-1.912l-18.4-24.225h-.116v21.62a4.355,4.355,0,1,1-8.7,0Zm38.008-1.45,11.665-31.53A6.82,6.82,0,0,1,287.447,21c3.075,0,5.222,2.028,6.209,4.811L305.03,57.338a6.747,6.747,0,0,1,.463,2.146,3.864,3.864,0,0,1-4,3.826,4.068,4.068,0,0,1-4.237-3.015l-1.739-5.449H279.381l-1.741,5.39a4.032,4.032,0,0,1-4.178,3.073,4.162,4.162,0,0,1-4.293-4.058,4.941,4.941,0,0,1,.407-1.912Zm17.815-27.3L281.877,46.85H292.9l-5.4-16.809Z" transform="translate(44.555 9.008)" fill="#111"/>
    </g>
  </g>
</svg>
