<svg xmlns="http://www.w3.org/2000/svg" xmlns:xlink="http://www.w3.org/1999/xlink" width="246" height="150" viewBox="0 0 246 150">
  <defs>
    <clipPath id="clip-path">
      <rect id="矩形_4066" data-name="矩形 4066" width="246" height="150" transform="translate(2108 439)" fill="none" stroke="#707070" stroke-width="1"/>
    </clipPath>
  </defs>
  <g id="蒙版组_16" data-name="蒙版组 16" transform="translate(-2108 -439)" clip-path="url(#clip-path)">
    <g id="组_4529" data-name="组 4529" transform="translate(2108 464)">
      <rect id="矩形_4064" data-name="矩形 4064" width="245.794" height="100" transform="translate(0 0)" fill="#359b36"/>
      <g id="组_4528" data-name="组 4528" transform="translate(28.59 23.149)">
        <g id="组_4525" data-name="组 4525" transform="translate(41.608 6.172)">
          <path id="路径_15086" data-name="路径 15086" d="M210.05,156.986a1.373,1.373,0,0,0-1.469,1.146,51.67,51.67,0,0,1-1.924,7.3,32.7,32.7,0,0,1-2.974,6.239,2.9,2.9,0,0,0-.229.869c0,1.144.612,1.7,1.833,1.7a1.9,1.9,0,0,0,1.743-1.144,35.383,35.383,0,0,0,3.109-6.981,39.9,39.9,0,0,0,1.637-7.2C211.777,157.633,211.207,156.986,210.05,156.986Z" transform="translate(-202.545 -131.44)" fill="#fff"/>
          <path id="路径_15087" data-name="路径 15087" d="M206.339,128.87a1.741,1.741,0,0,0,1.012.409c1.279,0,1.921-.571,1.921-1.7a2.8,2.8,0,0,0-.413-1.2,39.659,39.659,0,0,0-5.033-4.59,1.354,1.354,0,0,0-.96-.636c-1.339,0-2.012.613-2.012,1.833a1.863,1.863,0,0,0,.5.962C203.122,125.545,204.8,127.184,206.339,128.87Z" transform="translate(-200.853 -108.132)" fill="#fff"/>
          <path id="路径_15088" data-name="路径 15088" d="M263.223,152.269h-20.5c-2.073,0-3.12,1.043-3.12,3.128V167.15c0,2.076,1.047,3.111,3.12,3.111h15.165v-.01h1.856a1.407,1.407,0,0,0,1.159-.816l.694-1.644c.192-.454-.02-.815-.468-.815h-3.241v-.023H244.539a1.451,1.451,0,0,1-1.636-1.646v-8.079a1.451,1.451,0,0,1,1.636-1.651h16.848a1.454,1.454,0,0,1,1.646,1.651v11.279a.9.9,0,0,0,.525.8l2.248.841c.287.114.527-.071.527-.4V155.4C266.333,153.312,265.288,152.269,263.223,152.269Z" transform="translate(-226.058 -128.372)" fill="#fff"/>
          <path id="路径_15089" data-name="路径 15089" d="M213.433,86.727a1.608,1.608,0,0,0-1.052-.647c-1.409,0-2.1.629-2.1,1.883a2.225,2.225,0,0,0,.547,1.058c1.685,1.412,3.264,2.861,4.758,4.363a1.75,1.75,0,0,0,1.01.406c1.274,0,1.922-.568,1.922-1.689a2.422,2.422,0,0,0-.409-1.2A38.8,38.8,0,0,0,213.433,86.727Z" transform="translate(-206.983 -85.316)" fill="#fff"/>
          <path id="路径_15090" data-name="路径 15090" d="M264.672,105.828H253.059v-4.822a1.31,1.31,0,0,0-.843-1.189l-1.8-.571a.637.637,0,0,0-.841.672v5.91h-9.686a1.73,1.73,0,0,0-1.395.977l-.757,1.651c-.243.535-.01.967.52.967H249.58v5.565a1.328,1.328,0,0,0,.841,1.194l1.8.565a.636.636,0,0,0,.843-.671v-6.653h9.984a1.714,1.714,0,0,0,1.4-.967l.751-1.651C265.442,106.275,265.2,105.828,264.672,105.828Z" transform="translate(-224.787 -93.858)" fill="#fff"/>
          <g id="组_4523" data-name="组 4523" transform="translate(93.49 0.027)">
            <path id="路径_15091" data-name="路径 15091" d="M516.608,93.111h20.514a1.864,1.864,0,0,0,1.447-.944l.787-1.434c.286-.518.093-.939-.427-.939H518.422a1.892,1.892,0,0,0-1.462.939l-.779,1.434C515.9,92.685,516.084,93.111,516.608,93.111Z" transform="translate(-499.381 -87.759)" fill="#fff"/>
            <path id="路径_15092" data-name="路径 15092" d="M470.675,98.11c.28,0,.658-.252,1.137-.783a27.557,27.557,0,0,0,4.63-4.63,23.118,23.118,0,0,0,3.565-6.194,3.222,3.222,0,0,0,.18-.967,1.533,1.533,0,0,0-.6-1.192,2.026,2.026,0,0,0-1.228-.374c-.645,0-1.051.374-1.238,1.111a21.629,21.629,0,0,1-3.436,6.007,25.8,25.8,0,0,1-4.385,4.456,1.37,1.37,0,0,0-.47.967C468.832,97.57,469.448,98.11,470.675,98.11Z" transform="translate(-468.664 -83.971)" fill="#fff"/>
            <path id="路径_15093" data-name="路径 15093" d="M536.675,132.3l-1.655-.831c-.515-.255-.92.061-.92.694v19c0,1.767-.409,2.664-1.208,2.664a41.871,41.871,0,0,1-7.311-1.338,7.983,7.983,0,0,0-1.467-.185c-1,.063-1.543.677-1.6,1.84a1.78,1.78,0,0,0,1.418,1.788,34.252,34.252,0,0,0,8.6,1.477c3.36,0,5.039-1.891,5.039-5.648,0,0,.023-17.063.023-17.856A1.933,1.933,0,0,0,536.675,132.3Z" transform="translate(-503.583 -114.813)" fill="#fff"/>
            <path id="路径_15094" data-name="路径 15094" d="M478.963,118.64c-.639,0-1.052.371-1.231,1.108a22.374,22.374,0,0,1-3.894,6.058,29.386,29.386,0,0,1-4.994,4.446,1.356,1.356,0,0,0-.491,1.01c0,1.134.638,1.7,1.921,1.7.3,0,.715-.278,1.227-.823.694-.523,1.384-1.066,2.053-1.646,3.233-3.325,5.12-4.757,7.005-9.375a2.188,2.188,0,0,0,.232-.919,1.551,1.551,0,0,0-.588-1.192A2.047,2.047,0,0,0,478.963,118.64Z" transform="translate(-468.352 -106.523)" fill="#fff"/>
            <path id="路径_15095" data-name="路径 15095" d="M486.475,152.985l-1.557-.952c-.475-.3-.871,0-.871.664V167.78a2.21,2.21,0,0,0,.917,1.75l1.458.846c.506.285.92-.025.92-.7V154.719A2.227,2.227,0,0,0,486.475,152.985Z" transform="translate(-478.562 -128.17)" fill="#fff"/>
            <path id="路径_15096" data-name="路径 15096" d="M537.373,121.313H512.25a1.968,1.968,0,0,0-1.476.939l-.818,1.434c-.29.505-.116.934.408.934h25.123a1.964,1.964,0,0,0,1.469-.934l.817-1.434C538.063,121.742,537.884,121.313,537.373,121.313Z" transform="translate(-495.325 -108.262)" fill="#fff"/>
          </g>
          <path id="路径_15097" data-name="路径 15097" d="M264.231,85.849c-3.972.391-8.278.669-12.956.821q-5.541.235-12.127.273c-1.1,0-1.65.525-1.65,1.568q0,1.875,1.973,1.876,2.924,0,10.114-.273l3.291-.091c4.48-.215,8.121-.434,10.895-.641,1.4-.187,2.107-.722,2.107-1.6C265.879,86.488,265.327,85.849,264.231,85.849Z" transform="translate(-224.691 -85.166)" fill="#fff"/>
          <g id="组_4524" data-name="组 4524" transform="translate(45.614)">
            <path id="路径_15098" data-name="路径 15098" d="M337.2,103.333h15.287a1.611,1.611,0,0,0,1.334-.939l.6-1.429c.216-.515-.031-.942-.541-.942H338.58a1.617,1.617,0,0,0-1.328.942l-.593,1.429C336.431,102.912,336.678,103.333,337.2,103.333Z" transform="translate(-334.754 -94.386)" fill="#fff"/>
            <path id="路径_15099" data-name="路径 15099" d="M403.736,91.45h-7.653V86.294a2.253,2.253,0,0,0-1.216-1.941l-.861-.371c-.664-.28-1.217.136-1.217.924V91.45h-3.907a1.57,1.57,0,0,0-1.317.937l-.585,1.434c-.208.51.034.942.557.942h5.252v.732a50.762,50.762,0,0,1-1.6,12.521,43.774,43.774,0,0,1-7.7,15.6,1.869,1.869,0,0,0-.546,1.012c.058,1.136.748,1.732,2.057,1.793.491,0,.93-.339,1.329-1.013a41.5,41.5,0,0,0,6.869-12.387,52.7,52.7,0,0,0,2.878-17.53v-.732h5.768c1.126,0,1.7.619,1.7,1.876q0,9.412-.324,16.111-.37,6.01-1.274,8.214a3.117,3.117,0,0,1-3.077,2.156,16.016,16.016,0,0,1-5.166-1.288c-1.259,0-1.881.667-1.881,1.972a1.932,1.932,0,0,0,1.284,1.707A18.379,18.379,0,0,0,399.2,126.7a5.976,5.976,0,0,0,5.176-2.474q1.634-2.3,2.1-9.917.549-8.544.543-18.954Q407.021,91.456,403.736,91.45Z" transform="translate(-364.921 -83.894)" fill="#fff"/>
            <path id="路径_15100" data-name="路径 15100" d="M350.676,151.406c1.289,0,1.925-.482,1.925-1.464a3.717,3.717,0,0,0-.236-1.2,35.393,35.393,0,0,0-3.2-7.251c-.359-.616-.771-.919-1.231-.919-1.25,0-1.876.51-1.876,1.52a1.848,1.848,0,0,0,.409.959,25.209,25.209,0,0,1,1.562,3.267,42.835,42.835,0,0,1-8.192,2.472c-.739.129-1.468.23-2.193.321L342.482,135h6.576a1.666,1.666,0,0,0,1.32-.884l.656-1.346c.242-.48.037-.876-.446-.876H333.442a1.648,1.648,0,0,0-1.312.876l-.663,1.346c-.242.488-.039.884.445.884h7.24l-5.084,14.659c-.255.028-.528.066-.831.088a1.341,1.341,0,0,0-1.512,1.389c0,1.191.649,1.785,1.926,1.785a61.4,61.4,0,0,0,8.6-1.24,51.205,51.205,0,0,0,6.863-2.293c.067.217.137.477.239.78C349.662,151,350.09,151.406,350.676,151.406Z" transform="translate(-331.365 -115.12)" fill="#fff"/>
          </g>
        </g>
        <path id="路径_15101" data-name="路径 15101" d="M110.584,72.879l-27.03,2.848A1.96,1.96,0,0,0,81.8,77.674v35.517a1.959,1.959,0,0,0,1.161,1.793l18.47,8.231a1.955,1.955,0,0,0,2.755-1.793v-8.789l6.442-.679a3.247,3.247,0,0,0,2.792-3.143V75.427A2.508,2.508,0,0,0,110.584,72.879Zm-1.071,34.1a1.344,1.344,0,0,1-1.17,1.278l-4.155.434V86.281a1.935,1.935,0,0,0-1.159-1.782L90.54,78.924,108.2,77.068a1.337,1.337,0,0,1,1.312,1.341Z" transform="translate(-81.802 -70.546)" fill="#fff"/>
        <g id="组_4527" data-name="组 4527" transform="translate(180.173)">
          <path id="路径_15102" data-name="路径 15102" d="M601.552,74.7a4.231,4.231,0,1,1,4.213-4.229A4.234,4.234,0,0,1,601.552,74.7Zm0-7.911a3.68,3.68,0,1,0,3.661,3.681A3.682,3.682,0,0,0,601.552,66.785Z" transform="translate(-597.323 -66.235)" fill="#fff"/>
          <g id="组_4526" data-name="组 4526" transform="translate(2.534 1.76)">
            <path id="路径_15103" data-name="路径 15103" d="M604.572,76.459V71.271h1.889a1.89,1.89,0,0,1,.864.149,1.019,1.019,0,0,1,.466.48,1.69,1.69,0,0,1,.179.783,1.442,1.442,0,0,1-.3.954,1.409,1.409,0,0,1-.887.457,1.443,1.443,0,0,1,.355.3,3.743,3.743,0,0,1,.448.656l.735,1.411h-.707l-.559-1.073a7.212,7.212,0,0,0-.506-.858.872.872,0,0,0-.317-.29,1.023,1.023,0,0,0-.438-.073h-.648v2.295Zm.571-2.9h1.2a1.586,1.586,0,0,0,.6-.091.785.785,0,0,0,.326-.305.988.988,0,0,0,.117-.475.783.783,0,0,0-.232-.613.876.876,0,0,0-.68-.232h-1.333Z" transform="translate(-604.572 -71.271)" fill="#fff"/>
          </g>
        </g>
      </g>
    </g>
  </g>
</svg>
