<svg version="1.1" id="图层_1" xmlns="http://www.w3.org/2000/svg" x="0" y="0" viewBox="0 0 320 360" xml:space="preserve"><style>.st1{fill:#4450e6}.st2{fill:#55f6fb}.st3{fill:#00e561}</style><g id="组_5088" transform="translate(-151 -2665)"><g id="组_5066"><g transform="translate(151 2665)"><path id="矩形_4103-2" d="M10 0h300c5.5 0 10 4.5 10 10v340c0 5.5-4.5 10-10 10H10c-5.5 0-10-4.5-10-10V10C0 4.5 4.5 0 10 0z" fill="#181e2e"/></g><g id="组_5064" transform="translate(-824.314 2813.65)"><path id="路径_15570" class="st1" d="M1295.3 90.6c-24 .1-43.3 19.6-43.2 43.6.1 23.8 19.4 43.1 43.2 43.2V189c-30.4 0-55-24.6-55-55s24.6-55 55-55v11.6z"/><g id="组_4666" transform="translate(1234.314 125.447)"><g id="组_4659"><g id="组_4657"><circle id="椭圆_114" class="st2" cx="31.9" cy="-3.4" r="2.6"/><circle id="椭圆_115" class="st2" cx="-6.4" cy="-3.4" r="2.6"/><circle id="椭圆_116" class="st2" cx="12.8" cy="-3.4" r="2.6"/></g><g id="组_4658" transform="translate(9.582)"><circle id="椭圆_117" class="st3" cx="12.8" cy="-3.4" r="2.6"/><circle id="椭圆_118" class="st3" cx="31.9" cy="-3.4" r="2.6"/><circle id="椭圆_119" class="st3" cx="-6.4" cy="-3.4" r="2.6"/></g></g><g id="组_4662" transform="translate(0 11.862)"><g id="组_4660" transform="translate(9.582)"><circle id="椭圆_120" class="st2" cx="-6.4" cy="-3.4" r="2.6"/><circle id="椭圆_121" class="st2" cx="31.9" cy="-3.4" r="2.6"/><circle id="椭圆_122" class="st2" cx="12.8" cy="-3.4" r="2.6"/></g><g id="组_4661"><circle id="椭圆_123" class="st3" cx="12.8" cy="-3.4" r="2.6"/><circle id="椭圆_124" class="st3" cx="-6.4" cy="-3.4" r="2.6"/><circle id="椭圆_125" class="st3" cx="31.9" cy="-3.4" r="2.6"/></g></g><g id="组_4665" transform="translate(0 23.725)"><g id="组_4663"><circle id="椭圆_126" class="st2" cx="31.9" cy="-3.4" r="2.6"/><circle id="椭圆_127" class="st2" cx="-6.4" cy="-3.4" r="2.6"/><circle id="椭圆_128" class="st2" cx="12.8" cy="-3.4" r="2.6"/></g><g id="组_4664" transform="translate(9.582)"><circle id="椭圆_129" class="st3" cx="12.8" cy="-3.4" r="2.6"/><circle id="椭圆_130" class="st3" cx="31.9" cy="-3.4" r="2.6"/><circle id="椭圆_131" class="st3" cx="-6.4" cy="-3.4" r="2.6"/></g></g></g></g><g id="组_5065" transform="translate(160 2692.467)"><path id="路径_15609" d="M67.8 38.2c0 24.4-19.7 44.2-44.2 44.3L23.5-6c24.4 0 44.3 19.7 44.3 44.2z" fill="#ffab00"/><path id="路径_15610" d="M35.3 38.2c0 24.4-19.7 44.2-44.2 44.3L-9-6c24.4 0 44.2 19.8 44.3 44.2z" fill="#ff6d78"/><path id="路径_15611" class="st1" d="M23.5 8.2l.1 59.9c15.6-16.9 15.6-42.9-.1-59.9z"/></g></g></g></svg>