<svg version="1.1" id="图层_1" xmlns="http://www.w3.org/2000/svg" x="0" y="0" viewBox="0 0 767 480" xml:space="preserve"><style>.st3{fill:#6067ef}.st4{fill:#ff6d78}.st5{fill:#ffab00}.st6{fill:#4450e6}.st7{fill:#00e561}.st8{fill:#55f6fb}.st9{fill:#fff}.st10{enable-background:new}.st11{fill:#35e561}.st12{fill:none;stroke:#fff;stroke-width:2}</style><g id="组_5096" transform="translate(-3668 1178)"><g id="组_5093" transform="translate(3740 -1178)" fill="#181e2f"><path id="矩形_21" d="M-72 0h767v480H-72z"/><path id="矩形_23" opacity=".5" d="M-72 0h767v480H-72z"/></g><g id="组_5094" transform="translate(3248.056 -1205.641)"><g id="组_4649" transform="translate(491.944 240.501)" opacity=".7"><path id="路径_15571" class="st3" d="M-71.8 226.5c0 .8.6 1.4 1.4 1.4l763.9-1.2c.8 0 1.4-.6 1.4-1.4 0-.8-.6-1.4-1.4-1.4l-763.9 1.2c-.7 0-1.4.6-1.4 1.4z"/><path id="路径_15572" class="st3" d="M-71.8 187.2c0 .8.6 1.4 1.4 1.4l763.9-1.2c.8 0 1.4-.6 1.4-1.4 0-.8-.6-1.4-1.4-1.4l-763.9 1.2c-.8 0-1.4.6-1.4 1.4z"/><path id="路径_15573" class="st3" d="M-71.9 147.8c0 .8.6 1.4 1.4 1.4l763.9-1.2c.8 0 1.4-.6 1.4-1.4 0-.8-.6-1.4-1.4-1.4l-764 1.2c-.7 0-1.3.7-1.3 1.4z"/><path id="路径_15574" class="st3" d="M-71.9 108.5c0 .8.6 1.4 1.4 1.4l763.9-1.2c.8 0 1.4-.6 1.4-1.4 0-.8-.6-1.4-1.4-1.4l-763.9 1.2c-.8 0-1.4.6-1.4 1.4z"/><path id="路径_15575" class="st3" d="M-72 69.2c0 .8.6 1.4 1.4 1.4l763.9-1.2c.8 0 1.4-.6 1.4-1.4 0-.8-.6-1.4-1.4-1.4l-763.9 1.2c-.8 0-1.4.6-1.4 1.4z"/><g id="组_4648" transform="translate(62.881)"><path id="路径_15576" class="st3" d="M566 1.4l.4 263.3c0 .8.6 1.4 1.4 1.4s1.4-.6 1.4-1.4l-.4-263.3c0-.8-.6-1.4-1.4-1.4s-1.4.6-1.4 1.4z"/><path id="路径_15577" class="st3" d="M526.1 1.5l.4 263.3c0 .8.6 1.4 1.4 1.4.8 0 1.4-.6 1.4-1.4l-.4-263.3c0-.8-.6-1.4-1.4-1.4-.8 0-1.4.6-1.4 1.4z"/><path id="路径_15578" class="st3" d="M486.2 1.5l.4 263.4c0 .8.6 1.4 1.4 1.4.8 0 1.4-.6 1.4-1.4L489 1.5c0-.8-.6-1.4-1.4-1.4-.7 0-1.4.7-1.4 1.4z"/><path id="路径_15579" class="st3" d="M446.4 1.6l.4 263.3c0 .8.6 1.4 1.4 1.4.8 0 1.4-.6 1.4-1.4l-.4-263.3c0-.8-.6-1.4-1.4-1.4s-1.4.6-1.4 1.4z"/><path id="路径_15580" class="st3" d="M406.5 1.7l.4 263.3c0 .8.6 1.4 1.4 1.4.8 0 1.4-.6 1.4-1.4l-.4-263.3c0-.8-.6-1.4-1.4-1.4-.8-.1-1.4.6-1.4 1.4z"/><path id="路径_15581" class="st3" d="M366.6 1.7l.4 263.4c0 .8.6 1.4 1.4 1.4.8 0 1.4-.6 1.4-1.4l-.4-263.4c0-.8-.6-1.4-1.4-1.4-.8 0-1.4.6-1.4 1.4z"/><path id="路径_15582" class="st3" d="M326.7 1.8l.4 263.3c0 .8.6 1.4 1.4 1.4.8 0 1.4-.6 1.4-1.4l-.4-263.3c0-.8-.6-1.4-1.4-1.4-.7 0-1.4.6-1.4 1.4z"/><path id="路径_15583" class="st3" d="M286.9 1.8l.4 263.4c0 .8.6 1.4 1.4 1.4.8 0 1.4-.6 1.4-1.4l-.4-263.4c0-.8-.6-1.4-1.4-1.4-.8 0-1.4.7-1.4 1.4z"/><path id="路径_15584" class="st3" d="M247 1.9l.4 263.3c0 .8.6 1.4 1.4 1.4.8 0 1.4-.6 1.4-1.4l-.4-263.3c0-.8-.6-1.4-1.4-1.4-.8 0-1.4.6-1.4 1.4z"/><path id="路径_15585" class="st3" d="M207.1 2l.4 263.3c0 .8.6 1.4 1.4 1.4.8 0 1.4-.6 1.4-1.4L209.9 2c0-.8-.6-1.4-1.4-1.4-.8 0-1.4.6-1.4 1.4z"/><path id="路径_15586" class="st3" d="M167.2 2l.4 263.3c0 .8.6 1.4 1.4 1.4.8 0 1.4-.6 1.4-1.4L170.1 2c0-.8-.6-1.4-1.4-1.4-.8 0-1.5.6-1.5 1.4z"/><path id="路径_15587" class="st3" d="M127.4 2.1l.4 263.3c0 .8.6 1.4 1.4 1.4.8 0 1.4-.6 1.4-1.4l-.4-263.3c0-.8-.6-1.4-1.4-1.4-.8 0-1.4.6-1.4 1.4z"/><path id="路径_15588" class="st3" d="M87.5 2.1l.4 263.4c0 .8.6 1.4 1.4 1.4.8 0 1.4-.6 1.4-1.4L90.3 2.1c0-.8-.6-1.4-1.4-1.4-.8 0-1.4.7-1.4 1.4z"/><path id="路径_15589" class="st3" d="M47.6 2.2l.4 263.4c0 .8.6 1.4 1.4 1.4.8 0 1.4-.6 1.4-1.4L50.4 2.2c0-.8-.6-1.4-1.4-1.4-.7 0-1.4.6-1.4 1.4z"/><path id="路径_15590" class="st3" d="M7.7 2.3l.4 263.3c0 .8.6 1.4 1.4 1.4.8 0 1.4-.6 1.4-1.4L10.6 2.3c0-.8-.6-1.4-1.4-1.4-.8 0-1.5.6-1.5 1.4z"/><path id="路径_15591" class="st3" d="M-32.1 2.3l.4 263.4c0 .8.6 1.4 1.4 1.4.8 0 1.4-.6 1.4-1.4l-.4-263.4c0-.8-.6-1.4-1.4-1.4-.8 0-1.4.7-1.4 1.4z"/><path id="路径_15592" class="st3" d="M-72 2.4l.4 263.3c0 .8.6 1.4 1.4 1.4.8 0 1.4-.6 1.4-1.4l-.4-263.3c0-.8-.6-1.4-1.4-1.4-.8 0-1.4.6-1.4 1.4z"/></g></g><path id="路径_15593" class="st4" d="M564.1 330.6c31.8 0 57.6 25.7 57.6 57.5s-25.7 57.6-57.5 57.6-57.6-25.7-57.6-57.5c0-31.7 25.7-57.5 57.5-57.6zm0 28.1c-16.3 0-29.4 13.2-29.4 29.5s13.2 29.4 29.5 29.4 29.4-13.2 29.4-29.5c0-16.2-13.2-29.4-29.5-29.4z"/><path id="矩形_4096" transform="translate(-.625 1.298)" class="st5" d="M785.6 348.4h118.8v118.8H785.6z"/><path id="路径_15594" class="st6" d="M885.7 407.8c0 22.5-18.2 40.7-40.6 40.7-22.5 0-40.7-18.2-40.7-40.6 0-22.5 18.2-40.7 40.6-40.7 22.4-.1 40.7 18.1 40.7 40.6z"/><g id="组_4669" transform="translate(780.547 358.148)"><path id="矩形_4097" transform="rotate(-45.082 -57.283 14.712)" class="st7" d="M-67.7 4.3h20.8v20.8h-20.8z"/><path id="矩形_4098" transform="rotate(-45.082 -57.222 54.586)" class="st8" d="M-67.6 44.2h20.8V65h-20.8z"/><path id="矩形_4099" transform="rotate(-45.09 -57.164 94.46)" class="st7" d="M-67.6 84.1h20.8v20.8h-20.8z"/></g><g id="组_4650" transform="translate(555.045 286.161)"><path id="路径_15595" class="st9" d="M-21.2.8V62h-12.3V36h-26.2v26H-72V.8h12.3V26h26.2V.8h12.3z"/><path id="路径_15596" class="st9" d="M28.4 50.3H4L0 62h-12.9L9.1.7h14.3l22 61.3h-13l-4-11.7zm-3.3-9.8l-8.9-25.6-8.8 25.6h17.7z"/><path id="路径_15597" class="st9" d="M54.8 15.1c2.6-4.7 6.5-8.5 11.1-11.1 4.8-2.7 10.3-4.1 15.8-4 6.4-.1 12.7 1.7 18 5.3 5.1 3.5 8.9 8.6 10.8 14.6H96.4c-1.2-2.8-3.3-5-5.9-6.6-2.7-1.5-5.7-2.3-8.8-2.2-3.3-.1-6.6.8-9.5 2.5-2.8 1.7-5 4.1-6.5 7.1-3.1 6.8-3.1 14.6 0 21.4 1.4 2.9 3.7 5.4 6.5 7.1 2.9 1.7 6.2 2.6 9.5 2.5 3.1.1 6.1-.7 8.8-2.2 2.6-1.6 4.7-3.9 5.9-6.6h14.1c-1.8 5.9-5.6 11.1-10.7 14.6-10.2 6.5-23.2 7-33.9 1.2-4.7-2.6-8.5-6.4-11.1-11.1-5.5-10.2-5.5-22.4 0-32.5z"/><path id="路径_15598" class="st9" d="M155.6 62l-22.3-27.3V62H121V.8h12.3v27.5L155.6.8h14.8l-25.3 30.3 26 30.9h-15.5z"/><path id="路径_15599" class="st9" d="M191.5.8V62h-12.3V.8h12.3z"/><path id="路径_15600" class="st9" d="M255.9 62h-12.3l-27.8-42v42h-12.3V.7h12.3l27.8 42.1V.7h12.3V62z"/><path id="路径_15601" class="st9" d="M310.7 19.2c-1.3-2.5-3.3-4.5-5.8-5.9-2.6-1.4-5.6-2.1-8.6-2-3.4-.1-6.7.8-9.6 2.5-2.8 1.7-5.1 4.1-6.6 7-3.2 6.7-3.2 14.5 0 21.2 1.5 2.9 3.8 5.4 6.7 7 3.1 1.7 6.5 2.5 10 2.5 4.7 0 8.5-1.2 11.5-3.7 3.1-2.7 5.2-6.4 5.9-10.4h-21V28h33.2v10.7c-.8 4.3-2.6 8.3-5.3 11.8-2.7 3.7-6.3 6.7-10.4 8.7-4.4 2.2-9.3 3.4-14.3 3.3-5.6.1-11.1-1.3-16-4-4.7-2.6-8.6-6.4-11.2-11.1-5.4-10.1-5.4-22.2 0-32.3 2.6-4.7 6.5-8.5 11.2-11.1 10.6-5.7 23.5-5.3 33.9 1 5.1 3.3 8.8 8.4 10.5 14.2h-14.1z"/></g><g id="组_4651" transform="translate(936.183 365.186)"><path id="路径_15602" class="st9" d="M-67.9 15.1c2.6-4.7 6.5-8.5 11.1-11.1C-52 1.3-46.5-.1-41 0c6.4-.1 12.7 1.7 18 5.3 5.1 3.5 8.9 8.6 10.8 14.6h-14.1c-1.2-2.8-3.3-5-5.9-6.6C-34.9 11.7-38 11-41 11c-3.3-.1-6.6.8-9.5 2.5-2.8 1.7-5 4.1-6.5 7.1-3.1 6.8-3.1 14.6 0 21.4 1.4 2.9 3.7 5.4 6.5 7.1 2.9 1.7 6.2 2.6 9.5 2.5 3.1.1 6.1-.7 8.8-2.2 2.6-1.6 4.7-3.9 5.9-6.6h14.1c-1.8 5.9-5.6 11.1-10.7 14.6-5.3 3.5-11.6 5.4-18 5.2-5.5.1-11-1.3-15.8-4-4.7-2.6-8.5-6.5-11.1-11.1-5.6-10.2-5.6-22.3-.1-32.4z"/><path id="路径_15603" class="st9" d="M35.9 50.3H11.5L7.5 62H-5.4L16.6.7h14.3l22 61.3h-13l-4-11.7zm-3.4-9.8l-8.9-25.6-8.9 25.6h17.8z"/><path id="路径_15604" class="st9" d="M127.9.8V62h-12.3V22.2L99.2 62h-9.3L73.4 22.2V62H61.1V.8H75l19.5 45.5L114 .8h13.9z"/><path id="路径_15605" class="st9" d="M182.3 28.9c-1.7 3-4.2 5.4-7.3 6.9-3.9 1.9-8.2 2.8-12.5 2.6h-10.3V62H140V.8h22.5c4.2-.1 8.3.7 12.1 2.5 3.1 1.4 5.7 3.8 7.5 6.8 3.3 5.8 3.4 12.9.2 18.8zm-12.8-2.6c1.7-1.7 2.6-4.1 2.5-6.5 0-6-3.3-8.9-10-8.9h-9.7v17.8h9.7c3.4-.1 5.9-.9 7.5-2.4z"/></g><g id="组_4652" transform="translate(1114.358 233.302)"><path id="路径_15606" class="st6" d="M-72 57.3C-72 25.7-46.5.1-14.9 0l.2 114.4c-31.6.1-57.2-25.5-57.3-57.1z"/><path id="路径_15607" class="st5" d="M-30 57.3C-30 25.7-4.5 0 27.1 0l.2 114.4c-31.6 0-57.2-25.5-57.3-57.1z"/><path id="路径_15608" class="st4" d="M-14.8 96l-.1-77.5C-35 40.4-35 74.1-14.8 96z"/></g><g id="组_4655" transform="translate(994.469 285.852)"><path id="路径_15612" class="st8" d="M-22.9 9.9v16.9h-16.6V9.9h-7v41.5h7v-18h16.6v17.9h7V9.9h-7z"/><g id="组_4654"><path id="路径_15613" class="st4" d="M-64.1 2.4c-1.5 1.6-2.2 3.9-2.2 6.8v11.7c0 1-.1 1.9-.4 2.8-.3.8-.6 1.5-1.1 2.2-.4.6-1 1-1.6 1.4-.5.3-1.1.5-1.8.5h-.8v5.6h.8c.6 0 1.2.2 1.8.5.6.3 1.2.8 1.6 1.3.5.6.9 1.4 1.1 2.1.3.9.5 1.9.4 2.9V52c0 2.9.7 5.2 2.2 6.8 1.4 1.5 3.3 2.4 5.4 2.4h5v-5.5h-4c-.4 0-.7-.1-1-.3-.3-.3-.6-.6-.7-1-.2-.5-.4-1-.4-1.6-.1-.6-.1-1.2-.1-1.9V39.3c0-1.5-.2-3-.7-4.4-.4-1-1-2-1.7-2.8-.6-.6-1.2-1.1-2-1.5.8-.4 1.4-1 2-1.7 1.7-1.9 2.5-4.4 2.4-6.9V10.2c0-.6 0-1.3.1-1.9.1-.5.2-1 .4-1.5.2-.4.4-.7.7-1 .3-.2.7-.3 1-.3h4V0h-5c-2.1 0-4 .9-5.4 2.4z"/><path id="路径_15614" class="st4" d="M8.8 27.8c-.6 0-1.2-.2-1.8-.5-.6-.4-1.2-.8-1.6-1.4-.5-.6-.9-1.4-1.1-2.2-.3-.9-.5-1.9-.4-2.8V9.2c0-2.9-.7-5.2-2.2-6.8C.2.9-1.7 0-3.8 0h-5v5.5h4c.4 0 .7.1 1 .3.3.3.6.6.7 1 .2.5.4 1 .4 1.5.1.6.1 1.3.1 1.9v11.7c-.1 2.5.8 5 2.4 6.9.6.7 1.2 1.2 2 1.7-.7.4-1.4.9-2 1.5-.7.8-1.3 1.8-1.7 2.8-.5 1.4-.8 2.9-.7 4.4v11.7c0 .6 0 1.2-.1 1.9-.1.5-.2 1.1-.4 1.6-.2.4-.4.7-.7 1-.3.2-.7.3-1 .3h-4v5.5h5c2.1 0 4-.9 5.4-2.4C3.1 57.3 3.8 55 3.8 52V40.3c0-1 .1-2 .4-2.9.2-.8.6-1.5 1.1-2.1.4-.5 1-1 1.6-1.3.6-.3 1.2-.5 1.8-.5h.8v-5.6l-.7-.1z"/></g></g><g id="组_4656" transform="translate(1103.182 454.931)"><circle id="椭圆_111" class="st8" cx="-60.5" cy="11.5" r="11.5"/><circle id="椭圆_112" class="st8" cx="19.2" cy="11.5" r="11.5"/><circle id="椭圆_113" class="st7" cx="-21.3" cy="11.5" r="11.5"/></g></g><g class="st10"><path class="st11" d="M4174.8-1107.3v-1.8l6.1-6.2c.8-.8 1.4-1.7 1.4-2.8 0-1.5-1-3-2.6-3-1.8 0-2.8 1.6-2.8 3.2v.4h-2.2v-.1c0-2.3.9-4.3 3.1-5.2.6-.2 1.2-.4 1.8-.4 2.8 0 4.9 2.2 4.9 5 0 1.9-.9 3.1-2.2 4.4l-4.3 4.4h6.5v2h-9.7zM4200.6-1112.3c0 1.4-.2 2.4-1.1 3.5-1 1.2-2.4 1.8-3.9 1.8s-3-.7-3.9-1.9c-.9-1.1-1.1-2.2-1.1-3.6v-5.4c0-2.2 1-4 3.1-4.9.6-.3 1.3-.4 2-.4 2.9 0 5 2.3 5 5.1v5.8zm-2.2-5.7c0-1.8-1-3.1-2.8-3.1s-2.9 1.3-2.9 3.1v5.7c0 1.8 1 3.3 2.9 3.3.8 0 1.6-.4 2.1-1 .7-.7.7-1.3.7-2.3v-5.7zM4206.5-1107.3v-1.8l6.1-6.2c.8-.8 1.4-1.7 1.4-2.8 0-1.5-1-3-2.6-3-1.8 0-2.8 1.6-2.8 3.2v.4h-2.2v-.1c0-2.3.9-4.3 3.1-5.2.6-.2 1.2-.4 1.8-.4 2.8 0 4.9 2.2 4.9 5 0 1.9-.9 3.1-2.2 4.4l-4.3 4.4h6.5v2h-9.7zM4226.9-1107.3v-13.5h-2.3v-2h4.5v15.5h-2.2zM4239.2-1107.3v-2.6h2.2v2.6h-2.2zM4258.2-1112.3c0 1.4-.2 2.4-1.1 3.5-1 1.2-2.4 1.8-3.9 1.8s-3-.7-3.9-1.9c-.9-1.1-1.1-2.2-1.1-3.6v-5.4c0-2.2 1-4 3.1-4.9.6-.3 1.3-.4 2-.4 2.9 0 5 2.3 5 5.1v5.8zm-2.2-5.7c0-1.8-1-3.1-2.8-3.1s-2.9 1.3-2.9 3.1v5.7c0 1.8 1 3.3 2.9 3.3.8 0 1.6-.4 2.1-1 .7-.7.7-1.3.7-2.3v-5.7zM4268-1107.3h-2.4l5.9-13.5h-6.7v-2h9v2l-5.8 13.5zM4279.1-1112.3v-2.2h5.9v2.2h-5.9zM4290-1107.3v-1.8l6.1-6.2c.8-.8 1.4-1.7 1.4-2.8 0-1.5-1-3-2.6-3-1.8 0-2.8 1.6-2.8 3.2v.4h-2.2v-.1c0-2.3.9-4.3 3.1-5.2.6-.2 1.2-.4 1.8-.4 2.8 0 4.9 2.2 4.9 5 0 1.9-.9 3.1-2.2 4.4l-4.3 4.4h6.5v2h-9.7zM4315.8-1112.3c0 1.4-.2 2.4-1.1 3.5-1 1.2-2.4 1.8-3.9 1.8s-3-.7-3.9-1.9c-.9-1.1-1.1-2.2-1.1-3.6v-5.4c0-2.2 1-4 3.1-4.9.6-.3 1.3-.4 2-.4 2.9 0 5 2.3 5 5.1v5.8zm-2.1-5.7c0-1.8-1-3.1-2.8-3.1s-2.9 1.3-2.9 3.1v5.7c0 1.8 1 3.3 2.9 3.3.8 0 1.6-.4 2.1-1 .7-.7.7-1.3.7-2.3v-5.7zM4321.7-1107.3v-1.8l6.1-6.2c.8-.8 1.4-1.7 1.4-2.8 0-1.5-1-3-2.6-3-1.8 0-2.8 1.6-2.8 3.2v.4h-2.2v-.1c0-2.3.9-4.3 3.1-5.2.6-.2 1.2-.4 1.8-.4 2.8 0 4.9 2.2 4.9 5 0 1.9-.9 3.1-2.2 4.4l-4.3 4.4h6.5v2h-9.7zM4342.1-1107.3v-13.5h-2.3v-2h4.5v15.5h-2.2zM4354.4-1107.3v-2.6h2.2v2.6h-2.2zM4368-1107.3v-13.5h-2.3v-2h4.5v15.5h-2.2zM4389.3-1112.3c0 1.4-.2 2.4-1.1 3.5-1 1.2-2.4 1.8-3.9 1.8s-3-.7-3.9-1.9c-.9-1.1-1.1-2.2-1.1-3.6v-5.4c0-2.2 1-4 3.1-4.9.6-.3 1.3-.4 2-.4 2.9 0 5 2.3 5 5.1v5.8zm-2.2-5.7c0-1.8-1-3.1-2.8-3.1s-2.9 1.3-2.9 3.1v5.7c0 1.8 1 3.3 2.9 3.3.8 0 1.6-.4 2.1-1 .7-.7.7-1.3.7-2.3v-5.7z"/></g><g id="组_5095" transform="translate(3622.468 -1270.687)"><path id="直线_326" class="st12" d="M227.8 165.6l19.1-19"/><path id="直线_327" class="st12" d="M227.8 146.6l19.1 19"/><g id="组_4602" transform="translate(346.079 126.409)"><g id="组_4597" transform="translate(0 4.802)"><path id="路径_15458" class="st9" d="M-53.3 17.5l.1-.3c.3-.8.5-1.2.5-5.9V6.5c.1-.9 0-1.7-.3-2.6-.3-.6-.8-1-2-1-1.4 0-2.7.6-3.7 1.6v6.8c0 2.1 0 3.2.1 4.3 0 .5.2 1 .4 1.5l.1.3h-4.6l.1-.3c.2-.4.3-.9.4-1.4.1-.8.1-2.1.1-4.5V6.1c.1-.7-.1-1.4-.3-2.1-.4-.7-1.2-1.2-2.1-1-1.4 0-2.6.6-3.6 1.6v6.7c0 2.1 0 3.2.1 4.3 0 .5.2 1 .4 1.5l.1.3H-72l.1-.3c.3-.8.5-1.2.5-5.9v-3c0-.2 0-3.3-.1-4.8 0-.6-.2-1.3-.4-1.9l-.1-.1 3.7-1.3.2 1.6C-66.8.6-65.2 0-63.5.1c1.1 0 2.2.3 3.2.8.4.2.7.6 1 .9 1.4-1.2 3.2-1.8 5-1.7 1.5 0 3.7.5 4.5 2.1.5 1.1.7 2.3.5 3.4v5.8c0 2.5 0 3.4.1 4.3 0 .5.2 1 .4 1.5l.1.3h-4.6z"/></g><g id="组_4598" transform="translate(39.367)"><path id="路径_15459" class="st9" d="M-69.8 20.9c-.4-1-.6-2-.5-3.1V8H-72V4.9h.2c.7.1.9.1 1.5.1V1.2l3.4-1.2v5.1h2.9c.5 0 1-.1 1.5-.2l.3-.1v.3l-.3 2.1c-.1.4-.3.7-.7.8-.3 0-.6.1-.9 0h-2.8v9.1c0 .6 0 1.3.3 1.9.2.4.7.7 1.2.6 1.3-.1 2.4-.8 3.2-1.8l.4-.4v.5c0 .9-.1 1.9-.2 2.8-.1.4-.3.7-.6.8-1.1.6-2.3.9-3.5.9-2.1.2-3.2-.6-3.7-1.5z"/></g><g id="组_4599" transform="translate(51.3 4.802)"><path id="路径_15460" class="st9" d="M-72 17.5l.1-.3c.3-.8.5-1.2.5-5.9v-3c0-1.5 0-3.4-.1-4.9 0-.6-.1-1.3-.4-1.9l-.1-.1 3.5-1.3.2 1.5c1-1 2.3-1.6 3.7-1.6.2 0 .5 0 .7.1.4.1.7.4.7.8 0 .3-.1.6-.2.9l-.6 1.9-.2-.1c-.3-.1-.7-.2-1.1-.2-1.1 0-2.2.5-2.9 1.3v6.7c0 2.5 0 3.4.1 4.3 0 .5.2 1 .4 1.5l.1.3H-72z"/></g><g id="组_4600" transform="translate(61.871 4.869)"><path id="路径_15461" class="st9" d="M-72 17.4l.1-.3c.3-.7.5-1.2.5-5.9V8.1c0-1.4 0-3.4-.1-4.8 0-.6-.2-1.3-.4-1.9l-.1-.1 4-1.3v11.3c0 2.5 0 3.4.1 4.3 0 .5.2 1 .4 1.5l.1.3H-72z"/></g><g id="组_4601" transform="translate(68.468 5.09)"><path id="路径_15462" class="st9" d="M-67.1 0h.2v.2c.2 1.1.7 2.2 1.4 3.1l2 2.9c3.1-3.6 3.4-4.6 3.7-6V0h3.8l-.1.3c-1.2 3.1-3.2 6-5.6 8.3l3.7 5.3c.7 1.1 1.6 2.1 2.5 3l.3.3h-5.2V17c0-.8 0-.9-1.3-2.8l-2.4-3.5c-1.1 1.1-3.4 3.7-3.8 6.4v.2h-4l.1-.3c1.4-3.3 3.4-6.2 6-8.6L-69 3.7c-.8-1.1-1.6-2.2-2.5-3.3l-.4-.4h4.8"/></g><path id="路径_15463" class="st9" d="M-33.7 20.9c-.9-.8-1.2-1.2-1.3-3.4v-8c.1-1-.1-2.1-.7-3-.7-1-2-1.7-4.6-1.7-1.4 0-2.7.3-4 .7-1.1.5-1.9 1-1.9 1.7 0 .3.1.5.1.6l.6 2.1.2-.3c1.2-1.3 2.9-2 4.6-2 1.1 0 1.6.3 1.9.7.3.6.4 1.2.3 1.8v1.4c-1.8.1-3.6.5-5.3 1.3-1.8.9-2.9 2.8-2.8 4.7 0 1.1.3 2.2.9 3.2.9 1.1 2.3 1.8 3.7 1.7 1.5.1 3-.5 4.2-1.5.4 1.1 1 1.5 1.3 1.5.2 0 .5-.1.7-.2l2.2-1.3h-.1zm-4.7-3.5c0 .8-.4 1.5-1.1 1.9-.5.3-1 .4-1.6.4-1 .1-1.9-.7-2-1.7v-.4c0-2.4 2.5-3 4.8-3.1l-.1 2.9z"/></g><g id="组_4603" transform="translate(346.617 154.2)"><path id="路径_15464" class="st9" d="M-71.3 6.1h-.7V.3h.8c1.8 0 2.4.6 2.4 1.7 0 1.2-.9 1.7-2 1.7h-.4l-.1 2.4zm0-3.1h.2c.7 0 1.5-.1 1.5-1.1 0-.9-.9-1-1.6-1h-.2l.1 2.1z"/><path id="路径_15465" class="st9" d="M-66 4.6l-.7 1.5h-.8l2.8-6.1 2.8 6.1h-.8l-.7-1.5H-66zm1.3-3l-1 2.4h2.1l-1.1-2.4z"/><path id="路径_15466" class="st9" d="M-55.9 6.1h-.9l-1.7-2.5h-.3v2.5h-.7V.3h.9c.5 0 1.1 0 1.5.3.5.3.8.8.8 1.4 0 .8-.6 1.5-1.4 1.6l1.8 2.5zM-58.8 3h.2c.8 0 1.6-.1 1.6-1s-.9-1-1.6-1h-.2v2z"/><path id="路径_15467" class="st9" d="M-51.9 6.1h-.7V.9H-54V.3h3.5V1h-1.4v5.1z"/><path id="路径_15468" class="st9" d="M-48.1 0l4.4 4.6V.3h.7v6.1l-4.4-4.6v4.3h-.7V0z"/><path id="路径_15469" class="st9" d="M-40.1.3h3.1V1h-2.4v1.6h2.3v.7h-2.3v2.2h2.4v.7h-3.1V.3z"/><path id="路径_15470" class="st9" d="M-30.5 6.1h-.9l-1.7-2.5h-.3v2.5h-.7V.3h.9c.5 0 1.1 0 1.5.3.5.3.8.8.8 1.4 0 .8-.6 1.5-1.4 1.6l1.8 2.5zM-33.4 3h.2c.7 0 1.5-.1 1.5-1.1 0-.9-.9-1-1.6-1h-.2l.1 2.1z"/><path id="路径_15471" class="st9" d="M-25.4 1.4c-.2-.4-.5-.6-.9-.5-.5 0-.9.3-1 .8 0 .5.4.7.8.8l.4.2c.8.3 1.4.8 1.4 1.8s-.8 1.8-1.8 1.8h-.1c-.9 0-1.7-.7-1.8-1.6l.7-.2c0 .6.5 1.1 1.1 1.1.6 0 1.1-.5 1.1-1.1 0-.6-.5-.9-1-1.1l-.4-.2c-.5-.3-1.1-.7-1.1-1.5 0-.9.8-1.6 1.7-1.5h.1c.6 0 1.2.3 1.5.9l-.7.3z"/><path id="路径_15472" class="st9" d="M-13.5 1.4c-1-.8-2.4-.7-3.3.2-.4.4-.6 1-.6 1.6 0 1.3 1 2.3 2.2 2.4.6 0 1.2-.2 1.6-.6v.9c-.5.3-1 .4-1.5.4-1.7 0-3-1.3-3-3S-16.7.2-15 .2c.5 0 1 .1 1.5.4v.8z"/><path id="路径_15473" class="st9" d="M-7.8 2.6V.3h.7v5.8h-.7V3.3h-2.8v2.8h-.7V.3h.7v2.4l2.8-.1z"/><path id="路径_15474" class="st9" d="M-3.4 6.1h-.7V.3h.7v5.8z"/><path id="路径_15475" class="st9" d="M-.5 0l4.4 4.6V.3h.7v6.1L.3 1.8v4.3h-.7V0z"/><path id="路径_15476" class="st9" d="M8.4 4.6l-.6 1.5H7L9.8 0l2.8 6.1h-.8l-.7-1.5H8.4zm1.4-3L8.7 4h2.1l-1-2.4z"/></g><path id="路径_15477" class="st9" d="M293.5 182.2c-.4 0-.6.4-.8.7-.2.3-.5.6-.5.6h-3.9v-5.4h5v-.1-.2c-.1-.4-.3-.8-.6-1.1-.3-.4-.6-.8-.9-.8-.3 0-.6.4-.9.7-.1.2-.3.3-.4.4-.1.1-.1.1-.2.1h-9.6c-.6.1-2.4.8-3.1.7h-.2c.4-.7 1-1.4 1.6-1.9.9-.8 1.8-1.7 2-1.9.3-.3 1-1 1.7-1.6l.9-.9.4-.4h.1v-.2c-.4-.6-1-1.1-1.6-1.4h-.1c-.3 0-.4.3-.6.6-.3.5-.6 1.2-.9 1.7-.1.3-.3.5-.4.7-.1.1-.1.2-.1.2h-1.6c-.6 0-1.2 0-1.8-.1.2-.4.4-.9.7-1.3.3-.5.7-1 .7-1.1.3-.3.9-1.1 1.5-1.8.4-.5.8-1 1.1-1.6-.1-.3-.4-.5-.8-.8-.3-.2-.6-.4-1-.5h-.1l-.2.2c-.4.7-1.7 3.3-2.1 3.9-.2.3-.8 1.1-1.4 1.8-.4.5-.8 1-1.1 1.6v.1l.8.8c.4.4.8.8 1 .8.3-.1.4-.3.6-.6.1-.2.2-.4.3-.5.4 0 1.9-.1 2.7-.1h.1c-.4.4-1.3 1.2-2.2 2.1-.6.6-1.2 1.1-1.6 1.6-.4.5-.7.8-.8 1 .1.4.2.7.5 1 .3.3.5.6.8.6.4-.1 3.7-1.8 4.8-1.9h5.3v5.3h-5.7l-.1.1v.1c0 .2.1.5.3.7l.1.1h.1c.4 0 1.9.1 3.9.1 4 0 9.7-.1 9.7-.1h.1s.1-.1.1-.2c-.1-.4-.3-.8-.6-1.1-.4-.3-.6-.7-1-.7zm-9.4-11.3zm-.8 9.6v-.1c-.1-.2-.2-.2-.3-.2-2.7.5-5.4 1.2-8.1 2.1-.1.1-.2.2-.2.3.1.6.5 1.1 1.1 1.4h.1c1.3-.4 2.6-.9 3.8-1.5.9-.4 1.7-.8 2.4-1.1l1.2-.9zm21.4-.8c-2.7.5-5.4 1.2-8.1 2.1-.1.1-.2.2-.2.3.1.6.5 1.1 1 1.4h.1c1.3-.4 2.6-.9 3.8-1.5.9-.4 1.7-.8 2.4-1.1.5-.2.9-.5 1.2-.8v-.1c0-.3-.1-.2-.2-.3zm52.2-9.8c.1-.1.1-.1.1-.2-.1-.4-.3-.7-.6-1-.3-.4-.6-.7-1-.8-.3 0-.6.3-.8.6-.2.3-.5.5-.5.5h-9.3v.2c.1.3.2.6.4.8.2.3.4.5.7.6.3-.1.6-.5.7-.6h3v3.5h-4l.1.2c.1.3.2.5.4.8.2.3.4.5.7.6.3-.1.6-.5.7-.6h2.1v5.3h-5.1l.1.2c.1.3.2.5.4.8.2.3.4.5.7.6.3-.1.6-.5.7-.6H357s.1-.1.1-.2c-.1-.4-.3-.7-.6-1-.3-.3-.6-.7-1-.7-.6 0-1.3.9-1.6.9h-2.8v-5.3h5.2s.1-.1.1-.2c-.1-.4-.3-.7-.6-1-.3-.3-.6-.7-1-.7-.6 0-1.1 1-1.3.9h-2.4V170l5.8-.1zm1.5-4c-.3-.2-.6-.3-1-.4-.1 0-.2 0-.2.1v.6h-12.8c-.4-.4-.9-.6-1.5-.7-.1 0-.1 0-.2.1V185.2h.2c.5 0 .9-.3 1.2-.7v-1.1h13.1V185.3h.2c.5 0 .9-.3 1.2-.7v-14.8l.1-2.3c.1-.2.3-.3.4-.5.1 0 .1-.1.1-.2-.1-.5-.4-.7-.8-.9zm-14.3 16.6v-15.3c.1-.1.1-.2.2-.2h12.8v15.5h-13zm10.2-6.1c-.7-.6-1.6-1.1-2.5-1.4.2.7.5 1.3.9 1.9.5.7 1 1.3 1.3 1.3.6 0 .7-.8.6-1.4.1-.2 0-.3-.3-.4zm-71.1-8.4h5.7c-1.3 2-2.8 3.7-4.5 5.3-.7.7-1.4 1.3-1.9 1.7-.2.2-.4.4-.6.5-.1.2-.2.2-.3.4 0 .1 0 .1.1.2h.1c.6 0 1.9-1 3.3-1.9.9-.7 1.8-1.3 2.8-1.9.9.6 1.8 1.2 2.7 1.9.9.8 1.9 1.4 2.9 2h.1c.2-.1.2-.2.2-.4v-.5c0-.5 0-.9-.2-1.4l-.1.1.1-.1c-.4-.6-1.6-1.1-2.8-1.5-.6-.2-1.1-.4-1.5-.6-.2-.1-.3-.1-.5-.2 0 0-.1 0-.1-.1.5-.7 1-1.4 1.6-2 .6-.6 1.1-1.2 1.5-1.9 0-.3-.4-.6-.8-.9-.3-.3-.7-.5-1.1-.6h-.1c-.2.2-.3.4-.5.6-.1.2-.2.4-.3.4h-6.4-.1l-.1.1v.1c0 .2.1.5.3.7h.5zm31.3-.3c-.4 0-.6.4-.8.7-.2.3-.5.6-.5.6h-3v-1.8s0-.6.5-.6h.1v-.1-.1c-.1-.3-.4-.4-.8-.7-.4-.2-.8-.4-1.2-.4-.1 0-.2 0-.2.1v.1s.1 1.6.1 2.6V169h-.7c-1.1 0-2.9-.1-3.9-.1h-.5s-.1 0-.1.1c-.7 1.6-1.2 2.7-1.3 3.1h-2.6c.4-.5 1.2-1.6 1.9-2.6.4-.6.9-1.2 1.2-1.7.2-.3.4-.6.5-.9v-.1c-.1-.3-.4-.5-.8-.8-.3-.2-.6-.4-1-.5h-.1l-.2.2c-.4.7-1.7 3.3-2.1 3.9-.2.3-.7 1.1-1.2 1.7-.4.5-.7 1-1 1.6v.1s.3.3.6.5l.9.6c.3-.1.6-.5.7-.7H301.1c-.3.4-1 1.2-1.6 2-.4.6-.9 1.1-1.2 1.6-.3.3-.5.6-.6 1 .1.6.5 1.1 1.1 1.2 1.1-.1 2.3-.3 3.4-.6.7-.1 1.3-.3 1.9-.6.5-.2.9-.4.9-.8 0-.1 0-.1-.1-.2-.1-.2-.3-.1-.5-.1-.8 0-3 .4-4 .4h-.4-.1c.7-1.2 1.4-2.3 2.3-3.3 1-1.3 2-2.7 2.9-4.1h3.4v2.2H305h-.1s-.1 0-.2.1v.1c0 .2.1.5.3.7.1.1.1.1.2.1h3.2v2.8h-4.6-.1l-.1.1v.1c0 .2.1.5.3.7.1.1.1.1.2.1h4.4v8.4l.1.1c.4.2.9.3 1.3.3h.2l.1-.1v-2.3-6.4h3.5c0 .7 0 3.4-.1 3.9-.4.3-.9.4-1.4.3-.5 0-1 0-1.5-.1h-.2v.2c.1.8 1.7 2 2.7 2.1 1.5 0 1.6-1.8 1.7-3.4.1-1.7.1-3.1 1.1-3.1h.1c.1 0 .1-.1.1-.2-.1-.3-.3-.7-.6-.9-.2-.3-.6-.5-1-.6-.6 0-1.1 1-1.3 1h-3.1V173h4.8s.1-.1.1-.2c-.1-.4-.3-.7-.6-1-.3-.4-.6-.7-1-.7-.6.1-1.1 1-1.3 1h-2.1v-2.2h6.1v-.1l.1-.1c-.1-.4-.4-.8-.7-1.1-.3-.5-.7-.9-1.1-.9zm21.8 1.9c-.3-.2-.6-.3-1-.3-.1 0-.2 0-.2.1v.5h-5.9v-.3c0-.3-.1-2.4-.1-2.4 0-.1 0-.2.1-.3.1-.2.2-.3.4-.3 0 0 .2 0 .2-.2s-.1-.2-.3-.4c-.5-.4-1.1-.7-1.7-.9-.1 0-.2 0-.2.1v4.7h-5c-.5-.3-1-.6-1.5-.6-.1 0-.2 0-.2.1v9.3h.2c.5 0 .9-.3 1.2-.7v-1h5.4v8.4l.1.1c.4.2.9.3 1.3.3h.2l.1-.1v-2.3-6.4h5.9v1.6h.2c.5 0 .9-.3 1.2-.7v-4.8s0-.6.1-1.3c0-.5.1-1 .4-1.5.1 0 .1-.1.1-.2-.3-.2-.6-.3-1-.5zm-14.2 6.6v-3c0-.8.1-1.6.3-2.3h5.2v5.3h-5.5zm7.1 0v-5.3h5.9v5.3h-5.9z"/><g id="组_4616" transform="translate(181.787 165.252)"><g id="组_4615" transform="translate(25.283 5.708)"><path id="矩形_4089" class="st9" d="M-62.3.4h1.5v1.5h-1.5z"/><path id="矩形_4090" class="st9" d="M-62.3 3.7h1.5v8.9h-1.5z"/><path id="路径_15490" class="st9" d="M-45.1 3c-1.2 0-2.4.6-3.3 1.5-.9.9-1.3 2.1-1.3 3.4 0 1.3.5 2.6 1.4 3.5.9.9 2.1 1.4 3.4 1.4 1.2 0 2.4-.6 3.2-1.5v.6c0 .8-.3 1.6-1 2.1-.6.6-1.4.9-2.2.9-.7 0-1.4-.2-2-.7-.5-.3-.8-.7-1.1-1.2l-1.1.6c.3.6.7 1 1.2 1.4.8.6 1.8 1 2.9 1h.2c1.1 0 2.2-.4 3.1-1.1.9-.7 1.5-1.8 1.5-2.9V7.9c0-2.7-2.2-4.9-4.9-4.9zm3.5 5c0 .9-.4 1.7-1 2.4-.6.6-1.4 1-2.3 1-.9 0-1.8-.3-2.4-1-.7-.6-1-1.5-1-2.4 0-.9.3-1.8.9-2.4.6-.7 1.4-1.1 2.3-1.1h.2c.9 0 1.7.4 2.3 1 .7.6 1 1.5 1 2.5z"/><path id="路径_15491" class="st9" d="M-33.3 1.4c1.6-.1 3.1.8 3.9 2.1l1.1-.7c-.4-.7-1-1.3-1.7-1.8-.9-.6-2-1-3.1-1-1.6 0-3.1.6-4.2 1.8-1.2 1.2-1.8 2.9-1.8 4.6 0 1.7.6 3.3 1.7 4.6 1 1.2 2.6 1.9 4.2 1.9h.1c2.1 0 3.9-1.1 5-2.9l-1.1-.7c-.4.6-1 1.2-1.6 1.5-.7.4-1.4.6-2.2.6-1.3 0-2.5-.6-3.3-1.5-.9-1-1.4-2.3-1.3-3.7 0-1.3.5-2.5 1.4-3.5.5-.8 1.7-1.3 2.9-1.3z"/><path id="路径_15492" class="st9" d="M-22.6.2l-5.6 12.4h1.8l1.7-4.1.6-1.3 2.2-5.2 2.2 5.2h-3.1l-.6 1.3h4.2l1.7 4.1h1.6L-21.2.2h-1.4z"/><path id="路径_15493" class="st9" d="M-7.7 1.3C-8.5.5-9.7.1-10.8.2h-4v12.4h1.5V1.5h2.6c.7 0 1.4.2 1.9.7.5.4.8 1 .9 1.6.1.7-.2 1.4-.8 1.9-.5.5-1.2.7-1.9.7h-1.5v1.3h1.8c1 0 2-.4 2.7-1 .7-.7 1.1-1.6 1.1-2.6.1-1.1-.4-2.1-1.2-2.8z"/><path id="路径_15494" class="st9" d="M-64.9 1.3c-.8-.8-2-1.2-3.1-1.1h-4v12.4h1.5V1.5h2.6c.7 0 1.4.2 1.9.7.5.4.8 1 .9 1.6.1.7-.2 1.4-.8 1.9-.5.5-1.2.7-1.9.7h-1.5v1.3h1.8c1 0 2-.4 2.7-1 .7-.6 1.2-1.6 1.2-2.6 0-1.1-.5-2.1-1.3-2.8z"/><path id="路径_15495" class="st9" d="M-54.4 3.2c-.2 0-.5-.1-.7-.1-1.1 0-2.2.4-2.9 1.2-.8.8-1.2 1.9-1.2 3v5.3h1.5V7.2A2.732 2.732 0 01-55 4.5h.2c.6.1 1.2.3 1.6.8.5.5.8 1.2.8 1.9v5.4h1.5V7.3c0-1.1-.4-2.2-1.2-3-.7-.6-1.5-1-2.3-1.1z"/></g><path id="路径_15496" class="st9" d="M-53 5c0-.5-.4-1-.9-1.2L-67 0c-.6-.2-1.3.2-1.5.8v2.3l-1.9-.5c-.6-.2-1.3.2-1.5.8V22.8c0 .7.5 1.2 1.2 1.2h.3l10.4-2.5c.5-.1.9-.6.9-1.2V15l5.3-1.3c.5-.1.9-.6.9-1.2L-53 5zm-18-1c0-.2.2-.4.4-.4h.1l1.9.6v11.5c0 .7.5 1.2 1.2 1.2h.3l6.9-1.7v5c0 .2-.2.4-.4.5l-9.9 2.4c-.2 0-.4-.1-.5-.3V4zm3.6 11.8c-.1-.1-.1-.2-.1-.3v-11l7 2c.2.1.4.3.4.5v7.2l-6.9 1.7c-.2 0-.3 0-.4-.1zm7.3-10.2l-7.5-2.1v-2c0-.2.2-.4.4-.4h.1l12.8 3.7c.2 0 .3.2.3.4v7.1c0 .2-.2.4-.4.5l-4.9 1.2V6.7c.1-.5-.3-1-.8-1.1z"/></g><g id="组_4618" transform="translate(181.787 128.018)"><g id="组_4617" transform="translate(25.293 6.266)"><path id="路径_15497" class="st9" d="M-65.6 12.5h-2.6V2.1H-72V0h10v2.1h-3.6v10.4z"/><path id="路径_15498" class="st9" d="M-58.5 2.1h-2.4V0h2.4v2.1zm0 10.4h-2.4V3.2h2.4v9.3z"/><path id="路径_15499" class="st9" d="M-55.8 0h4.9c1.9 0 3.1.4 3.9 1.4 2 2.9 2 6.7 0 9.6-.8 1-2 1.5-3.9 1.5h-4.9V0zm4.9 10.3c1.9 0 2.9-1.3 2.9-4 0-2.8-1-4.1-2.9-4.1h-2.3v8.2l2.3-.1z"/><path id="路径_15500" class="st9" d="M-37.6 12.5h-5.6V0h5.6c3.3 0 4.1 2.1 4.1 3.3 0 1.1-.5 1.8-1.7 2.6 1.2.5 2 1.7 2.1 3-.1 1.5-1 3.6-4.5 3.6zM-40.7 5h2.8c1.2 0 1.8-.5 1.8-1.4 0-.9-.6-1.4-1.8-1.4h-2.8V5zm0 5.3h3.1c1.2 0 1.9-.6 1.9-1.6 0-1.1-.7-1.6-1.9-1.6h-3.1v3.2z"/></g><path id="路径_15501" class="st9" d="M-61.2 0L-72 6.3v12.5l10.8 6.3 10.8-6.3V6.3L-61.2 0zm0 8.3v12.5l-3.6-2.1v-8.4l-3.6 2.1V8.3l7.2-4.2 3.6 2.1-3.6 2.1zm7.3 8.4l-3.6 2.1v-8.3l3.6-2.1v8.3z"/></g></g><g class="st10"><path class="st8" d="M3756.8-1042.2v5.8h-9.5v29.8h-7.1v-29.8h-9.5v-5.8h26.1zM3763.7-1039.4c-.8-.8-1.2-1.8-1.2-3s.4-2.2 1.2-3c.8-.8 1.9-1.2 3.1-1.2 1.3 0 2.3.4 3.1 1.2.8.8 1.2 1.8 1.2 3s-.4 2.2-1.2 3c-.8.8-1.9 1.2-3.1 1.2-1.2 0-2.3-.4-3.1-1.2zm6.7 4.6v28.3h-7.1v-28.3h7.1zM3801-1040c2.8 1.5 5 3.5 6.6 6.2 1.5 2.7 2.3 5.8 2.3 9.4s-.8 6.7-2.3 9.4c-1.5 2.7-3.7 4.7-6.6 6.2-2.8 1.5-6.1 2.2-9.9 2.2h-12.4v-35.6h12.4c3.8 0 7.1.7 9.9 2.2zm-1.5 24.3c2-2 3.1-4.9 3.1-8.6 0-3.7-1-6.6-3.1-8.7s-4.9-3.1-8.7-3.1h-5v23.5h5c3.8-.1 6.7-1.1 8.7-3.1zM3841.7-1021.8c1.3 1.6 1.9 3.5 1.9 5.6 0 1.9-.5 3.6-1.4 5s-2.3 2.6-4.1 3.4c-1.8.8-3.9 1.2-6.3 1.2h-15.4v-35.6h14.7c2.4 0 4.5.4 6.2 1.2 1.8.8 3.1 1.9 4 3.3.9 1.4 1.4 3 1.4 4.7 0 2.1-.6 3.8-1.7 5.2-1.1 1.4-2.6 2.4-4.4 3 2.1.3 3.8 1.3 5.1 3zm-18-5.7h6.5c1.7 0 3-.4 3.9-1.1.9-.8 1.4-1.9 1.4-3.3s-.5-2.5-1.4-3.3c-.9-.8-2.2-1.2-3.9-1.2h-6.5v8.9zm11.2 13.9c1-.8 1.5-2 1.5-3.5s-.5-2.7-1.5-3.6-2.4-1.3-4.1-1.3h-7v9.6h7.2c1.6 0 2.9-.4 3.9-1.2zM3893.5-1042.2v35.6h-7.1v-15.1h-15.2v15.1h-7.1v-35.6h7.1v14.6h15.2v-14.6h7.1zM3901.7-1028.4c1.1-2.2 2.7-3.9 4.6-5.1 2-1.2 4.1-1.8 6.6-1.8 2.1 0 4 .4 5.5 1.3 1.6.9 2.8 1.9 3.8 3.2v-4h7.2v28.3h-7.2v-4.1c-.9 1.3-2.2 2.4-3.8 3.3-1.6.9-3.5 1.3-5.6 1.3-2.4 0-4.5-.6-6.5-1.8-2-1.2-3.5-2.9-4.6-5.2-1.1-2.2-1.7-4.8-1.7-7.7 0-3 .6-5.5 1.7-7.7zm19.5 3.2c-.7-1.2-1.6-2.2-2.8-2.9-1.2-.7-2.4-1-3.7-1-1.3 0-2.5.3-3.7 1s-2 1.6-2.7 2.8c-.7 1.2-1 2.7-1 4.4s.3 3.2 1 4.5c.7 1.3 1.6 2.3 2.8 2.9 1.1.7 2.4 1 3.6 1 1.3 0 2.6-.3 3.7-1 1.2-.7 2.1-1.6 2.8-2.9.7-1.2 1-2.7 1-4.5s-.3-3-1-4.3zM3937.6-1028.4c1.2-2.2 2.8-3.9 4.9-5.1 2.1-1.2 4.5-1.8 7.2-1.8 3.5 0 6.4.9 8.7 2.6 2.3 1.8 3.8 4.2 4.6 7.4h-7.7c-.4-1.2-1.1-2.2-2.1-2.9-1-.7-2.2-1-3.6-1-2 0-3.7.7-4.8 2.2-1.2 1.5-1.8 3.6-1.8 6.3 0 2.7.6 4.8 1.8 6.2 1.2 1.5 2.8 2.2 4.8 2.2 2.9 0 4.8-1.3 5.7-3.9h7.7c-.8 3.1-2.3 5.5-4.6 7.3-2.3 1.8-5.2 2.7-8.7 2.7-2.7 0-5.1-.6-7.2-1.8-2.1-1.2-3.8-2.9-4.9-5.1-1.2-2.2-1.8-4.8-1.8-7.7.1-2.8.7-5.4 1.8-7.6zM3986.4-1006.6l-9.6-12v12h-7.1v-37.7h7.1v21.5l9.5-12h9.3l-12.4 14.2 12.5 14.1h-9.3zM4001.2-1039.4c-.8-.8-1.2-1.8-1.2-3s.4-2.2 1.2-3c.8-.8 1.9-1.2 3.1-1.2 1.3 0 2.3.4 3.1 1.2.8.8 1.2 1.8 1.2 3s-.4 2.2-1.2 3c-.8.8-1.9 1.2-3.1 1.2-1.2 0-2.2-.4-3.1-1.2zm6.7 4.6v28.3h-7.1v-28.3h7.1zM4040-1032.1c2.1 2.1 3.1 5.1 3.1 8.9v16.6h-7.1v-15.6c0-2.2-.6-4-1.7-5.2s-2.7-1.8-4.6-1.8c-2 0-3.5.6-4.7 1.8-1.1 1.2-1.7 2.9-1.7 5.2v15.6h-7.1v-28.3h7.1v3.5c1-1.2 2.2-2.2 3.6-2.9 1.5-.7 3.1-1 4.9-1 3.4 0 6.1 1.1 8.2 3.2zM4067.8-1034.1c1.6.8 2.9 1.9 3.8 3.2v-4h7.2v28.5c0 2.6-.5 5-1.6 7-1.1 2.1-2.6 3.7-4.7 4.9-2.1 1.2-4.7 1.8-7.7 1.8-4 0-7.3-.9-9.9-2.8-2.6-1.9-4-4.4-4.4-7.7h7.1c.4 1.3 1.2 2.3 2.4 3.1 1.2.8 2.7 1.1 4.5 1.1 2.1 0 3.8-.6 5-1.9 1.3-1.2 1.9-3.1 1.9-5.6v-4.4c-.9 1.3-2.2 2.4-3.8 3.3-1.6.9-3.5 1.3-5.5 1.3-2.4 0-4.6-.6-6.5-1.8-2-1.2-3.5-2.9-4.7-5.2-1.1-2.2-1.7-4.8-1.7-7.7 0-2.9.6-5.4 1.7-7.6 1.1-2.2 2.7-3.9 4.6-5.1 2-1.2 4.1-1.8 6.6-1.8 2.2.2 4.1.6 5.7 1.4zm2.8 8.9c-.7-1.2-1.6-2.2-2.8-2.9-1.2-.7-2.4-1-3.7-1s-2.5.3-3.7 1c-1.1.6-2 1.6-2.7 2.8-.7 1.2-1 2.7-1 4.4s.3 3.2 1 4.5c.7 1.3 1.6 2.3 2.8 2.9 1.1.7 2.4 1 3.6 1 1.3 0 2.6-.3 3.7-1 1.2-.7 2.1-1.6 2.8-2.9.7-1.2 1-2.7 1-4.5s-.4-3-1-4.3zM4101.1-1033.9c1.6-2.8 3.7-4.9 6.5-6.5s5.8-2.3 9.2-2.3c4 0 7.5 1 10.5 3.1 3 2 5.1 4.9 6.3 8.5h-8.2c-.8-1.7-2-3-3.4-3.8-1.5-.8-3.2-1.3-5.1-1.3-2.1 0-3.9.5-5.5 1.5s-2.9 2.3-3.8 4.1c-.9 1.8-1.4 3.8-1.4 6.2 0 2.3.5 4.4 1.4 6.2.9 1.8 2.2 3.2 3.8 4.1s3.5 1.5 5.5 1.5c1.9 0 3.6-.4 5.1-1.3 1.5-.9 2.6-2.2 3.4-3.9h8.2c-1.2 3.6-3.3 6.5-6.2 8.5-3 2-6.5 3-10.5 3-3.4 0-6.5-.8-9.2-2.3-2.7-1.5-4.9-3.7-6.5-6.5s-2.4-5.9-2.4-9.4.7-6.6 2.3-9.4zM4140.8-1028.4c1.1-2.2 2.7-3.9 4.6-5.1s4.1-1.8 6.6-1.8c2.1 0 4 .4 5.5 1.3 1.6.9 2.8 1.9 3.8 3.2v-4h7.2v28.3h-7.2v-4.1c-.9 1.3-2.2 2.4-3.8 3.3-1.6.9-3.5 1.3-5.6 1.3-2.4 0-4.5-.6-6.5-1.8s-3.5-2.9-4.6-5.2c-1.1-2.2-1.7-4.8-1.7-7.7-.1-3 .5-5.5 1.7-7.7zm19.5 3.2c-.7-1.2-1.6-2.2-2.8-2.9-1.2-.7-2.4-1-3.7-1s-2.5.3-3.7 1-2 1.6-2.7 2.8c-.7 1.2-1 2.7-1 4.4s.3 3.2 1 4.5c.7 1.3 1.6 2.3 2.8 2.9 1.1.7 2.4 1 3.6 1 1.3 0 2.6-.3 3.7-1 1.2-.7 2.1-1.6 2.8-2.9.7-1.2 1-2.7 1-4.5s-.4-3-1-4.3zM4220.2-1032.1c2.1 2.1 3.2 5.1 3.2 8.9v16.6h-7.1v-15.6c0-2.2-.6-3.9-1.7-5.1s-2.7-1.8-4.6-1.8c-1.9 0-3.5.6-4.6 1.8-1.1 1.2-1.7 2.9-1.7 5.1v15.6h-7.1v-15.6c0-2.2-.6-3.9-1.7-5.1s-2.7-1.8-4.6-1.8c-2 0-3.5.6-4.7 1.8-1.1 1.2-1.7 2.9-1.7 5.1v15.6h-7.1v-28.3h7.1v3.4c.9-1.2 2.1-2.1 3.5-2.8s3-1 4.8-1c2.2 0 4.2.5 5.9 1.4 1.7.9 3.1 2.3 4 4 .9-1.6 2.3-2.9 4-3.9s3.6-1.5 5.7-1.5c3.5 0 6.3 1.1 8.4 3.2zM4242.4-1034c1.6-.9 3.5-1.3 5.5-1.3 2.4 0 4.6.6 6.6 1.8s3.5 2.9 4.6 5.1c1.1 2.2 1.7 4.7 1.7 7.6s-.6 5.4-1.7 7.7c-1.1 2.2-2.7 4-4.6 5.2s-4.1 1.8-6.6 1.8c-2.1 0-3.9-.4-5.5-1.3-1.6-.8-2.9-1.9-3.8-3.2v17.5h-7.1v-41.7h7.1v4.1c.9-1.4 2.2-2.4 3.8-3.3zm10.1 8.8c-.7-1.2-1.6-2.2-2.8-2.8-1.1-.6-2.4-1-3.7-1-1.3 0-2.5.3-3.6 1s-2.1 1.6-2.8 2.9c-.7 1.3-1 2.7-1 4.4s.3 3.2 1 4.4c.7 1.3 1.6 2.2 2.8 2.9 1.1.7 2.4 1 3.6 1 1.3 0 2.6-.3 3.7-1s2.1-1.6 2.8-2.9c.7-1.3 1-2.8 1-4.5 0-1.7-.3-3.2-1-4.4zM4282.2-1014.6c3.3-2.7 5.9-5 7.8-6.8 1.9-1.8 3.6-3.7 4.8-5.7s1.9-3.9 1.9-5.8c0-1.7-.4-3.1-1.2-4.1-.8-1-2.1-1.5-3.8-1.5-1.7 0-3 .6-3.9 1.7-.9 1.1-1.4 2.7-1.4 4.7h-6.9c.1-4.1 1.4-7.2 3.6-9.3 2.3-2.1 5.2-3.2 8.7-3.2 3.9 0 6.8 1 8.9 3.1 2.1 2.1 3.1 4.8 3.1 8.1 0 2.7-.7 5.2-2.1 7.6-1.4 2.4-3.1 4.5-4.9 6.3-1.8 1.8-4.2 3.9-7.2 6.5h15v5.9h-25.2v-5.3l2.8-2.2zM4313.6-1039.5c2.1-3.3 5.7-5 10.6-5s8.5 1.7 10.6 5c2.1 3.3 3.2 7.9 3.2 13.8s-1.1 10.6-3.2 13.9c-2.1 3.4-5.7 5-10.6 5s-8.5-1.7-10.6-5c-2.1-3.4-3.2-8-3.2-13.9.1-5.8 1.1-10.5 3.2-13.8zm16.9 7.5c-.3-1.7-1-3.1-1.9-4.2-1-1.1-2.4-1.6-4.3-1.6s-3.3.5-4.3 1.6-1.6 2.5-1.9 4.2c-.3 1.7-.5 3.8-.5 6.3 0 2.6.2 4.8.5 6.5.3 1.8 1 3.2 1.9 4.2 1 1.1 2.4 1.6 4.3 1.6s3.3-.5 4.3-1.6 1.6-2.5 1.9-4.2.5-3.9.5-6.5c0-2.5-.2-4.6-.5-6.3zM4346.9-1014.6c3.3-2.7 5.9-5 7.8-6.8 1.9-1.8 3.6-3.7 4.8-5.7s1.9-3.9 1.9-5.8c0-1.7-.4-3.1-1.2-4.1-.8-1-2.1-1.5-3.8-1.5-1.7 0-3 .6-3.9 1.7-.9 1.1-1.4 2.7-1.4 4.7h-6.9c.1-4.1 1.4-7.2 3.6-9.3 2.3-2.1 5.2-3.2 8.7-3.2 3.9 0 6.9 1 8.9 3.1 2.1 2.1 3.1 4.8 3.1 8.1 0 2.7-.7 5.2-2.1 7.6-1.4 2.4-3.1 4.5-4.9 6.3-1.8 1.8-4.2 3.9-7.2 6.5h15v5.9h-25.2v-5.3l2.8-2.2zM4374.4-1037.2v-6.6h12.3v37.2h-7.3v-30.6h-5z"/></g></g></svg>