<svg version="1.1" id="图层_1" xmlns="http://www.w3.org/2000/svg" x="0" y="0" viewBox="0 0 767 384.2" xml:space="preserve"><style>.st1{enable-background:new}.st2{fill:#35e561}.st3{fill:none;stroke:#fff;stroke-width:2}.st4{fill:#fff}.st5{fill:#55f6fb}.st7{fill:#6067ef}.st8{fill:#ff6d78}.st9{fill:#ffab00}.st10{fill:#4450e6}.st11{fill:#00e561}</style><path id="矩形_4104" fill="#181e2e" d="M0 0h767v384.2H0z"/><g class="st1"><path class="st2" d="M449.7 59.6v-1.8l6.1-6.2c.8-.8 1.4-1.7 1.4-2.8 0-1.5-1-3-2.6-3-1.8 0-2.8 1.6-2.8 3.2v.4h-2.2v-.1c0-2.3.9-4.3 3.1-5.2.6-.2 1.2-.4 1.8-.4 2.8 0 4.9 2.2 4.9 5 0 1.9-.9 3.1-2.2 4.4l-4.3 4.4h6.5v2h-9.7zM475.5 54.6c0 1.4-.2 2.4-1.1 3.5-1 1.2-2.4 1.8-3.9 1.8s-3-.7-3.9-1.9c-.9-1.1-1.1-2.2-1.1-3.6V49c0-2.2 1-4 3.1-4.9.6-.3 1.3-.4 2-.4 2.9 0 5 2.3 5 5.1v5.8zm-2.2-5.8c0-1.8-1-3.1-2.8-3.1s-2.9 1.3-2.9 3.1v5.7c0 1.8 1 3.3 2.9 3.3.8 0 1.6-.4 2.1-1 .7-.7.7-1.3.7-2.3v-5.7zM481.4 59.6v-1.8l6.1-6.2c.8-.8 1.4-1.7 1.4-2.8 0-1.5-1-3-2.6-3-1.8 0-2.8 1.6-2.8 3.2v.4h-2.2v-.1c0-2.3.9-4.3 3.1-5.2.6-.2 1.2-.4 1.8-.4 2.8 0 4.9 2.2 4.9 5 0 1.9-.9 3.1-2.2 4.4l-4.3 4.4h6.5v2h-9.7zM501.8 59.6V46h-2.3v-2h4.5v15.5h-2.2zM514.1 59.6V57h2.2v2.6h-2.2zM533.1 54.6c0 1.4-.2 2.4-1.1 3.5-1 1.2-2.4 1.8-3.9 1.8s-3-.7-3.9-1.9c-.9-1.1-1.1-2.2-1.1-3.6V49c0-2.2 1-4 3.1-4.9.6-.3 1.3-.4 2-.4 2.9 0 5 2.3 5 5.1v5.8zm-2.2-5.8c0-1.8-1-3.1-2.8-3.1s-2.9 1.3-2.9 3.1v5.7c0 1.8 1 3.3 2.9 3.3.8 0 1.6-.4 2.1-1 .7-.7.7-1.3.7-2.3v-5.7zM542.9 59.6h-2.4l5.9-13.5h-6.7v-2h9v2l-5.8 13.5zM554 54.6v-2.2h5.9v2.2H554zM564.9 59.6v-1.8l6.1-6.2c.8-.8 1.4-1.7 1.4-2.8 0-1.5-1-3-2.6-3-1.8 0-2.8 1.6-2.8 3.2v.4h-2.2v-.1c0-2.3.9-4.3 3.1-5.2.6-.2 1.2-.4 1.8-.4 2.8 0 4.9 2.2 4.9 5 0 1.9-.9 3.1-2.2 4.4l-4.3 4.4h6.5v2h-9.7zM590.7 54.6c0 1.4-.2 2.4-1.1 3.5-1 1.2-2.4 1.8-3.9 1.8s-3-.7-3.9-1.9c-.9-1.1-1.1-2.2-1.1-3.6V49c0-2.2 1-4 3.1-4.9.6-.3 1.3-.4 2-.4 2.9 0 5 2.3 5 5.1v5.8zm-2.1-5.8c0-1.8-1-3.1-2.8-3.1s-2.9 1.3-2.9 3.1v5.7c0 1.8 1 3.3 2.9 3.3.8 0 1.6-.4 2.1-1 .7-.7.7-1.3.7-2.3v-5.7zM596.6 59.6v-1.8l6.1-6.2c.8-.8 1.4-1.7 1.4-2.8 0-1.5-1-3-2.6-3-1.8 0-2.8 1.6-2.8 3.2v.4h-2.2v-.1c0-2.3.9-4.3 3.1-5.2.6-.2 1.2-.4 1.8-.4 2.8 0 4.9 2.2 4.9 5 0 1.9-.9 3.1-2.2 4.4l-4.3 4.4h6.5v2h-9.7zM617 59.6V46h-2.3v-2h4.5v15.5H617zM629.3 59.6V57h2.2v2.6h-2.2zM642.9 59.6V46h-2.3v-2h4.5v15.5h-2.2zM664.2 54.6c0 1.4-.2 2.4-1.1 3.5-1 1.2-2.4 1.8-3.9 1.8s-3-.7-3.9-1.9c-.9-1.1-1.1-2.2-1.1-3.6V49c0-2.2 1-4 3.1-4.9.6-.3 1.3-.4 2-.4 2.9 0 5 2.3 5 5.1v5.8zm-2.2-5.8c0-1.8-1-3.1-2.8-3.1s-2.9 1.3-2.9 3.1v5.7c0 1.8 1 3.3 2.9 3.3.8 0 1.6-.4 2.1-1 .7-.7.7-1.3.7-2.3v-5.7z"/></g><g id="组_5098" transform="translate(3660.316 -1718.979)"><path id="直线_326" class="st3" d="M-3466.8 1776.8l14.8-14.8"/><path id="直线_327" class="st3" d="M-3466.8 1762l14.8 14.8"/><g id="组_4602" transform="translate(309.072 126.409)"><g id="组_4597" transform="translate(0 3.72)"><path id="路径_15458" class="st4" d="M-3725.5 1633.5l.1-.2c.2-.6.4-.9.4-4.6v-3.7c.1-.7 0-1.3-.2-2-.2-.5-.6-.7-1.5-.8-1.1 0-2.1.4-2.9 1.2v5.2c0 1.6 0 2.5.1 3.4 0 .4.1.8.3 1.2l.1.2h-3.5l.1-.2c.2-.3.3-.7.3-1.1.1-.6.1-1.6.1-3.5v-4c0-.6 0-1.1-.2-1.6-.3-.6-.9-.9-1.6-.8-1 0-2 .5-2.8 1.2v5.2c0 1.6 0 2.5.1 3.4 0 .4.1.8.3 1.2l.1.2h-3.5l.1-.2c.2-.6.4-.9.4-4.6v-2.4c0-.2 0-2.6-.1-3.7 0-.5-.1-1-.3-1.4l-.1-.1 2.8-1 .1 1.2c1-.8 2.2-1.3 3.5-1.3.9 0 1.7.2 2.4.6.3.2.6.4.8.7 1.1-.9 2.5-1.4 3.9-1.4 1.2 0 2.8.4 3.5 1.6.4.8.5 1.8.4 2.7v4.5c0 1.9 0 2.7.1 3.4 0 .4.1.8.3 1.2l.1.2-3.7.1z"/></g><g id="组_4598" transform="translate(30.499)"><path id="路径_15459" class="st4" d="M-3738.3 1636.2c-.3-.8-.4-1.6-.4-2.4v-7.6h-1.3v-2.4h.2c.5.1.7.1 1.2.1v-3l2.6-1v3.9h2.2c.4 0 .8-.1 1.2-.2l.2-.1v.2c0 .5-.1 1.1-.2 1.6-.1.3-.3.5-.6.6-.2 0-.4.1-.6.1h-2.2v7c0 .5 0 1 .2 1.4.2.3.5.6.9.5 1-.1 1.9-.6 2.5-1.4l.3-.3v.4c0 .7-.1 1.5-.2 2.2 0 .3-.2.5-.5.6-.8.5-1.8.7-2.7.7-1.2.5-2.2 0-2.8-.9z"/></g><g id="组_4599" transform="translate(39.745 3.72)"><path id="路径_15460" class="st4" d="M-3740 1633.5l.1-.2c.2-.6.4-.9.4-4.6v-2.4c0-1.1 0-2.6-.1-3.8 0-.5-.1-1-.3-1.4l-.1-.1 2.7-1 .2 1.2c.7-.8 1.8-1.2 2.9-1.2.2 0 .4 0 .6.1.3.1.5.3.5.6 0 .2-.1.5-.1.7l-.4 1.4-.2-.1c-.3-.1-.6-.2-.8-.2-.9 0-1.7.4-2.2 1v5.2c0 1.9 0 2.7.1 3.4 0 .4.1.8.3 1.2l.1.2h-3.7z"/></g><g id="组_4600" transform="translate(47.935 3.772)"><path id="路径_15461" class="st4" d="M-3740 1633.5l.1-.2c.2-.6.4-.9.4-4.5v-2.4c0-1.1 0-2.6-.1-3.7 0-.5-.1-1-.3-1.4l-.1-.2 3.1-1v8.7c0 1.9 0 2.7.1 3.4 0 .4.1.8.3 1.2l.1.2-3.6-.1z"/></g><g id="组_4601" transform="translate(53.045 3.944)"><path id="路径_15462" class="st4" d="M-3736.2 1620h.1v.1c.2.9.5 1.7 1.1 2.4l1.6 2.2c2.4-2.8 2.7-3.6 2.8-4.7v-.1h2.9l-.1.2c-1 2.4-2.5 4.6-4.4 6.4l2.9 4.1c.6.8 1.2 1.6 1.9 2.4l.2.3h-4v-.2c0-.6 0-.7-1-2.2l-1.9-2.7c-.8.9-2.6 2.9-3 4.9v.1h-3.1l.1-.2c1.1-2.5 2.6-4.8 4.6-6.7l-2.5-3.6c-.6-.9-1.3-1.7-1.9-2.6l-.2-.3 3.9.2"/></g><path id="路径_15463" class="st4" d="M-3710.3 1636.2c-.7-.6-1-.9-1-2.6v-6.2c.1-.8-.1-1.6-.5-2.3-.5-.8-1.6-1.4-3.6-1.4-1.1 0-2.1.2-3.1.6-.8.4-1.5.8-1.5 1.3 0 .2.1.4.1.4l.4 1.6.2-.2c.9-1 2.2-1.6 3.6-1.6.9 0 1.3.2 1.5.6.2.4.3.9.3 1.4v1.1c-1.4 0-2.8.4-4.1 1-1.4.7-2.2 2.1-2.2 3.7 0 .9.2 1.7.7 2.5.7.9 1.8 1.4 2.9 1.3 1.2 0 2.4-.4 3.2-1.2.3.9.8 1.2 1 1.2.2 0 .4-.1.5-.2l1.7-1h-.1zm-3.7-2.7c0 .6-.3 1.2-.9 1.5-.4.2-.8.3-1.2.3-.8.1-1.5-.5-1.6-1.3v-.3c0-1.9 2-2.4 3.7-2.4v2.2z"/></g><g id="组_4603" transform="translate(309.488 147.94)"><path id="路径_15464" class="st4" d="M-3739.4 1624.7h-.6v-4.5h.6c1.4 0 1.8.5 1.8 1.3 0 1-.7 1.3-1.6 1.3h-.3v1.9zm0-2.4h.2c.6 0 1.2-.1 1.2-.8s-.7-.8-1.2-.8h-.2v1.6z"/><path id="路径_15465" class="st4" d="M-3735.4 1623.6l-.5 1.1h-.6l2.2-4.7 2.2 4.7h-.6l-.5-1.1h-2.2zm1.1-2.4l-.8 1.8h1.6l-.8-1.8z"/><path id="路径_15466" class="st4" d="M-3727.5 1624.7h-.7l-1.3-1.9h-.2v1.9h-.6v-4.5h.7c.4 0 .8 0 1.2.2.4.2.6.6.6 1.1 0 .6-.4 1.2-1.1 1.3l1.4 1.9zm-2.2-2.4h.2c.6 0 1.2-.1 1.2-.8s-.7-.8-1.2-.8h-.1l-.1 1.6z"/><path id="路径_15467" class="st4" d="M-3724.5 1624.7h-.6v-4h-1.1v-.5h2.7v.5h-1.1v4z"/><path id="路径_15468" class="st4" d="M-3721.5 1620l3.4 3.6v-3.3h.6v4.7l-3.4-3.6v3.4h-.6v-4.8z"/><path id="路径_15469" class="st4" d="M-3715.2 1620.2h2.4v.5h-1.9v1.3h1.8v.5h-1.8v1.7h1.9v.5h-2.4v-4.5z"/><path id="路径_15470" class="st4" d="M-3707.8 1624.7h-.7l-1.3-1.9h-.2v1.9h-.6v-4.5h.7c.4 0 .8 0 1.2.2.4.2.6.6.6 1.1 0 .6-.4 1.2-1.1 1.3l1.4 1.9zm-2.3-2.4h.2c.6 0 1.2-.1 1.2-.8s-.7-.8-1.2-.8h-.1l-.1 1.6z"/><path id="路径_15471" class="st4" d="M-3703.9 1621.1c-.1-.3-.4-.4-.7-.4-.4 0-.7.3-.8.6 0 .4.3.5.6.6l.3.1c.6.3 1.1.6 1.1 1.4 0 .8-.6 1.4-1.4 1.4h-.1c-.7 0-1.3-.5-1.4-1.3l.6-.1c0 .5.4.8.9.8s.8-.4.8-.9-.4-.7-.8-.9l-.3-.1c-.5-.2-1-.5-1-1.1 0-.7.6-1.2 1.3-1.2.5 0 .9.3 1.2.7l-.3.4z"/><path id="路径_15472" class="st4" d="M-3694.6 1621.1c-.8-.7-1.9-.6-2.5.2-.3.3-.4.8-.4 1.2 0 1 .7 1.8 1.7 1.8.5 0 .9-.2 1.3-.5v.7c-.4.2-.8.3-1.2.3-1.3 0-2.3-1-2.4-2.3 0-1.3 1.1-2.4 2.4-2.4.4 0 .8.1 1.1.3v.7z"/><path id="路径_15473" class="st4" d="M-3690.3 1622v-1.8h.6v4.5h-.6v-2.2h-2.2v2.2h-.6v-4.5h.6v1.8h2.2z"/><path id="路径_15474" class="st4" d="M-3686.9 1624.7h-.6v-4.5h.6v4.5z"/><path id="路径_15475" class="st4" d="M-3684.6 1620l3.4 3.6v-3.3h.6v4.7l-3.4-3.6v3.4h-.6v-4.8z"/><path id="路径_15476" class="st4" d="M-3677.7 1623.6l-.5 1.1h-.6l2.2-4.7 2.2 4.7h-.6l-.5-1.1h-2.2zm1-2.4l-.8 1.8h1.6l-.8-1.8z"/></g><path id="路径_15477" class="st4" d="M-3415.9 1789.6c-.3 0-.4.3-.6.5-.2.2-.4.5-.4.5h-3v-4.2h3.9v-.1c-.1-.3-.2-.6-.5-.9-.3-.3-.5-.6-.7-.6-.3 0-.4.3-.7.5l-.3.3s-.1.1-.2.1h-7.4c-.5.1-1.8.6-2.4.6h-.2c.3-.6.7-1.1 1.2-1.5.7-.6 1.4-1.3 1.6-1.5l1.3-1.3.7-.7.3-.3h.1v-.1c-.3-.5-.8-.9-1.3-1.1-.2 0-.3.2-.4.4-.2.4-.5.9-.7 1.3l-.3.6c0 .1-.1.1-.1.2h-1.2c-.5 0-.9 0-1.4-.1.1-.3.3-.7.5-1 .3-.4.5-.8.5-.8.2-.3.7-.9 1.2-1.4l.9-1.2c-.1-.2-.3-.4-.6-.6-.2-.2-.5-.3-.8-.4h-.1c-.1 0-.1.1-.1.2-.3.5-1.3 2.6-1.6 3-.1.2-.6.8-1.1 1.4l-.9 1.2.6.6c.3.3.6.6.8.6.2 0 .3-.3.4-.5.1-.1.2-.3.2-.4.3 0 1.5-.1 2.1-.1h.1c-.3.3-1 .9-1.7 1.6-.5.4-.9.9-1.2 1.2-.3.4-.6.6-.6.8 0 .3.2.6.4.8.2.3.4.5.6.5.3-.1 2.9-1.4 3.7-1.4h4.1v4.1H-3425.6h-.1v.1c0 .2.1.4.2.5l.1.1h10.6v-.1c-.1-.3-.2-.6-.4-.9-.2-.2-.4-.5-.7-.5zm-7.3-8.8s0 .1 0 0c0 .1 0 0 0 0zm-.6 7.5c0-.1 0-.1 0 0 0-.3-.1-.2-.2-.2-2.1.4-4.2.9-6.3 1.6-.1 0-.1.1-.1.2.1.4.4.8.8 1h.1c1-.3 2-.7 2.9-1.2.7-.3 1.3-.6 1.8-.9.4-.1.7-.3 1-.5zm16.6-.6c-2.1.4-4.2.9-6.3 1.6-.1 0-.1.1-.1.2.1.4.4.8.8 1h.1c1-.3 2-.7 2.9-1.2.7-.3 1.3-.6 1.8-.9.4-.1.7-.4 1-.6v-.1h-.2zm40.5-7.6c.1-.1.1-.1.1-.2-.1-.3-.2-.6-.4-.8-.2-.3-.5-.6-.7-.6-.3 0-.4.2-.6.4l-.4.4h-7.2v.1c.1.2.2.5.3.6.2.2.3.4.5.4.3 0 .4-.4.5-.5h2.3v2.7h-3.1l.1.2.3.6c.2.2.3.4.5.4.3 0 .4-.4.5-.5h1.6v4.1h-4l.1.2.3.6c.2.2.3.4.5.4.3 0 .4-.4.5-.5h8.2v-.1c-.1-.3-.2-.5-.5-.7-.3-.3-.5-.5-.8-.5-.4 0-1 .7-1.2.7h-2.1v-4.1h4v-.1c-.1-.3-.2-.5-.4-.7-.2-.3-.5-.5-.7-.5-.5 0-.9.7-1 .7h-1.9v-2.7h4.7zm1.1-3.1c-.2-.2-.5-.3-.8-.3-.1 0-.1 0-.2.1v.5h-9.9c-.3-.3-.7-.5-1.2-.6-.1 0-.1 0-.2.1v15.2h.1c.4 0 .7-.2.9-.6v-.9h10.2v1.5h.1c.4 0 .7-.2.9-.6v-11.5l.1-1.8c.1-.1.2-.2.3-.4l.1-.1c.2-.3-.1-.4-.4-.6zm-11.1 12.9V1778c0-.1.1-.1.2-.2h10v12h-10.2zm8-4.8c-.6-.5-1.2-.9-1.9-1.1.2.5.4 1 .7 1.5.4.5.8 1 1 1 .4 0 .6-.6.5-1.1l-.3-.3zm-55.2-6.5h4.4c-1 1.5-2.2 2.9-3.5 4.1-.6.6-1.1 1-1.5 1.3l-.4.4c-.1.1-.2.1-.2.3 0 .1 0 .1.1.1h.1c.9-.3 1.8-.8 2.6-1.5.7-.5 1.4-1 2.2-1.4.7.4 1.4.9 2.1 1.5.7.6 1.4 1.1 2.3 1.5h.1c.2-.1.1-.2.2-.3v-.4c0-.4 0-.7-.1-1.1l-.1.1.1-.1c-.6-.6-1.3-1-2.1-1.2-.4-.2-.9-.3-1.2-.5-.1 0-.3-.1-.4-.2h-.1c.4-.5.8-1.1 1.2-1.6l1.2-1.5c0-.3-.3-.5-.6-.7-.2-.2-.5-.4-.8-.5h-.1l-.4.4c-.1.1-.2.3-.2.3h-5.1l-.1.1v.1c0 .2.1.4.2.5 0 .4 0 .3.1.3zm24.3-.2c-.3 0-.4.3-.6.5-.2.2-.4.5-.4.5h-2.3v-1.4s0-.5.4-.5h.1v-.1c-.1-.2-.3-.3-.7-.5-.3-.2-.6-.3-.9-.3-.1 0-.1 0-.2.1V1779.5h-3.9-.1l-.1.1c-.5 1.2-.9 2.1-1 2.4h-2l1.5-2c.3-.5.7-.9.9-1.3.2-.2.3-.4.4-.7v-.1c-.1-.2-.3-.4-.6-.6-.2-.2-.5-.3-.8-.4h-.1c-.1 0-.1.1-.1.2-.3.5-1.3 2.6-1.6 3-.2.2-.6.8-1 1.4-.3.4-.6.8-.8 1.2v.1s.2.2.5.4c.2.2.4.3.7.4.3-.1.5-.4.6-.6h1.6c-.2.3-.7.9-1.2 1.5-.3.4-.7.9-1 1.2-.2.2-.4.5-.5.8 0 .5.4.8.9.9.9-.1 1.8-.2 2.6-.4.5-.1 1-.3 1.5-.4.4-.2.7-.3.7-.6v-.2c-.1-.1-.2-.1-.4-.1-.7 0-2.3.3-3.1.3h-.3-.1c.5-.9 1.1-1.8 1.8-2.6.8-1 1.5-2.1 2.2-3.2h2.6v1.7h-2.7l-.1.1v.1c0 .2.1.4.2.5.1.1.1.1.2.1h2.5v2.2H-3408h-.1v.1c0 .2.1.4.2.5.1.1.1.1.2.1h3.4v6.5c.3.1.7.2 1 .2h.1c.1-.1 0-.1.1-.1v-1.8-5h2.7c0 .5 0 2.6-.1 3-.3.2-.7.3-1.1.3-.4 0-.8 0-1.1-.1h-.1v.1c.1.6 1.4 1.6 2.1 1.6 1.2 0 1.3-1.4 1.3-2.6 0-1.3.1-2.4.8-2.4l.1-.1c-.1-.3-.2-.5-.5-.7-.2-.2-.5-.4-.7-.5-.5 0-.9.8-1 .8h-2.4v-2.2h3.7v-.1c-.1-.3-.2-.5-.4-.8-.2-.3-.5-.5-.7-.5-.5 0-.9.8-1 .8h-1.6v-1.7h4.7v-.1c-.1-.3-.3-.6-.6-.9 0-.6-.3-.9-.6-.9zm16.9 1.4c-.2-.1-.5-.2-.8-.2-.1 0-.1 0-.2.1v.4h-4.6v-.2-1.9c0-.1 0-.2.1-.3 0-.2.2-.3.3-.3 0 0 .2 0 .2-.1 0-.2-.1-.2-.2-.3-.4-.3-.9-.5-1.3-.7-.1 0-.1 0-.2.1v3.6h-3.9c-.4-.3-.8-.4-1.2-.5-.1 0-.1 0-.2.1V1786.8h.1c.4 0 .7-.2.9-.6v-.7h4.2v6.5c.3.1.7.2 1 .2h.1c.1-.1 0-.1.1-.1v-1.8-4.9h4.6v1.3h.1c.4 0 .7-.2.9-.6v-3.7s0-.5.1-1c0-.4.1-.8.3-1.2l.1-.1s-.2-.1-.5-.3zm-11 5.1v-2.3c0-.6.1-1.2.2-1.8h4v4.1h-4.2zm5.5 0v-4.1h4.6v4.1h-4.6z"/><g id="组_4616" transform="translate(181.787 156.502)"><g id="组_4615" transform="translate(19.588 4.422)"><path id="矩形_4089" class="st4" d="M-3732.5 1620.3h1.1v1.1h-1.1z"/><path id="矩形_4090" class="st4" d="M-3732.5 1622.8h1.1v6.9h-1.1z"/><path id="路径_15490" class="st4" d="M-3719.2 1622.3c-1 0-1.9.4-2.5 1.1-.7.7-1 1.6-1 2.6s.4 2 1.1 2.7c.7.7 1.7 1.1 2.7 1.1 1 0 1.9-.4 2.5-1.1v.5c0 .6-.3 1.2-.7 1.6-.5.5-1.1.7-1.7.7-.6 0-1.1-.2-1.5-.5-.4-.2-.6-.6-.8-1l-.9.5c.2.4.5.8.9 1.1.6.5 1.4.8 2.2.8h.2c.9 0 1.7-.3 2.4-.8s1.1-1.4 1.1-2.3v-3.2c-.2-2.1-1.9-3.8-4-3.8zm2.7 3.9c0 .7-.3 1.4-.8 1.8-.5.5-1.1.8-1.8.8s-1.4-.3-1.8-.8c-.5-.5-.8-1.2-.8-1.9s.2-1.4.7-1.9c.4-.5 1.1-.8 1.8-.9h.1c.7 0 1.3.3 1.8.8.6.6.9 1.3.8 2.1z"/><path id="路径_15491" class="st4" d="M-3710 1621.1c1.2-.1 2.4.6 3 1.7l.9-.5c-.4-.6-.8-1.1-1.4-1.5-.7-.5-1.6-.7-2.4-.7-1.2 0-2.4.5-3.3 1.4-.9.9-1.4 2.2-1.4 3.5 0 1.3.5 2.6 1.4 3.5.8.9 2 1.5 3.2 1.5 1.6 0 3.1-.9 3.8-2.2l-.9-.5c-.3.5-.7.9-1.3 1.2-.5.3-1.1.5-1.7.5-1 0-1.9-.4-2.6-1.2-.7-.8-1.1-1.8-1-2.8 0-1 .4-2 1.1-2.7.7-.8 1.7-1.2 2.6-1.2z"/><path id="路径_15492" class="st4" d="M-3701.7 1620.1l-4.3 9.6h1.4l1.3-3.2.5-1 1.7-4.1 1.7 4.1h-2.4l-.4 1h3.3l1.3 3.2h1.2l-4.1-9.6h-1.2z"/><path id="路径_15493" class="st4" d="M-3690.2 1621c-.7-.6-1.5-.9-2.4-.9h-3.1v9.6h1.1v-8.6h2c.5 0 1.1.2 1.5.5.4.3.7.8.7 1.3.1.6-.2 1.1-.6 1.5-.4.4-.9.6-1.5.5h-1.2v1h1.4c.8 0 1.5-.3 2.1-.8.6-.5.9-1.2.9-2 .1-.8-.3-1.6-.9-2.1z"/><path id="路径_15494" class="st4" d="M-3734.5 1621c-.7-.6-1.5-.9-2.4-.9h-3.1v9.6h1.1v-8.6h2c.5 0 1.1.2 1.5.5.4.3.7.8.7 1.3.1.6-.2 1.1-.6 1.5-.4.4-.9.6-1.5.5h-1.2v1h1.4c.8 0 1.5-.3 2.1-.8.6-.5.9-1.2.9-2 .1-.8-.3-1.6-.9-2.1z"/><path id="路径_15495" class="st4" d="M-3726.4 1622.5h-.5c-.9 0-1.7.3-2.3.9-.6.6-.9 1.5-.9 2.3v4.1H-3728.9v-4.2c0-.6.2-1.1.6-1.5.4-.4.9-.6 1.5-.6h.2c.5.1.9.3 1.2.6.4.4.6.9.6 1.5v4.2h1.1v-4.1c0-.9-.3-1.7-.9-2.3-.5-.5-1.1-.9-1.8-.9z"/></g><path id="路径_15496" class="st4" d="M-3725.3 1623.9c0-.4-.3-.8-.7-.9l-10.2-2.9c-.5-.1-1 .1-1.2.6v1.8l-1.5-.4c-.5-.1-1 .1-1.2.6V1637.8c0 .5.4.9.9.9h.2l8-1.9c.4-.1.7-.5.7-.9v-4.2l4.1-1c.4-.1.7-.5.7-.9l.2-5.9zm-13.9-.8c0-.2.1-.3.3-.3h.1l1.5.4v8.9c0 .5.4.9.9.9h.2l5.3-1.3v3.9c0 .2-.1.3-.3.4l-7.7 1.8c-.2 0-.3-.1-.4-.2v-14.5zm2.7 9.1c-.1-.1-.1-.1-.1-.2v-8.5l5.4 1.5c.2 0 .3.2.3.4v5.6l-5.3 1.3c-.1 0-.2 0-.3-.1zm5.7-7.9l-5.8-1.7v-1.6c0-.2.1-.3.3-.3h.1l9.9 2.8c.2 0 .3.2.3.4v5.5c0 .2-.1.3-.3.4l-3.8.9v-5.6c0-.3-.3-.7-.7-.8z"/></g><g id="组_4618" transform="translate(181.787 127.655)"><g id="组_4617" transform="translate(19.595 4.855)"><path id="路径_15497" class="st4" d="M-3735.1 1629.7h-2v-8h-2.9v-1.7h7.7v1.7h-2.8v8z"/><path id="路径_15498" class="st4" d="M-3729.5 1621.6h-1.9v-1.7h1.9v1.7zm0 8.1h-1.9v-7.2h1.9v7.2z"/><path id="路径_15499" class="st4" d="M-3727.5 1620h3.8c1.1-.1 2.3.3 3.1 1.1 1.6 2.2 1.6 5.2 0 7.4-.8.8-1.9 1.3-3.1 1.1h-3.8v-9.6zm3.8 8c1.5 0 2.2-1 2.2-3.2s-.7-3.2-2.2-3.2h-1.8v6.4h1.8z"/><path id="路径_15500" class="st4" d="M-3713.4 1629.7h-4.4v-9.7h4.3c2.5 0 3.2 1.7 3.2 2.5 0 .9-.5 1.6-1.3 2 .9.4 1.6 1.3 1.6 2.3 0 1.2-.6 2.9-3.4 2.9zm-2.3-5.9h2.2c.9 0 1.4-.4 1.4-1.1s-.5-1.1-1.4-1.1h-2.2v2.2zm0 4.2h2.4c1 0 1.5-.4 1.5-1.2s-.5-1.3-1.5-1.3h-2.4v2.5z"/></g><path id="路径_15501" class="st4" d="M-3731.6 1620l-8.4 4.8v9.7l8.4 4.8 8.4-4.8v-9.7l-8.4-4.8zm0 6.4v9.7l-2.8-1.6v-6.5l-2.8 1.6v-3.2l5.6-3.2 2.8 1.6-2.8 1.6zm5.6 6.5l-2.8 1.6v-6.5l2.8-1.6v6.5z"/></g></g><g class="st1"><path class="st5" d="M124.5 110.3v4.9h-8.1v25.6h-6.1v-25.6h-8.1v-4.9h22.3zM130.4 112.7c-.7-.7-1.1-1.5-1.1-2.6 0-1 .4-1.9 1.1-2.6.7-.7 1.6-1 2.7-1s2 .3 2.7 1c.7.7 1.1 1.5 1.1 2.6 0 1-.4 1.9-1.1 2.6-.7.7-1.6 1-2.7 1s-1.9-.3-2.7-1zm5.7 3.9v24.2H130v-24.2h6.1zM162.4 112.2c2.4 1.3 4.3 3 5.6 5.4 1.3 2.3 2 5 2 8.1 0 3.1-.7 5.7-2 8s-3.2 4.1-5.6 5.3c-2.4 1.3-5.3 1.9-8.5 1.9h-10.7v-30.5h10.7c3.2-.1 6.1.5 8.5 1.8zm-1.3 20.8c1.7-1.7 2.6-4.2 2.6-7.4s-.9-5.7-2.6-7.5c-1.7-1.8-4.2-2.7-7.4-2.7h-4.3v20.1h4.3c3.2.1 5.7-.8 7.4-2.5zM197.2 127.7c1.1 1.4 1.7 3 1.7 4.8 0 1.6-.4 3.1-1.2 4.3-.8 1.2-2 2.2-3.5 2.9-1.5.7-3.3 1-5.4 1h-13.2v-30.5h12.6c2.1 0 3.9.3 5.4 1 1.5.7 2.6 1.6 3.4 2.8.8 1.2 1.2 2.5 1.2 4.1 0 1.8-.5 3.3-1.4 4.5-.9 1.2-2.2 2-3.8 2.5 1.7.4 3.1 1.2 4.2 2.6zm-15.4-4.8h5.6c1.5 0 2.6-.3 3.4-1 .8-.7 1.2-1.6 1.2-2.8s-.4-2.2-1.2-2.8c-.8-.7-1.9-1-3.4-1h-5.6v7.6zm9.6 11.9c.8-.7 1.2-1.7 1.2-3s-.4-2.3-1.3-3.1c-.9-.7-2.1-1.1-3.5-1.1h-6v8.2h6.2c1.5 0 2.6-.3 3.4-1zM241.7 110.3v30.5h-6.1v-13h-13.1v13h-6.1v-30.5h6.1v12.5h13.1v-12.5h6.1zM248.7 122.1c1-1.9 2.3-3.3 4-4.4 1.7-1 3.5-1.5 5.6-1.5 1.8 0 3.4.4 4.7 1.1 1.4.7 2.4 1.6 3.3 2.8v-3.5h6.2v24.2h-6.2v-3.5c-.8 1.1-1.9 2.1-3.3 2.8-1.4.7-3 1.1-4.8 1.1-2 0-3.9-.5-5.6-1.6-1.7-1-3-2.5-4-4.4-1-1.9-1.5-4.1-1.5-6.6.1-2.4.6-4.6 1.6-6.5zm16.7 2.8c-.6-1.1-1.4-1.9-2.4-2.4-1-.6-2.1-.9-3.2-.9s-2.2.3-3.1.8c-1 .6-1.7 1.4-2.3 2.4-.6 1.1-.9 2.3-.9 3.8s.3 2.7.9 3.8c.6 1.1 1.4 1.9 2.4 2.5 1 .6 2 .9 3.1.9s2.2-.3 3.2-.9c1-.6 1.8-1.4 2.4-2.4.6-1.1.9-2.3.9-3.8-.1-1.5-.4-2.8-1-3.8zM279.5 122.1c1-1.9 2.4-3.3 4.2-4.4 1.8-1 3.9-1.6 6.2-1.6 3 0 5.5.8 7.5 2.3 2 1.5 3.3 3.6 4 6.3h-6.6c-.3-1-.9-1.9-1.8-2.5-.8-.6-1.9-.9-3.1-.9-1.7 0-3.1.6-4.2 1.9-1 1.3-1.5 3.1-1.5 5.4 0 2.3.5 4.1 1.5 5.4 1 1.3 2.4 1.9 4.2 1.9 2.5 0 4.1-1.1 4.9-3.3h6.6c-.7 2.6-2 4.7-4 6.2s-4.5 2.3-7.4 2.3c-2.3 0-4.4-.5-6.2-1.6-1.8-1-3.2-2.5-4.2-4.4-1-1.9-1.5-4.1-1.5-6.6-.2-2.3.4-4.5 1.4-6.4zM321.2 140.8l-8.2-10.3v10.3h-6.1v-32.3h6.1v18.4l8.1-10.3h8l-10.7 12.1 10.7 12.1h-7.9zM333.9 112.7c-.7-.7-1.1-1.5-1.1-2.6 0-1 .4-1.9 1.1-2.6.7-.7 1.6-1 2.7-1s2 .3 2.7 1c.7.7 1.1 1.5 1.1 2.6 0 1-.4 1.9-1.1 2.6-.7.7-1.6 1-2.7 1s-1.9-.3-2.7-1zm5.7 3.9v24.2h-6.1v-24.2h6.1zM367.2 119c1.8 1.8 2.7 4.4 2.7 7.6v14.2h-6.1v-13.4c0-1.9-.5-3.4-1.4-4.4-1-1-2.3-1.6-3.9-1.6-1.7 0-3 .5-4 1.6-1 1-1.5 2.5-1.5 4.4v13.4h-6.1v-24.2h6.1v3c.8-1 1.9-1.9 3.1-2.5 1.3-.6 2.7-.9 4.2-.9 2.8 0 5.1 1 6.9 2.8zM391 117.3c1.4.7 2.4 1.6 3.2 2.8v-3.5h6.2V141c0 2.2-.5 4.2-1.4 6-.9 1.8-2.3 3.2-4.1 4.2-1.8 1-4 1.6-6.6 1.6-3.4 0-6.3-.8-8.5-2.4-2.2-1.6-3.4-3.8-3.7-6.6h6.1c.3 1.1 1 2 2.1 2.6 1.1.7 2.4 1 3.9 1 1.8 0 3.2-.5 4.3-1.6 1.1-1.1 1.7-2.7 1.7-4.8v-3.8c-.8 1.1-1.9 2.1-3.3 2.8-1.4.8-3 1.1-4.7 1.1-2 0-3.9-.5-5.6-1.6-1.7-1-3-2.5-4-4.4-1-1.9-1.5-4.1-1.5-6.6 0-2.4.5-4.6 1.5-6.5 1-1.9 2.3-3.3 4-4.4 1.7-1 3.5-1.5 5.6-1.5 1.8.1 3.4.5 4.8 1.2zm2.3 7.6c-.6-1.1-1.4-1.9-2.4-2.4-1-.6-2.1-.9-3.2-.9s-2.2.3-3.1.8c-1 .6-1.7 1.4-2.3 2.4-.6 1.1-.9 2.3-.9 3.8s.3 2.7.9 3.8c.6 1.1 1.4 1.9 2.4 2.5 1 .6 2 .9 3.1.9s2.2-.3 3.2-.9c1-.6 1.8-1.4 2.4-2.4.6-1.1.9-2.3.9-3.8-.1-1.5-.4-2.8-1-3.8zM419.5 117.4c1.4-2.4 3.2-4.2 5.5-5.5s5-2 7.9-2c3.4 0 6.4.9 9 2.6 2.6 1.7 4.4 4.2 5.4 7.3h-7c-.7-1.5-1.7-2.5-2.9-3.3-1.3-.7-2.7-1.1-4.4-1.1-1.8 0-3.4.4-4.7 1.2-1.4.8-2.5 2-3.2 3.5-.8 1.5-1.2 3.3-1.2 5.3s.4 3.8 1.2 5.3c.8 1.5 1.8 2.7 3.2 3.5 1.4.8 3 1.2 4.7 1.2 1.7 0 3.1-.4 4.4-1.1 1.3-.7 2.3-1.8 2.9-3.3h7c-1 3.1-2.8 5.5-5.4 7.3-2.5 1.7-5.5 2.6-9 2.6-2.9 0-5.5-.7-7.9-2s-4.2-3.2-5.5-5.5c-1.4-2.4-2-5-2-8 0-2.9.6-5.6 2-8zM453.5 122.1c1-1.9 2.3-3.3 4-4.4 1.7-1 3.5-1.5 5.6-1.5 1.8 0 3.4.4 4.7 1.1 1.4.7 2.4 1.6 3.3 2.8v-3.5h6.2v24.2h-6.2v-3.5c-.8 1.1-1.9 2.1-3.3 2.8-1.4.7-3 1.1-4.8 1.1-2 0-3.9-.5-5.6-1.6-1.7-1-3-2.5-4-4.4-1-1.9-1.5-4.1-1.5-6.6.1-2.4.6-4.6 1.6-6.5zm16.7 2.8c-.6-1.1-1.4-1.9-2.4-2.4-1-.6-2.1-.9-3.2-.9s-2.2.3-3.1.8c-1 .6-1.7 1.4-2.3 2.4-.6 1.1-.9 2.3-.9 3.8s.3 2.7.9 3.8c.6 1.1 1.4 1.9 2.4 2.5 1 .6 2 .9 3.1.9s2.2-.3 3.2-.9c1-.6 1.8-1.4 2.4-2.4.6-1.1.9-2.3.9-3.8-.1-1.5-.4-2.8-1-3.8zM521.6 119c1.8 1.8 2.7 4.4 2.7 7.6v14.2h-6.1v-13.4c0-1.9-.5-3.3-1.4-4.3-1-1-2.3-1.5-3.9-1.5-1.7 0-3 .5-4 1.5s-1.5 2.5-1.5 4.3v13.4h-6.1v-13.4c0-1.9-.5-3.3-1.4-4.3-1-1-2.3-1.5-3.9-1.5-1.7 0-3 .5-4 1.5s-1.5 2.5-1.5 4.3v13.4h-6.1v-24.2h6.1v2.9c.8-1 1.8-1.8 3-2.4 1.2-.6 2.6-.9 4.1-.9 1.9 0 3.6.4 5.1 1.2 1.5.8 2.6 1.9 3.5 3.4.8-1.4 1.9-2.5 3.4-3.4 1.5-.8 3.1-1.3 4.9-1.3 2.9.1 5.3 1.1 7.1 2.9zM540.6 117.3c1.4-.7 3-1.1 4.7-1.1 2.1 0 3.9.5 5.6 1.5 1.7 1 3 2.5 4 4.3 1 1.9 1.5 4.1 1.5 6.5 0 2.5-.5 4.7-1.5 6.6-1 1.9-2.3 3.4-4 4.4-1.7 1-3.5 1.6-5.6 1.6-1.8 0-3.3-.4-4.7-1.1-1.4-.7-2.5-1.6-3.3-2.8v15h-6.1v-35.7h6.1v3.5c.8-1 1.9-1.9 3.3-2.7zm8.6 7.5c-.6-1.1-1.4-1.9-2.4-2.4-1-.6-2-.8-3.2-.8-1.1 0-2.1.3-3.1.9-1 .6-1.8 1.4-2.4 2.5-.6 1.1-.9 2.3-.9 3.8s.3 2.7.9 3.8c.6 1.1 1.4 1.9 2.4 2.5 1 .6 2 .9 3.1.9s2.2-.3 3.2-.9c1-.6 1.8-1.4 2.4-2.5.6-1.1.9-2.4.9-3.8 0-1.6-.3-2.9-.9-4zM574.6 133.9c2.8-2.3 5-4.3 6.7-5.8 1.7-1.6 3-3.2 4.2-4.9 1.1-1.7 1.7-3.3 1.7-5 0-1.5-.3-2.6-1-3.5-.7-.8-1.8-1.3-3.2-1.3-1.5 0-2.6.5-3.4 1.5-.8 1-1.2 2.3-1.2 4h-5.9c.1-3.5 1.2-6.1 3.1-8 2-1.8 4.5-2.7 7.5-2.7 3.3 0 5.9.9 7.6 2.6 1.8 1.8 2.7 4.1 2.7 7 0 2.3-.6 4.4-1.8 6.5-1.2 2.1-2.6 3.9-4.2 5.4-1.6 1.5-3.6 3.4-6.2 5.5H594v5.1h-21.6v-4.5l2.2-1.9zM601.6 112.6c1.8-2.9 4.8-4.3 9.1-4.3 4.2 0 7.2 1.4 9.1 4.3 1.8 2.9 2.7 6.8 2.7 11.8 0 5.1-.9 9-2.7 11.9-1.8 2.9-4.8 4.3-9.1 4.3-4.2 0-7.2-1.4-9.1-4.3s-2.7-6.9-2.7-11.9.9-8.9 2.7-11.8zM616 119c-.3-1.5-.8-2.7-1.7-3.6-.8-.9-2.1-1.4-3.7-1.4s-2.9.5-3.7 1.4c-.8.9-1.4 2.1-1.7 3.6-.3 1.5-.4 3.3-.4 5.4 0 2.2.1 4.1.4 5.6.3 1.5.8 2.7 1.7 3.6.8.9 2.1 1.4 3.7 1.4s2.9-.5 3.7-1.4c.8-.9 1.4-2.1 1.7-3.6.3-1.5.4-3.4.4-5.6.1-2.1-.1-3.9-.4-5.4zM630.1 133.9c2.8-2.3 5-4.3 6.7-5.8 1.7-1.6 3-3.2 4.2-4.9 1.1-1.7 1.7-3.3 1.7-5 0-1.5-.3-2.6-1-3.5-.7-.8-1.8-1.3-3.2-1.3-1.5 0-2.6.5-3.4 1.5-.8 1-1.2 2.3-1.2 4H628c.1-3.5 1.2-6.1 3.1-8 2-1.8 4.5-2.7 7.5-2.7 3.3 0 5.9.9 7.6 2.6 1.8 1.8 2.7 4.1 2.7 7 0 2.3-.6 4.4-1.8 6.5-1.2 2.1-2.6 3.9-4.2 5.4-1.6 1.5-3.6 3.4-6.2 5.5h12.9v5.1H628v-4.5l2.1-1.9zM653.7 114.6V109h10.5v31.9h-6.3v-26.2h-4.2z"/></g><g id="组_5099" transform="translate(3350.159 -1664.57)"><g id="组_4649" transform="translate(491.944 238.584)" opacity=".7"><path id="路径_15571" class="st7" d="M-3739.8 1780.3c0 .6.5 1 1 1l560.6-.9c.6 0 1-.5 1-1 0-.6-.5-1-1-1l-560.6.9c-.6 0-1 .5-1 1z"/><path id="路径_15572" class="st7" d="M-3739.9 1751.5c0 .6.5 1 1 1l560.6-.9c.6 0 1-.5 1-1.1 0-.5-.5-1-1-1l-560.6.9c-.5 0-1 .5-1 1.1z"/><path id="路径_15573" class="st7" d="M-3739.9 1722.6c0 .6.5 1 1 1l560.6-.9c.6 0 1-.4 1.1-1 0-.6-.4-1-1-1.1h-.1l-560.6.9c-.5.1-1 .5-1 1.1z"/><path id="路径_15574" class="st7" d="M-3740 1693.8c0 .6.5 1 1 1l560.6-.9c.6 0 1-.5 1-1.1 0-.5-.5-1-1-1l-560.6.9c-.5 0-1 .5-1 1.1 0-.1 0 0 0 0z"/><path id="路径_15575" class="st7" d="M-3740 1664.9c0 .6.5 1 1 1l560.6-.9c.6 0 1-.4 1.1-1 0-.6-.4-1-1-1.1h-.1l-560.6.9c-.5.1-1 .5-1 1.1z"/><g id="组_4648" transform="translate(46.139)"><path id="路径_15576" class="st7" d="M-3271.9 1615.2l.3 193.2c0 .6.5 1 1 1 .6 0 1-.5 1-1l-.3-193.2c0-.6-.5-1-1-1-.5-.1-1 .4-1 1z"/><path id="路径_15577" class="st7" d="M-3301.1 1615.2l.3 193.2c0 .6.4 1 1 1.1s1-.4 1.1-1v-.1l-.3-193.2c0-.6-.4-1-1-1.1-.6 0-1.1.5-1.1 1.1z"/><path id="路径_15578" class="st7" d="M-3330.4 1615.2l.3 193.2c0 .6.5 1 1 1s1-.5 1-1l-.3-193.2c0-.6-.4-1-1-1.1-.5.1-1 .5-1 1.1z"/><path id="路径_15579" class="st7" d="M-3359.6 1615.3l.3 193.2c0 .6.5 1 1.1 1 .5 0 1-.5 1-1l-.3-193.2c0-.6-.5-1-1-1-.7 0-1.1.4-1.1 1z"/><path id="路径_15580" class="st7" d="M-3388.9 1615.3l.3 193.2c0 .6.5 1 1.1 1 .5 0 1-.5 1-1l-.3-193.2c0-.6-.5-1-1.1-1-.6.1-1 .5-1 1z"/><path id="路径_15581" class="st7" d="M-3418.2 1615.4l.3 193.2c0 .6.5 1 1.1 1 .5 0 1-.5 1-1l-.3-193.2c0-.6-.5-1-1-1s-1.1.4-1.1 1z"/><path id="路径_15582" class="st7" d="M-3447.4 1615.4l.3 193.2c0 .6.5 1 1 1 .6 0 1-.5 1-1l-.3-193.2c0-.6-.5-1-1.1-1-.5 0-.9.5-.9 1z"/><path id="路径_15583" class="st7" d="M-3476.7 1615.5l.3 193.2c0 .6.5 1 1.1 1 .5 0 1-.5 1-1l-.3-193.2c0-.6-.4-1-1-1.1-.6 0-1.1.4-1.1 1.1 0-.1 0 0 0 0z"/><path id="路径_15584" class="st7" d="M-3505.9 1615.5l.3 193.2c0 .6.5 1 1 1s1-.5 1-1l-.3-193.2c0-.6-.4-1-1-1.1s-1 .5-1 1.1z"/><path id="路径_15585" class="st7" d="M-3535.2 1615.6l.3 193.2c0 .6.4 1 1 1.1.6 0 1-.4 1.1-1v-.1l-.3-193.2c0-.6-.4-1-1-1.1s-1.1.4-1.1 1.1c0-.1 0-.1 0 0z"/><path id="路径_15586" class="st7" d="M-3564.5 1615.6l.3 193.2c0 .6.5 1 1.1 1 .5 0 1-.5 1-1l-.3-193.2c0-.6-.4-1-1-1.1-.6 0-1 .5-1.1 1.1z"/><path id="路径_15587" class="st7" d="M-3593.7 1615.7l.3 193.2c0 .6.5 1 1.1 1 .5 0 1-.5 1-1l-.3-193.2c0-.6-.5-1-1-1-.7-.1-1.1.4-1.1 1z"/><path id="路径_15588" class="st7" d="M-3623 1615.7l.3 193.2c0 .6.4 1 1 1.1.6 0 1-.4 1.1-1v-.1l-.3-193.2c0-.6-.4-1-1-1.1s-1.1.5-1.1 1.1z"/><path id="路径_15589" class="st7" d="M-3652.2 1615.7l.3 193.2c0 .6.4 1 1 1.1.6 0 1-.4 1.1-1v-.1l-.3-193.2c0-.6-.4-1-1-1.1-.6.1-1.1.5-1.1 1.1z"/><path id="路径_15590" class="st7" d="M-3681.5 1615.8l.3 193.2c0 .6.5 1 1.1 1 .5 0 1-.5 1-1l-.3-193.2c0-.6-.5-1-1.1-1-.5 0-1 .4-1 1z"/><path id="路径_15591" class="st7" d="M-3710.7 1615.8l.3 193.2c0 .6.5 1 1.1 1 .5 0 1-.5 1-1l-.3-193.2c0-.6-.5-1-1.1-1-.6.1-1 .5-1 1z"/><path id="路径_15592" class="st7" d="M-3740 1615.9l.3 193.2c0 .6.5 1 1.1 1 .5 0 1-.5 1-1l-.3-193.2c0-.6-.5-1-1.1-1-.5 0-1 .4-1 1z"/></g></g><path id="路径_15593" class="st8" d="M-3142.3 1918.8c23.3 0 42.3 18.8 42.3 42.2s-18.8 42.3-42.2 42.3c-23.3 0-42.3-18.8-42.3-42.2 0-23.3 18.9-42.2 42.2-42.3zm0 20.7c-11.9 0-21.6 9.7-21.6 21.6s9.7 21.6 21.6 21.6c11.9 0 21.6-9.7 21.6-21.6.1-12-9.6-21.6-21.6-21.6z"/><path id="矩形_4096" transform="translate(-3.038 -4.507)" class="st9" d="M-2979.8 1931.9h87.2v87.2h-87.2z"/><path id="路径_15594" class="st10" d="M-2906.3 1975.4c0 16.5-13.3 29.9-29.8 29.9s-29.9-13.3-29.9-29.8 13.3-29.9 29.8-29.9 29.9 13.3 29.9 29.8z"/><g id="组_4669" transform="translate(703.709 324.909)"><path id="矩形_4097" transform="rotate(-45.082 -3729.235 1624.893)" class="st11" d="M-3736.8 1617.3h15.3v15.3h-15.3z"/><path id="矩形_4098" transform="rotate(-45.082 -3729.19 1654.152)" class="st5" d="M-3736.8 1646.5h15.3v15.3h-15.3z"/><path id="矩形_4099" transform="rotate(-45.09 -3729.073 1683.333)" class="st11" d="M-3736.7 1675.8h15.3v15.3h-15.3z"/></g><g id="组_4650" transform="translate(538.245 272.088)"><path id="路径_15595" class="st4" d="M-3702.7 1614.7v44.9h-9v-19.1h-19.2v19.1h-9v-44.9h9v18.5h19.2v-18.5h9z"/><path id="路径_15596" class="st4" d="M-3666.3 1651.1h-17.9l-3 8.6h-9.5l16.1-45h10.5l16.2 45h-9.5l-2.9-8.6zm-2.5-7.2l-6.5-18.8-6.5 18.8h13z"/><path id="路径_15597" class="st4" d="M-3647 1625.2c1.9-3.4 4.7-6.3 8.2-8.2 3.5-2 7.6-3 11.6-2.9 4.7-.1 9.3 1.3 13.2 3.9 3.8 2.6 6.6 6.3 7.9 10.7h-10.4c-.9-2-2.4-3.7-4.3-4.8-2-1.1-4.2-1.7-6.5-1.6-2.5 0-4.9.6-7 1.8-2.1 1.2-3.7 3-4.8 5.2-2.3 5-2.3 10.7 0 15.7 1.1 2.2 2.7 4 4.8 5.2 2.1 1.2 4.5 1.9 7 1.8 2.3 0 4.5-.5 6.5-1.6 1.9-1.1 3.4-2.8 4.3-4.9h10.4c-1.3 4.4-4.1 8.1-7.9 10.7-7.5 4.8-17 5.1-24.8.9-3.4-1.9-6.2-4.7-8.2-8.1-4-7.5-4-16.4 0-23.8z"/><path id="路径_15598" class="st4" d="M-3573 1659.6l-16.3-20v20h-9v-44.9h9v20.1l16.3-20.1h10.9l-18.5 22.3 19 22.7-11.4-.1z"/><path id="路径_15599" class="st4" d="M-3546.7 1614.7v44.9h-9v-44.9h9z"/><path id="路径_15600" class="st4" d="M-3499.4 1659.6h-9l-20.4-30.8v30.8h-9v-45h9l20.4 30.9v-30.9h9v45z"/><path id="路径_15601" class="st4" d="M-3459.2 1628.2c-1-1.8-2.4-3.3-4.2-4.3-1.9-1-4.1-1.5-6.3-1.5-2.5 0-4.9.6-7.1 1.8-2.1 1.2-3.7 3-4.8 5.1-2.3 4.9-2.3 10.7 0 15.6 1.1 2.2 2.8 3.9 4.9 5.1 2.2 1.2 4.8 1.9 7.3 1.8 3 .1 6-.8 8.4-2.7 2.3-2 3.8-4.7 4.3-7.6h-15.4v-6.9h24.3v7.9c-.6 3.2-1.9 6.1-3.9 8.7-2 2.7-4.6 4.9-7.6 6.4-3.2 1.6-6.8 2.5-10.5 2.4-4.1.1-8.1-.9-11.7-2.9-3.4-1.9-6.3-4.7-8.2-8.1-4-7.4-4-16.3 0-23.7 1.9-3.4 4.8-6.3 8.2-8.2 7.8-4.2 17.3-3.9 24.9.8 3.7 2.4 6.5 6.1 7.7 10.4l-10.3-.1z"/></g><g id="组_4651" transform="translate(817.909 330.073)"><path id="路径_15602" class="st4" d="M-3737 1625.2c1.9-3.4 4.7-6.3 8.2-8.2 3.5-2 7.6-3 11.6-2.9 4.7-.1 9.3 1.3 13.2 3.9 3.8 2.6 6.6 6.3 7.9 10.7h-10.4c-.9-2-2.4-3.7-4.3-4.8-2-1.1-4.2-1.7-6.5-1.6-2.5 0-4.9.6-7 1.8-2.1 1.2-3.7 3-4.8 5.2-2.3 5-2.3 10.7 0 15.7 1.1 2.2 2.7 4 4.8 5.2 2.1 1.2 4.5 1.9 7 1.8 2.3 0 4.5-.5 6.5-1.6 1.9-1.1 3.4-2.8 4.3-4.9h10.4c-1.3 4.4-4.1 8.1-7.9 10.7-3.9 2.6-8.5 3.9-13.2 3.8-4.1.1-8.1-1-11.6-2.9-3.4-1.9-6.2-4.7-8.2-8.1-4-7.5-4-16.4 0-23.8z"/><path id="路径_15603" class="st4" d="M-3660.8 1651.1h-17.9l-3 8.6h-9.5l16.2-45h10.5l16.2 45h-9.5l-3-8.6zm-2.5-7.2l-6.5-18.8-6.5 18.8h13z"/><path id="路径_15604" class="st4" d="M-3593.3 1614.7v44.9h-9v-29.2l-12 29.2h-6.8l-12.1-29.2v29.2h-9v-44.9h10.2l14.3 33.4 14.3-33.4h10.1z"/><path id="路径_15605" class="st4" d="M-3553.4 1635.4c-1.2 2.2-3.1 4-5.3 5.1-2.9 1.4-6 2-9.2 1.9h-7.5v17.2h-9v-44.9h16.5c3.1-.1 6.1.5 8.9 1.8 2.3 1.1 4.2 2.8 5.5 5 2.4 4.3 2.4 9.5.1 13.9zm-9.4-2c1.3-1.3 1.9-3 1.8-4.8 0-4.4-2.4-6.6-7.3-6.6h-7.1v13.1h7.1c2.5 0 4.3-.6 5.5-1.7z"/></g><g id="组_4652" transform="translate(948.647 233.302)"><path id="路径_15606" class="st10" d="M-3740 1656.2c0-23.2 18.7-42 41.9-42l.1 83.9c-23.1 0-42-18.7-42-41.9z"/><path id="路径_15607" class="st9" d="M-3709.2 1656.2c0-23.2 18.7-42 41.9-42l.1 83.9c-23.1 0-41.9-18.8-42-41.9z"/><path id="路径_15608" class="st8" d="M-3698 1684.6l-.1-56.9c-14.8 16.1-14.7 40.8.1 56.9z"/></g><g id="组_4655" transform="translate(860.677 271.861)"><path id="路径_15612" class="st5" d="M-3704 1621.4v12.4h-12.2v-12.4h-5.2v30.4h5.2v-13.2h12.2v13.2h5.2v-30.4h-5.2z"/><g id="组_4654"><path id="路径_15613" class="st8" d="M-3734.2 1615.9c-1.2 1.4-1.7 3.2-1.6 5v8.6c0 .7-.1 1.4-.3 2.1-.2.6-.5 1.1-.8 1.6-.3.4-.7.8-1.2 1-.4.2-.8.4-1.3.4h-.6v4.1h.6c.5 0 .9.2 1.3.4s.8.6 1.2 1c.4.5.7 1 .8 1.6.2.7.3 1.4.3 2.1v8.6c-.1 1.8.5 3.6 1.6 5 1 1.1 2.4 1.8 4 1.8h3.7v-4h-2.9c-.3 0-.5-.1-.8-.2-.2-.2-.4-.4-.5-.7-.2-.4-.3-.8-.3-1.2-.1-.5-.1-.9-.1-1.4v-8.6c0-1.1-.2-2.2-.5-3.2-.3-.8-.7-1.5-1.3-2.1-.4-.5-.9-.8-1.4-1.1.6-.3 1-.7 1.5-1.2 1.2-1.4 1.9-3.2 1.8-5.1v-8.6c0-.5 0-.9.1-1.4 0-.4.1-.8.3-1.1.1-.3.3-.5.5-.7.2-.2.5-.2.8-.2h2.9v-4h-3.7c-1.6-.3-3.1.4-4.1 1.5z"/><path id="路径_15614" class="st8" d="M-3680.7 1634.5c-.5 0-.9-.2-1.3-.4-.5-.3-.9-.6-1.2-1-.4-.5-.7-1-.8-1.6-.2-.7-.3-1.4-.3-2.1v-8.6c.1-1.8-.5-3.6-1.6-5-1-1.1-2.4-1.8-4-1.8h-3.7v4h2.9c.3 0 .5.1.8.2.2.2.4.4.5.7.2.4.3.7.3 1.1.1.5.1.9.1 1.4v8.6c-.1 1.9.6 3.7 1.8 5.1.4.5.9.9 1.5 1.2-.5.3-1 .7-1.4 1.1-.5.6-1 1.3-1.3 2.1-.4 1-.6 2.1-.5 3.2v8.6c0 .5 0 .9-.1 1.4 0 .4-.2.8-.3 1.2-.1.3-.3.5-.5.7-.2.2-.5.2-.8.2h-2.9v4h3.7c1.5 0 3-.6 4-1.8 1.2-1.4 1.7-3.2 1.6-5v-8.6c0-.7.1-1.4.3-2.1.2-.6.5-1.1.8-1.6.3-.4.7-.7 1.2-1 .4-.2.9-.4 1.3-.4h.6v-4.1l-.7.3z"/></g></g><g id="组_4656" transform="translate(940.447 395.925)"><circle id="椭圆_111" class="st5" cx="-3731.6" cy="1622.6" r="8.4"/><circle id="椭圆_112" class="st5" cx="-3673.1" cy="1622.6" r="8.4"/><circle id="椭圆_113" class="st11" cx="-3702.8" cy="1622.6" r="8.4"/></g></g></svg>