<svg version="1.1" id="图层_1" xmlns="http://www.w3.org/2000/svg" x="0" y="0" viewBox="0 0 1680 480" xml:space="preserve"><style>.st2{fill:#ffab00}.st3{fill:#ff6d78}.st4{fill:#4450e6}.st6{fill:#6067ef}.st7{fill:#00e561}.st8{fill:#55f6fb}.st9{fill:#fff}.st10{enable-background:new}.st11{fill:#35e561}.st12{fill:none;stroke:#fff;stroke-width:2}</style><g id="组_5097" transform="translate(-1990 1178)"><g id="组_58" transform="translate(1990 -1178)" fill="#181e2f"><path id="矩形_21" d="M0 0h1680v480H0z"/><path id="矩形_23" opacity=".5" d="M0 0h1680v480H0z"/></g><g id="组_4653" transform="translate(2150 -886.394)"><path id="路径_15609" class="st2" d="M94.1 54.1c0 29.9-24.2 54.2-54.1 54.3L39.8 0c30 0 54.3 24.2 54.3 54.1z"/><path id="路径_15610" class="st3" d="M54.3 54.2c0 29.9-24.2 54.2-54.1 54.3L0 .1C29.9 0 54.2 24.2 54.3 54.2z"/><path id="路径_15611" class="st4" d="M39.9 17.5l.1 73.4c19.1-20.7 19-52.7-.1-73.4z"/></g><g id="组_4668" transform="translate(1962.955 -1199.633)"><g id="组_4649" transform="translate(491.944 240.343)" opacity=".7"><path id="路径_15571" class="st6" d="M.2 221.5c0 .8.6 1.4 1.4 1.4l747.2-1.2c.8 0 1.4-.7 1.3-1.4 0-.7-.6-1.3-1.3-1.3L1.6 220.2c-.7 0-1.4.6-1.4 1.3z"/><path id="路径_15572" class="st6" d="M.2 183.1c0 .8.6 1.4 1.4 1.4l747.2-1.2c.8 0 1.4-.6 1.4-1.4 0-.8-.6-1.4-1.4-1.4L1.6 181.7c-.8 0-1.4.6-1.4 1.4z"/><path id="路径_15573" class="st6" d="M.1 144.6c0 .8.6 1.4 1.4 1.4l747.2-1.2c.8 0 1.4-.6 1.4-1.4 0-.8-.6-1.4-1.4-1.4L1.5 143.2c-.8 0-1.4.6-1.4 1.4z"/><path id="路径_15574" class="st6" d="M.1 106.1c0 .8.6 1.4 1.4 1.4l747.2-1.1c.8 0 1.4-.6 1.4-1.4 0-.8-.6-1.4-1.4-1.4L1.4 104.8c-.7 0-1.3.6-1.3 1.3z"/><path id="路径_15575" class="st6" d="M0 67.7c0 .7.6 1.3 1.4 1.3l747.2-1.1c.8 0 1.4-.6 1.4-1.4 0-.8-.6-1.4-1.4-1.4L1.4 66.3c-.8 0-1.4.6-1.4 1.4z"/><g id="组_4648" transform="translate(61.503)"><path id="路径_15576" class="st6" d="M624 1.4l.4 257.6c0 .8.6 1.4 1.4 1.4s1.4-.6 1.4-1.4l-.4-257.6c0-.8-.6-1.4-1.4-1.4s-1.4.6-1.4 1.4z"/><path id="路径_15577" class="st6" d="M585 1.4l.4 257.6c0 .8.6 1.4 1.4 1.4s1.4-.6 1.4-1.4l-.4-257.6c0-.8-.6-1.4-1.4-1.4s-1.4.7-1.4 1.4z"/><path id="路径_15578" class="st6" d="M546 1.5l.4 257.6c0 .8.6 1.4 1.3 1.4s1.4-.6 1.4-1.3v-.1l-.3-257.6c0-.8-.6-1.4-1.4-1.4s-1.4.6-1.4 1.4z"/><path id="路径_15579" class="st6" d="M507 1.6l.4 257.6c0 .8.6 1.4 1.4 1.4s1.4-.6 1.4-1.4l-.4-257.6c0-.8-.6-1.4-1.4-1.4s-1.4.6-1.4 1.4z"/><path id="路径_15580" class="st6" d="M468 1.6l.4 257.6c0 .8.6 1.4 1.4 1.4s1.4-.6 1.4-1.4l-.4-257.6c0-.8-.6-1.4-1.4-1.4s-1.4.7-1.4 1.4z"/><path id="路径_15581" class="st6" d="M429 1.7l.4 257.6c0 .8.6 1.4 1.4 1.4s1.4-.6 1.4-1.4l-.4-257.6c0-.8-.6-1.4-1.3-1.4-.8-.1-1.5.5-1.5 1.4 0-.1 0-.1 0 0z"/><path id="路径_15582" class="st6" d="M390 1.7l.4 257.6c0 .8.6 1.4 1.4 1.4s1.4-.6 1.4-1.4l-.4-257.6c0-.8-.6-1.4-1.4-1.4S390 1 390 1.7z"/><path id="路径_15583" class="st6" d="M351 1.8l.4 257.6c0 .8.6 1.4 1.4 1.4.8 0 1.4-.6 1.4-1.4l-.4-257.6c0-.8-.6-1.4-1.4-1.4-.8 0-1.4.6-1.4 1.4z"/><path id="路径_15584" class="st6" d="M312 1.9l.4 257.6c0 .8.6 1.4 1.3 1.4s1.4-.6 1.4-1.3v-.1l-.3-257.6c0-.8-.6-1.4-1.4-1.4-.8 0-1.4.6-1.4 1.4 0-.1 0 0 0 0z"/><path id="路径_15585" class="st6" d="M273 1.9l.4 257.6c0 .8.6 1.4 1.4 1.4.8 0 1.4-.6 1.4-1.4l-.4-257.6c0-.8-.6-1.4-1.4-1.4-.8 0-1.4.6-1.4 1.4z"/><path id="路径_15586" class="st6" d="M234 2l.4 257.6c0 .8.6 1.4 1.4 1.4.8 0 1.4-.6 1.4-1.4L236.8 2c0-.8-.6-1.4-1.4-1.4-.8 0-1.4.6-1.4 1.4z"/><path id="路径_15587" class="st6" d="M195 2l.4 257.6c0 .8.6 1.4 1.4 1.4.8 0 1.4-.6 1.4-1.4L197.8 2c0-.8-.6-1.4-1.4-1.4-.8.1-1.4.7-1.4 1.4z"/><path id="路径_15588" class="st6" d="M156 2.1l.4 257.6c0 .8.6 1.4 1.4 1.4.8 0 1.4-.6 1.4-1.4l-.4-257.6c0-.8-.6-1.4-1.4-1.4-.8 0-1.4.6-1.4 1.4z"/><path id="路径_15589" class="st6" d="M117 2.2l.4 257.6c0 .8.6 1.4 1.4 1.4.8 0 1.4-.6 1.4-1.4l-.4-257.6c0-.8-.6-1.4-1.4-1.4-.8 0-1.4.6-1.4 1.4 0-.1 0-.1 0 0z"/><path id="路径_15590" class="st6" d="M78 2.2l.4 257.6c0 .8.6 1.4 1.4 1.4.8 0 1.4-.6 1.4-1.4L80.7 2.2c0-.8-.6-1.4-1.4-1.4-.7 0-1.3.7-1.3 1.4z"/><path id="路径_15591" class="st6" d="M39 2.3l.4 257.6c0 .8.6 1.4 1.4 1.4.8 0 1.4-.6 1.4-1.4L41.7 2.3c0-.8-.6-1.4-1.4-1.4-.7 0-1.3.6-1.3 1.4z"/><path id="路径_15592" class="st6" d="M0 2.3l.4 257.6c0 .8.6 1.4 1.4 1.4.8 0 1.4-.6 1.4-1.4L2.7 2.3c0-.7-.6-1.3-1.3-1.3C.6 1 0 1.6 0 2.3z"/></g></g><path id="路径_15593" class="st3" d="M632.9 328.5c31.1 0 56.3 25.1 56.4 56.2 0 31.1-25.1 56.3-56.2 56.4-31.1 0-56.3-25.1-56.4-56.2 0-31.1 25.2-56.3 56.2-56.4zm.1 27.5c-15.9 0-28.8 12.9-28.8 28.9 0 15.9 12.9 28.8 28.9 28.8 15.9 0 28.8-12.9 28.8-28.9-.1-16-13-28.8-28.9-28.8z"/><path id="矩形_4096" transform="translate(-.62 1.395)" class="st2" d="M849.6 345.9h116.2v116.2H849.6z"/><path id="路径_15594" class="st4" d="M947.5 403.9c0 22-17.8 39.8-39.7 39.9-22 0-39.8-17.8-39.9-39.7 0-22 17.8-39.8 39.7-39.9 22 0 39.9 17.8 39.9 39.7z"/><g id="组_4669"><path id="矩形_4097" transform="rotate(-45.082 788.62 369.815)" class="st7" d="M778.4 359.6h20.4V380h-20.4z"/><path id="矩形_4098" transform="rotate(-45.082 788.681 408.816)" class="st8" d="M778.5 398.6h20.4V419h-20.4z"/><path id="矩形_4099" transform="rotate(-45.09 788.714 447.815)" class="st7" d="M778.6 437.6H799V458h-20.4z"/></g><g id="组_4650" transform="translate(553.664 285.003)"><path id="路径_15595" class="st9" d="M49.7.8v59.9h-12V35.2H12v25.5H0V.8h12v24.6h25.6V.8h12.1z"/><path id="路径_15596" class="st9" d="M98.2 49.2H74.4l-3.9 11.4H57.8L79.3.6h14l21.5 60h-12.7l-3.9-11.4zM95 39.6l-8.7-25-8.7 25H95z"/><path id="路径_15597" class="st9" d="M124 14.8c2.6-4.6 6.3-8.3 10.9-10.9 4.7-2.6 10.1-4 15.5-3.9 6.3-.1 12.4 1.7 17.6 5.1 5 3.4 8.7 8.4 10.5 14.2h-13.8c-1.2-2.7-3.2-4.9-5.8-6.4-2.6-1.5-5.6-2.2-8.6-2.1-3.3-.1-6.5.8-9.3 2.4-2.7 1.6-4.9 4-6.3 6.9-3 6.6-3 14.3 0 20.9 1.4 2.9 3.6 5.3 6.3 6.9 2.8 1.7 6 2.5 9.3 2.4 3 .1 6-.7 8.6-2.2 2.5-1.5 4.6-3.8 5.8-6.5h13.8c-1.8 5.8-5.5 10.9-10.5 14.3-10 6.3-22.7 6.8-33.1 1.2-4.6-2.6-8.3-6.3-10.9-10.9-5.3-9.7-5.3-21.5 0-31.4z"/><path id="路径_15598" class="st9" d="M222.6 60.7L200.8 34v26.7h-12V.8h12v26.9L222.6.8h14.5l-24.7 29.7 25.4 30.2h-15.2z"/><path id="路径_15599" class="st9" d="M257.7.8v59.9h-12V.8h12z"/><path id="路径_15600" class="st9" d="M320.7 60.6h-12l-27.2-41.1v41.1h-12V.6h12l27.2 41.2V.7h12v59.9z"/><path id="路径_15601" class="st9" d="M374.3 18.8c-1.3-2.4-3.3-4.4-5.7-5.7-2.6-1.4-5.5-2-8.4-2-3.3-.1-6.6.8-9.4 2.4-2.8 1.6-5 4-6.4 6.9-3.1 6.6-3.1 14.2 0 20.8 1.5 2.9 3.8 5.3 6.6 6.9 3 1.6 6.4 2.5 9.8 2.4 4.1.2 8-1.1 11.2-3.6 3-2.6 5.1-6.2 5.7-10.2h-20.6v-9.2h32.4V38c-.8 4.2-2.6 8.2-5.1 11.6-2.7 3.6-6.2 6.5-10.2 8.5-4.3 2.2-9.1 3.3-13.9 3.2-5.5.1-10.9-1.3-15.7-3.9-4.6-2.5-8.4-6.3-11-10.9-5.3-9.9-5.3-21.7 0-31.6 2.6-4.6 6.4-8.4 11-10.9 10.5-5.6 23.1-5.2 33.2 1 5 3.3 8.6 8.2 10.3 13.9l-13.8-.1z"/></g><g id="组_4651" transform="translate(926.454 362.298)"><path id="路径_15602" class="st9" d="M4 14.8c2.6-4.6 6.3-8.3 10.9-10.9C19.6 1.3 25-.1 30.4 0 36.6-.1 42.8 1.7 48 5.1c5 3.4 8.7 8.4 10.6 14.2H44.7c-1.2-2.7-3.2-4.9-5.8-6.4-2.6-1.5-5.6-2.2-8.6-2.1-3.3-.1-6.5.8-9.3 2.4-2.7 1.6-4.9 4-6.3 6.9-3 6.6-3 14.3 0 20.9 1.4 2.9 3.6 5.3 6.3 6.9 2.8 1.7 6 2.5 9.3 2.4 3 .1 6-.7 8.6-2.2 2.5-1.5 4.6-3.8 5.8-6.5h13.8c-1.8 6-5.5 11-10.5 14.5-5.2 3.5-11.4 5.2-17.6 5.1-5.4.1-10.8-1.3-15.5-3.9C10.3 54.7 6.6 51 4 46.4c-5.3-9.9-5.3-21.7 0-31.6z"/><path id="路径_15603" class="st9" d="M105.5 49.2H81.7l-3.9 11.4H65.1L86.6.6h14l21.5 60h-12.7l-3.9-11.4zm-3.2-9.6l-8.7-25-8.7 25h17.4z"/><path id="路径_15604" class="st9" d="M195.5.8v59.9h-12v-39l-16 38.9h-9.1l-16.1-38.9v38.9h-12V.8h13.6l19 44.5 19-44.5h13.6z"/><path id="路径_15605" class="st9" d="M248.7 28.3c-1.6 2.9-4.1 5.3-7.1 6.8-3.8 1.8-8 2.7-12.2 2.6h-10v23h-12V.8h22c4.1-.1 8.1.7 11.8 2.4 3.1 1.4 5.6 3.7 7.3 6.6 3.3 5.7 3.3 12.7.2 18.5zm-12.5-2.6c1.7-1.7 2.5-4 2.4-6.4 0-5.8-3.3-8.7-9.8-8.7h-9.5V28h9.5c3.4 0 5.8-.8 7.4-2.3z"/></g><g id="组_4652" transform="translate(1100.727 233.302)"><path id="路径_15606" class="st4" d="M0 56.1C0 25.2 25 .1 55.8.1l.2 111.8C25.1 112 0 87 0 56.1z"/><path id="路径_15607" class="st2" d="M41.1 56c0-30.9 25-56 55.8-56l.2 111.9c-30.9 0-55.9-25-56-55.9z"/><path id="路径_15608" class="st3" d="M56 93.9l-.1-75.8c-19.8 21.4-19.7 54.4.1 75.8z"/></g><g id="组_4655" transform="translate(983.464 284.702)"><path id="路径_15612" class="st8" d="M48 9.7v16.5H31.7V9.7h-6.9v40.6h6.9V32.7H48v17.6h6.9V9.7H48z"/><g id="组_4654"><path id="路径_15613" class="st3" d="M7.7 2.4C6.2 4.2 5.4 6.6 5.6 9v11.4c0 .9-.1 1.9-.4 2.8-.3.8-.7 1.5-1.2 2.1-.4.5-1 1-1.6 1.3-.5.3-1.1.5-1.7.5H0v5.5h.7c.6 0 1.2.2 1.7.5.7.5 1.2.9 1.6 1.5.5.6.9 1.3 1.1 2.1.3.9.4 1.9.4 2.8v11.4c-.2 2.4.6 4.8 2.2 6.7C9 59.1 11 60 13 60h5v-5.3h-4c-.4 0-.7-.1-1-.3-.3-.3-.5-.6-.7-1-.2-.5-.3-1-.4-1.5-.1-.6-.1-1.2-.1-1.8V38.5c0-1.5-.2-2.9-.7-4.3-.4-1-1-2-1.7-2.8-.6-.6-1.2-1.1-1.9-1.5.7-.4 1.4-1 1.9-1.6 1.6-1.9 2.5-4.3 2.4-6.8V10c0-.6 0-1.3.1-1.9.1-.5.2-1 .4-1.5.2-.4.4-.7.7-.9.3-.2.6-.3 1-.3h3.9V0H13c-2 0-3.9.8-5.3 2.4z"/><path id="路径_15614" class="st3" d="M79 27.2c-.6 0-1.2-.2-1.7-.5-.6-.3-1.1-.8-1.6-1.3-.5-.6-.9-1.3-1.1-2.1-.3-.9-.4-1.8-.4-2.8V9c.2-2.4-.6-4.8-2.2-6.7C70.7.8 68.7 0 66.7 0h-4.9v5.3h3.9c.4 0 .7.1 1 .3.3.3.5.6.7.9.2.5.3 1 .4 1.5.1.6.1 1.2.1 1.9v11.5c-.1 2.5.8 4.9 2.4 6.8.6.7 1.2 1.2 1.9 1.6-.7.4-1.4.9-1.9 1.5-.7.8-1.3 1.8-1.7 2.8-.5 1.4-.8 2.8-.7 4.3v11.5c0 .6 0 1.2-.1 1.8-.1.5-.2 1.1-.4 1.5-.2.4-.4.7-.7 1-.3.2-.6.3-1 .3h-3.9v5.3h4.9c2 0 3.9-.8 5.3-2.4 1.5-1.9 2.3-4.2 2.2-6.7V39.5c0-1 .1-1.9.4-2.8.2-.8.6-1.5 1.1-2.1.4-.5 1-1 1.6-1.3.5-.3 1.1-.5 1.8-.5h.7v-5.5l-.8-.1z"/></g></g><g id="组_4656" transform="translate(1089.796 450.078)"><circle id="椭圆_111" class="st8" cx="11.2" cy="11.2" r="11.2"/><circle id="椭圆_112" class="st8" cx="89.2" cy="11.2" r="11.2"/><circle id="椭圆_113" class="st7" cx="49.6" cy="11.2" r="11.2"/></g></g><g id="组_4667" transform="translate(2136.091 -1219)"><path id="路径_15570" class="st4" d="M1373.9 108.1c-47.8 0-86.5 38.7-86.5 86.5s38.7 86.5 86.5 86.5v23.2c-60.6 0-109.7-49.1-109.7-109.7s49.1-109.7 109.7-109.7v23.2z"/><g id="组_4666" transform="translate(1234.314 165.749)"><g id="组_4659"><g id="组_4657"><circle id="椭圆_114" class="st8" cx="81.7" cy="5.2" r="5.2"/><circle id="椭圆_115" class="st8" cx="5.2" cy="5.2" r="5.2"/><circle id="椭圆_116" class="st8" cx="43.4" cy="5.2" r="5.2"/></g><g id="组_4658" transform="translate(19.109)"><circle id="椭圆_117" class="st7" cx="43.4" cy="5.2" r="5.2"/><circle id="椭圆_118" class="st7" cx="81.7" cy="5.2" r="5.2"/><circle id="椭圆_119" class="st7" cx="5.2" cy="5.2" r="5.2"/></g></g><g id="组_4662" transform="translate(0 23.656)"><g id="组_4660" transform="translate(19.109)"><circle id="椭圆_120" class="st8" cx="5.2" cy="5.2" r="5.2"/><circle id="椭圆_121" class="st8" cx="81.7" cy="5.2" r="5.2"/><circle id="椭圆_122" class="st8" cx="43.4" cy="5.2" r="5.2"/></g><g id="组_4661"><circle id="椭圆_123" class="st7" cx="43.4" cy="5.2" r="5.2"/><circle id="椭圆_124" class="st7" cx="5.2" cy="5.2" r="5.2"/><circle id="椭圆_125" class="st7" cx="81.7" cy="5.2" r="5.2"/></g></g><g id="组_4665" transform="translate(0 47.312)"><g id="组_4663"><circle id="椭圆_126" class="st8" cx="81.7" cy="5.2" r="5.2"/><circle id="椭圆_127" class="st8" cx="5.2" cy="5.2" r="5.2"/><circle id="椭圆_128" class="st8" cx="43.4" cy="5.2" r="5.2"/></g><g id="组_4664" transform="translate(19.109)"><circle id="椭圆_129" class="st7" cx="43.4" cy="5.2" r="5.2"/><circle id="椭圆_130" class="st7" cx="81.7" cy="5.2" r="5.2"/><circle id="椭圆_131" class="st7" cx="5.2" cy="5.2" r="5.2"/></g></g></g></g><g class="st10"><path class="st11" d="M2722.8-1002.2v-1.8l6.1-6.2c.8-.8 1.4-1.7 1.4-2.8 0-1.5-1-3-2.6-3-1.8 0-2.8 1.6-2.8 3.2v.4h-2.2v-.1c0-2.3.9-4.3 3.1-5.2.6-.2 1.2-.4 1.8-.4 2.8 0 4.9 2.2 4.9 5 0 1.9-.9 3.1-2.2 4.4l-4.3 4.4h6.5v2h-9.7zM2748.6-1007.2c0 1.4-.2 2.4-1.1 3.5-1 1.2-2.4 1.8-3.9 1.8s-3-.7-3.9-1.9c-.9-1.1-1.1-2.2-1.1-3.6v-5.4c0-2.2 1-4 3.1-4.9.6-.3 1.3-.4 2-.4 2.9 0 5 2.3 5 5.1v5.8zm-2.2-5.7c0-1.8-1-3.1-2.8-3.1s-2.9 1.3-2.9 3.1v5.7c0 1.8 1 3.3 2.9 3.3.8 0 1.6-.4 2.1-1 .7-.7.7-1.3.7-2.3v-5.7zM2754.5-1002.2v-1.8l6.1-6.2c.8-.8 1.4-1.7 1.4-2.8 0-1.5-1-3-2.6-3-1.8 0-2.8 1.6-2.8 3.2v.4h-2.2v-.1c0-2.3.9-4.3 3.1-5.2.6-.2 1.2-.4 1.8-.4 2.8 0 4.9 2.2 4.9 5 0 1.9-.9 3.1-2.2 4.4l-4.3 4.4h6.5v2h-9.7zM2774.9-1002.2v-13.5h-2.3v-2h4.5v15.5h-2.2zM2787.2-1002.2v-2.6h2.2v2.6h-2.2zM2806.2-1007.2c0 1.4-.2 2.4-1.1 3.5-1 1.2-2.4 1.8-3.9 1.8s-3-.7-3.9-1.9c-.9-1.1-1.1-2.2-1.1-3.6v-5.4c0-2.2 1-4 3.1-4.9.6-.3 1.3-.4 2-.4 2.9 0 5 2.3 5 5.1v5.8zm-2.2-5.7c0-1.8-1-3.1-2.8-3.1s-2.9 1.3-2.9 3.1v5.7c0 1.8 1 3.3 2.9 3.3.8 0 1.6-.4 2.1-1 .7-.7.7-1.3.7-2.3v-5.7zM2816-1002.2h-2.4l5.9-13.5h-6.7v-2h9v2l-5.8 13.5zM2827.1-1007.2v-2.2h5.9v2.2h-5.9zM2838-1002.2v-1.8l6.1-6.2c.8-.8 1.4-1.7 1.4-2.8 0-1.5-1-3-2.6-3-1.8 0-2.8 1.6-2.8 3.2v.4h-2.2v-.1c0-2.3.9-4.3 3.1-5.2.6-.2 1.2-.4 1.8-.4 2.8 0 4.9 2.2 4.9 5 0 1.9-.9 3.1-2.2 4.4l-4.3 4.4h6.5v2h-9.7zM2863.8-1007.2c0 1.4-.2 2.4-1.1 3.5-1 1.2-2.4 1.8-3.9 1.8s-3-.7-3.9-1.9c-.9-1.1-1.1-2.2-1.1-3.6v-5.4c0-2.2 1-4 3.1-4.9.6-.3 1.3-.4 2-.4 2.9 0 5 2.3 5 5.1v5.8zm-2.1-5.7c0-1.8-1-3.1-2.8-3.1s-2.9 1.3-2.9 3.1v5.7c0 1.8 1 3.3 2.9 3.3.8 0 1.6-.4 2.1-1 .7-.7.7-1.3.7-2.3v-5.7zM2869.7-1002.2v-1.8l6.1-6.2c.8-.8 1.4-1.7 1.4-2.8 0-1.5-1-3-2.6-3-1.8 0-2.8 1.6-2.8 3.2v.4h-2.2v-.1c0-2.3.9-4.3 3.1-5.2.6-.2 1.2-.4 1.8-.4 2.8 0 4.9 2.2 4.9 5 0 1.9-.9 3.1-2.2 4.4l-4.3 4.4h6.5v2h-9.7zM2890.1-1002.2v-13.5h-2.3v-2h4.5v15.5h-2.2zM2902.4-1002.2v-2.6h2.2v2.6h-2.2zM2916-1002.2v-13.5h-2.3v-2h4.5v15.5h-2.2zM2937.3-1007.2c0 1.4-.2 2.4-1.1 3.5-1 1.2-2.4 1.8-3.9 1.8s-3-.7-3.9-1.9c-.9-1.1-1.1-2.2-1.1-3.6v-5.4c0-2.2 1-4 3.1-4.9.6-.3 1.3-.4 2-.4 2.9 0 5 2.3 5 5.1v5.8zm-2.2-5.7c0-1.8-1-3.1-2.8-3.1s-2.9 1.3-2.9 3.1v5.7c0 1.8 1 3.3 2.9 3.3.8 0 1.6-.4 2.1-1 .7-.7.7-1.3.7-2.3v-5.7z"/></g><g id="组_5063" transform="translate(1968.213 -1237)"><path id="直线_326" class="st12" d="M299.8 165.6l19.1-19"/><path id="直线_327" class="st12" d="M299.8 146.6l19.1 19"/><g id="组_4602" transform="translate(346.079 126.409)"><g id="组_4597" transform="translate(0 4.802)"><path id="路径_15458" class="st9" d="M18.7 17.5l.1-.3c.3-.8.5-1.2.5-5.9V6.5c.1-.9 0-1.7-.3-2.6-.3-.6-.8-1-2-1-1.4 0-2.7.6-3.7 1.6v6.8c0 2.1 0 3.2.1 4.3 0 .5.2 1 .4 1.5l.1.3H9.3l.1-.3c.2-.4.3-.9.4-1.4.1-.8.1-2.1.1-4.5V6.1c.1-.7 0-1.4-.3-2.1-.4-.7-1.2-1.1-2-1-1.4 0-2.7.6-3.6 1.6v6.7c0 2.1 0 3.2.1 4.3 0 .5.2 1 .4 1.5l.1.3H0l.1-.3c.3-.8.5-1.2.5-5.9v-3c0-.2 0-3.3-.1-4.8 0-.6-.2-1.3-.4-1.9L0 1.4 3.7.1l.2 1.6C5.1.5 6.7 0 8.4 0c1.1 0 2.2.3 3.2.8.4.2.7.6 1 .9C14 .6 15.7 0 17.6 0c1.5 0 3.7.5 4.5 2.1.5 1.1.7 2.3.5 3.4v5.8c0 2.5 0 3.4.1 4.3 0 .5.2 1 .4 1.5l.1.3-4.5.1z"/></g><g id="组_4598" transform="translate(39.367)"><path id="路径_15459" class="st9" d="M2.2 20.9c-.4-1-.6-2-.5-3.1V8H0V4.9h.2c.7.1 1 .1 1.6.2V1.2L5.1 0v5.1H8c.5 0 1-.1 1.5-.2l.3-.1v.3c-.1.7-.2 1.4-.3 2-.1.4-.4.8-.7.9-.3 0-.6.1-.9 0H5.2v9.1c0 .6 0 1.3.3 1.9.2.4.7.7 1.2.6 1.3-.1 2.4-.8 3.2-1.8l.4-.4v.5c0 .9-.1 1.9-.2 2.8-.1.4-.3.7-.6.8-1.1.6-2.3.9-3.5.9-2.2.2-3.3-.6-3.8-1.5z"/></g><g id="组_4599" transform="translate(51.3 4.802)"><path id="路径_15460" class="st9" d="M0 17.5l.1-.3c.3-.8.5-1.2.5-5.9v-3c0-1.5 0-3.4-.1-4.9 0-.6-.1-1.3-.4-1.9L0 1.4 3.5.1l.2 1.5C4.7.6 6 0 7.4 0c.2 0 .5 0 .7.1.4.1.7.4.7.8 0 .3-.1.6-.2.9l-.5 1.8h-.2c-.3-.2-.7-.2-1.1-.2-1.1 0-2.2.5-2.9 1.3v6.7c0 2.5 0 3.4.1 4.3 0 .5.2 1 .4 1.5l.1.3H0z"/></g><g id="组_4600" transform="translate(61.871 4.869)"><path id="路径_15461" class="st9" d="M0 17.4l.1-.3c.3-.7.5-1.2.5-5.9V8.1c0-1.4 0-3.4-.1-4.8C.5 2.7.3 2 .1 1.4L0 1.3 4 0v11.3c0 2.5 0 3.4.1 4.3 0 .5.2 1 .4 1.5l.1.3H0z"/></g><g id="组_4601" transform="translate(68.468 5.09)"><path id="路径_15462" class="st9" d="M4.9 0h.2v.2c.2 1.1.7 2.2 1.4 3.1l2 2.9c3.1-3.6 3.4-4.6 3.7-6V0H16l-.1.3c-1.2 3.1-3.2 6-5.6 8.3l3.7 5.3c.7 1.1 1.6 2.1 2.5 3l.3.3h-5.2V17c0-.8 0-.9-1.3-2.8l-2.4-3.5C6.8 11.8 4.5 14.3 4 17v.2H0l.1-.3c1.4-3.3 3.4-6.2 6-8.6L2.9 3.6C2.1 2.5 1.3 1.4.4.3L.1 0h4.8"/></g><path id="路径_15463" class="st9" d="M38.3 20.9c-.9-.8-1.2-1.2-1.3-3.4v-8c.1-1-.1-2.1-.7-3-.7-1-2-1.7-4.6-1.7-1.4 0-2.7.3-4 .7-1.1.5-1.9 1-1.9 1.7 0 .3.1.5.1.6l.6 2.1.2-.3c1.2-1.3 2.9-2 4.6-2 1.1 0 1.6.3 1.9.7.3.6.4 1.2.3 1.8v1.4c-1.8.1-3.6.5-5.3 1.3-1.8.9-2.9 2.8-2.8 4.7 0 1.1.3 2.2.9 3.2.9 1.1 2.3 1.8 3.7 1.7 1.5.1 3-.5 4.2-1.5.4 1.1 1 1.5 1.3 1.5.2 0 .5-.1.7-.2l2.2-1.3h-.1zm-4.7-3.5c0 .8-.4 1.5-1.1 1.9-.5.3-1 .4-1.6.4-1 .1-1.9-.7-2-1.7v-.4c0-2.4 2.5-3 4.8-3.1l-.1 2.9z"/></g><g id="组_4603" transform="translate(346.617 154.2)"><path id="路径_15464" class="st9" d="M.7 6.1H0V.3h.8C2.6.3 3.2.9 3.2 2c0 1.2-.9 1.7-2 1.7H.7v2.4zM.7 3H1c.7 0 1.5-.1 1.5-1.1 0-.9-.9-1-1.6-1H.7V3z"/><path id="路径_15465" class="st9" d="M6 4.6l-.7 1.5h-.8L7.3 0l2.8 6.1h-.8l-.7-1.5H6zm1.3-3L6.3 4h2.1L7.3 1.6z"/><path id="路径_15466" class="st9" d="M16.1 6.1h-.9l-1.7-2.5h-.3v2.5h-.7V.3h.9c.5 0 1.1 0 1.5.3.5.3.8.8.8 1.4 0 .8-.6 1.5-1.4 1.6l1.8 2.5zM13.2 3h.2c.8 0 1.6-.1 1.6-1s-.9-1-1.6-1h-.2v2z"/><path id="路径_15467" class="st9" d="M20.1 6.1h-.7V.9H18V.3h3.5V1h-1.4v5.1z"/><path id="路径_15468" class="st9" d="M23.9 0l4.4 4.6V.3h.7v6.1l-4.4-4.6v4.3h-.7V0z"/><path id="路径_15469" class="st9" d="M31.9.3H35V1h-2.4v1.6H35v.7h-2.3v2.2h2.4v.7H32L31.9.3z"/><path id="路径_15470" class="st9" d="M41.5 6.1h-.9l-1.7-2.5h-.3v2.5h-.7V.3h.9c.5 0 1.1 0 1.5.3.5.3.8.8.8 1.4 0 .8-.6 1.5-1.4 1.6l1.8 2.5zM38.6 3h.2c.7 0 1.5-.1 1.5-1.1 0-.9-.9-1-1.6-1h-.2l.1 2.1z"/><path id="路径_15471" class="st9" d="M46.6 1.4c-.2-.4-.5-.6-.9-.5-.5 0-.9.3-1 .8 0 .5.4.7.8.8l.5.2c.8.3 1.4.8 1.4 1.8s-.8 1.8-1.8 1.8h-.1c-.9 0-1.7-.7-1.8-1.6l.7-.2c0 .6.5 1.1 1.1 1.1.6 0 1.1-.5 1.1-1.1 0-.6-.5-.9-1-1.1l-.4-.2c-.6-.3-1.2-.7-1.2-1.5 0-.9.8-1.6 1.7-1.5h.1c.6 0 1.2.3 1.5.9l-.7.3z"/><path id="路径_15472" class="st9" d="M58.5 1.4c-1-.8-2.4-.7-3.3.2-.4.4-.6 1-.6 1.6 0 1.3 1 2.3 2.2 2.4.6 0 1.2-.2 1.6-.6v.9c-.5.3-1 .4-1.5.4-1.7 0-3-1.3-3-3S55.3.2 57 .2c.5 0 1 .1 1.5.4v.8z"/><path id="路径_15473" class="st9" d="M64.2 2.6V.3h.7v5.8h-.7V3.3h-2.8v2.8h-.7V.3h.7v2.4l2.8-.1z"/><path id="路径_15474" class="st9" d="M68.6 6.1h-.7V.3h.7v5.8z"/><path id="路径_15475" class="st9" d="M71.5 0l4.4 4.6V.3h.7v6.1l-4.4-4.6v4.3h-.7V0z"/><path id="路径_15476" class="st9" d="M80.4 4.6l-.7 1.5H79L81.8 0l2.8 6.1h-.8l-.7-1.5h-2.7zm1.4-3l-1 2.4h2.1l-1.1-2.4z"/></g><path id="路径_15477" class="st9" d="M365.5 182.2c-.4 0-.6.4-.8.7-.2.3-.5.6-.5.6h-3.9v-5.4h5v-.1-.2c-.1-.4-.3-.8-.6-1.1-.3-.4-.6-.8-.9-.8-.3 0-.6.4-.9.7-.1.2-.3.3-.4.4-.1.1-.1.1-.2.1h-9.6c-.6.1-2.4.8-3.1.7h-.2c.4-.7 1-1.4 1.6-1.9.9-.8 1.8-1.7 2-1.9.3-.3 1-1 1.7-1.6l.9-.9.4-.4h.1v-.2c-.4-.6-1-1.1-1.6-1.4h-.1c-.3 0-.4.3-.6.6-.3.5-.6 1.2-.9 1.7-.1.3-.3.5-.4.7-.1.1-.1.2-.1.2h-1.6c-.6 0-1.2 0-1.8-.1.2-.4.4-.9.7-1.3.3-.5.7-1 .7-1.1.3-.3.9-1.1 1.5-1.8.4-.5.8-1 1.1-1.6-.1-.3-.4-.5-.8-.8-.3-.2-.6-.4-1-.5h-.1l-.2.2c-.4.7-1.7 3.3-2.1 3.9-.2.3-.8 1.1-1.4 1.8-.4.5-.8 1-1.1 1.6v.1l.8.8c.4.4.8.8 1 .8.3-.1.4-.3.6-.6.1-.2.2-.4.3-.5.4 0 1.9-.1 2.7-.1h.1c-.4.4-1.3 1.2-2.2 2.1-.6.6-1.2 1.1-1.6 1.6-.4.5-.7.8-.8 1 .1.4.2.7.5 1 .3.3.5.6.8.6.4-.1 3.7-1.8 4.8-1.9h5.3v5.3h-5.7l-.1.1v.1c0 .2.1.5.3.7l.1.1h.1c.4 0 1.9.1 3.9.1 4 0 9.7-.1 9.7-.1h.1s.1-.1.1-.2c-.1-.4-.3-.8-.6-1.1-.4-.3-.6-.7-1-.7zm-9.4-11.3zm-.9 9.6v-.1c-.1-.2-.2-.2-.3-.2-2.7.5-5.4 1.2-8.1 2.1-.1.1-.2.2-.2.3.1.6.5 1.1 1.1 1.4h.1c1.3-.4 2.6-.9 3.8-1.5.9-.4 1.7-.8 2.4-1.1.5-.3.9-.6 1.2-.9zm21.4-.8c-2.7.5-5.4 1.2-8.1 2.1-.1.1-.2.2-.2.3.1.6.5 1.1 1 1.4h.1c1.3-.4 2.6-.9 3.8-1.5.9-.4 1.7-.8 2.4-1.1.5-.2.9-.5 1.2-.8v-.1c.1-.3 0-.2-.2-.3zm52.3-9.8c.1-.1.1-.1.1-.2-.1-.4-.3-.7-.6-1-.3-.4-.6-.7-1-.8-.3 0-.6.3-.8.6-.2.3-.5.5-.5.5h-9.3v.2c.1.3.2.6.4.8.2.3.4.5.7.6.3-.1.6-.5.7-.6h3v3.5h-4l.1.2c.1.3.2.5.4.8.2.3.4.5.7.6.3-.1.6-.5.7-.6h2.1v5.3h-5.1l.1.2c.1.3.2.5.4.8.2.3.4.5.7.6.3-.1.6-.5.7-.6H429s.1-.1.1-.2c-.1-.4-.3-.7-.6-1-.3-.3-.6-.7-1-.7-.6 0-1.3.9-1.6.9h-2.8v-5.3h5.2s.1-.1.1-.2c-.1-.4-.3-.7-.6-1-.3-.3-.6-.7-1-.7-.6 0-1.1 1-1.3.9h-2.4V170l5.8-.1zm1.5-4c-.3-.2-.6-.3-1-.4-.1 0-.2 0-.2.1v.6h-12.8c-.4-.4-.9-.6-1.5-.7-.1 0-.1 0-.2.1V185.2h.2c.5 0 .9-.3 1.2-.7v-1.1h13.1V185.3h.2c.5 0 .9-.3 1.2-.7v-14.8l.1-2.3c.1-.2.3-.3.4-.5.1 0 .1-.1.1-.2-.1-.5-.4-.7-.8-.9zm-14.3 16.6v-15.3c.1-.1.1-.2.2-.2h12.8v15.5h-13zm10.2-6.1c-.7-.6-1.6-1.1-2.5-1.4.2.7.5 1.3.9 1.9.5.7 1 1.3 1.3 1.3.6 0 .7-.8.6-1.4.1-.2 0-.3-.3-.4zm-71.1-8.4h5.7c-1.3 2-2.8 3.7-4.5 5.3-.7.7-1.4 1.3-1.9 1.7-.2.2-.4.4-.6.5-.1.2-.2.2-.3.4 0 .1 0 .1.1.2h.1c.6 0 1.9-1 3.3-1.9.9-.7 1.8-1.3 2.8-1.9.9.6 1.8 1.2 2.7 1.9.9.8 1.9 1.4 2.9 2h.1c.2-.1.2-.2.2-.4v-.5c0-.5 0-.9-.2-1.4l-.1.1.1-.1c-.4-.6-1.6-1.1-2.8-1.5-.6-.2-1.1-.4-1.5-.6-.2-.1-.3-.1-.5-.2 0 0-.1 0-.1-.1.5-.7 1-1.4 1.6-2 .6-.6 1.1-1.2 1.5-1.9 0-.3-.4-.6-.8-.9-.3-.3-.7-.5-1.1-.6h-.1c-.2.2-.3.4-.5.6-.1.2-.2.4-.3.4h-6.4-.1l-.1.1v.1c0 .2.1.5.3.7h.5zm31.3-.3c-.4 0-.6.4-.8.7-.2.3-.5.6-.5.6h-3v-1.8s0-.6.5-.6h.1v-.1-.1c-.1-.3-.4-.4-.8-.7-.4-.2-.8-.4-1.2-.4-.1 0-.2 0-.2.1v.1s.1 1.6.1 2.6V169h-.7c-1.1 0-2.9-.1-3.9-.1h-.5s-.1 0-.1.1c-.7 1.6-1.2 2.7-1.3 3.1h-2.6c.4-.5 1.2-1.6 1.9-2.6.4-.6.9-1.2 1.2-1.7.2-.3.4-.6.5-.9v-.1c-.1-.3-.4-.5-.8-.8-.3-.2-.6-.4-1-.5h-.1l-.2.2c-.4.7-1.7 3.3-2.1 3.9-.2.3-.7 1.1-1.2 1.7-.4.5-.7 1-1 1.6v.1s.3.3.6.5l.9.6c.3-.1.6-.5.7-.7H373.1c-.3.4-1 1.2-1.6 2-.4.6-.9 1.1-1.2 1.6-.3.3-.5.6-.6 1 .1.6.5 1.1 1.1 1.2 1.1-.1 2.3-.3 3.4-.6.7-.1 1.3-.3 1.9-.6.5-.2.9-.4.9-.8 0-.1 0-.1-.1-.2-.1-.2-.3-.1-.5-.1-.8 0-3 .4-4 .4h-.4-.1c.7-1.2 1.4-2.3 2.3-3.3 1-1.3 2-2.7 2.9-4.1h3.4v2.2H377h-.1s-.1 0-.2.1v.1c0 .2.1.5.3.7.1.1.1.1.2.1h3.2v2.8h-4.6-.1l-.1.1v.1c0 .2.1.5.3.7.1.1.1.1.2.1h4.4v8.4l.1.1c.4.2.9.3 1.3.3h.2l.1-.1v-2.3-6.4h3.5c0 .7 0 3.4-.1 3.9-.4.3-.9.4-1.4.3-.5 0-1 0-1.5-.1h-.2v.2c.1.8 1.7 2 2.7 2.1 1.5 0 1.6-1.8 1.7-3.4.1-1.7.1-3.1 1.1-3.1h.1c.1 0 .1-.1.1-.2-.1-.3-.3-.7-.6-.9-.2-.3-.6-.5-1-.6-.6 0-1.1 1-1.3 1h-3.1V173h4.8s.1-.1.1-.2c-.1-.4-.3-.7-.6-1-.3-.4-.6-.7-1-.7-.6.1-1.1 1-1.3 1h-2.1v-2.2h6.1v-.1l.1-.1c-.1-.4-.4-.8-.7-1.1-.3-.5-.7-.9-1.1-.9zm21.8 1.9c-.3-.2-.6-.3-1-.3-.1 0-.2 0-.2.1v.5h-5.9v-.3c0-.3-.1-2.4-.1-2.4 0-.1 0-.2.1-.3.1-.2.2-.3.4-.3 0 0 .2 0 .2-.2s-.1-.2-.3-.4c-.5-.4-1.1-.7-1.7-.9-.1 0-.2 0-.2.1v4.7h-5c-.5-.3-1-.6-1.5-.6-.1 0-.2 0-.2.1v9.3h.2c.5 0 .9-.3 1.2-.7v-1h5.4v8.4l.1.1c.4.2.9.3 1.3.3h.2l.1-.1v-2.3-6.4h5.9v1.6h.2c.5 0 .9-.3 1.2-.7v-4.8s0-.6.1-1.3c0-.5.1-1 .4-1.5.1 0 .1-.1.1-.2-.3-.2-.6-.3-1-.5zm-14.2 6.6v-3c0-.8.1-1.6.3-2.3h5.2v5.3h-5.5zm7.1 0v-5.3h5.9v5.3h-5.9z"/><g id="组_4616" transform="translate(181.787 165.252)"><g id="组_4615" transform="translate(25.283 5.708)"><path id="矩形_4089" class="st9" d="M9.7.4h1.5v1.5H9.7z"/><path id="矩形_4090" class="st9" d="M9.7 3.7h1.5v8.9H9.7z"/><path id="路径_15490" class="st9" d="M26.9 3c-1.2 0-2.4.6-3.3 1.5-.9.9-1.3 2.1-1.3 3.4 0 1.3.5 2.6 1.4 3.5.9.9 2.1 1.4 3.4 1.4 1.2 0 2.4-.6 3.2-1.5v.6c0 .8-.3 1.6-1 2.1-.6.6-1.4.9-2.2.9-.7 0-1.4-.2-2-.7-.5-.3-.8-.7-1.1-1.2l-1 .6c.3.6.7 1 1.2 1.4.8.6 1.8 1 2.9 1h.2c1.1 0 2.2-.4 3.1-1.1.9-.7 1.5-1.8 1.5-2.9V7.9c-.1-2.7-2.3-4.9-5-4.9zm3.5 5c0 .9-.4 1.7-1 2.4-.6.6-1.4 1-2.3 1-.9 0-1.8-.3-2.4-1-.7-.6-1-1.5-1-2.4 0-.9.3-1.8.9-2.4.6-.7 1.4-1.1 2.3-1.1h.2c.9 0 1.7.4 2.3 1 .7.6 1 1.5 1 2.5z"/><path id="路径_15491" class="st9" d="M38.7 1.4c1.6-.1 3.1.8 3.9 2.1l1.1-.7c-.4-.7-1-1.3-1.7-1.8-.9-.6-2-1-3.1-1-1.6 0-3.1.6-4.2 1.8-1.2 1.2-1.8 2.9-1.8 4.6 0 1.7.6 3.3 1.7 4.6 1 1.2 2.6 1.9 4.2 1.9h.1c2.1 0 3.9-1.1 5-2.9l-1.1-.7c-.4.6-1 1.2-1.6 1.5-.7.4-1.4.6-2.2.6-1.3 0-2.5-.6-3.3-1.5-.9-1-1.4-2.3-1.3-3.7 0-1.3.5-2.5 1.4-3.5.5-.8 1.7-1.3 2.9-1.3z"/><path id="路径_15492" class="st9" d="M49.4.2l-5.6 12.4h1.8l1.7-4.1.6-1.3L50.1 2l2.2 5.2h-3.1l-.6 1.3h4.2l1.7 4.1h1.6L50.9.2h-1.5z"/><path id="路径_15493" class="st9" d="M64.3 1.3c-.8-.8-2-1.2-3.1-1.1h-4v12.4h1.5V1.5h2.6c.7 0 1.4.2 1.9.7.5.4.8 1 .9 1.6.1.7-.2 1.4-.8 1.9-.5.5-1.2.7-1.9.7h-1.5v1.3h1.8c1 0 2-.4 2.7-1 .7-.6 1.2-1.6 1.2-2.6 0-1.1-.5-2.1-1.3-2.8z"/><path id="路径_15494" class="st9" d="M7.1 1.3C6.3.5 5.2.1 4 .2H0v12.4h1.5V1.5h2.6c.7 0 1.4.2 1.9.7.5.4.8 1 .9 1.6.1.7-.2 1.4-.8 1.9-.5.5-1.2.7-1.9.7H2.7v1.3h1.8c1 0 2-.4 2.7-1 .7-.7 1.1-1.6 1.1-2.6C8.4 3 7.9 2 7.1 1.3z"/><path id="路径_15495" class="st9" d="M17.6 3.2c-.2 0-.5-.1-.7-.1-1.1 0-2.2.4-2.9 1.2-.8.8-1.2 1.9-1.2 3v5.3h1.5V7.2A2.732 2.732 0 0117 4.5h.2c.6.1 1.2.3 1.6.8.5.5.8 1.2.8 1.9v5.4H21V7.3c0-1.1-.4-2.2-1.2-3-.6-.6-1.4-1-2.2-1.1z"/></g><path id="路径_15496" class="st9" d="M19 5c0-.5-.4-1-.9-1.2L5 0c-.7-.1-1.3.2-1.5.9v2.3l-2-.6c-.6-.2-1.3.2-1.5.9V22.9c0 .7.5 1.2 1.2 1.2h.3l10.4-2.5c.5-.1.9-.6.9-1.2V15l5.3-1.3c.5-.1.9-.6.9-1.2V5zM1 4c0-.2.2-.4.4-.4h.1l1.9.6v11.5c0 .7.5 1.2 1.2 1.2h.3l6.9-1.7v5c0 .2-.2.4-.4.5L1.5 23c-.2 0-.4-.1-.5-.3V4zm3.6 11.8c-.1-.1-.1-.2-.1-.3v-11l7 2c.2.1.4.3.4.5v7.2L5 15.9c-.2 0-.3 0-.4-.1zm7.3-10.2L4.4 3.4v-2c0-.2.2-.4.4-.4h.1l12.8 3.7c.2.1.3.3.3.5v7.1c0 .2-.2.4-.4.5L12.8 14V6.7c0-.5-.4-1-.9-1.1z"/></g><g id="组_4618" transform="translate(181.787 128.018)"><g id="组_4617" transform="translate(25.293 6.266)"><path id="路径_15497" class="st9" d="M6.4 12.5H3.8V2.1H0V0h10v2.1H6.4v10.4z"/><path id="路径_15498" class="st9" d="M13.5 2.1h-2.4V0h2.4v2.1zm0 10.4h-2.4V3.2h2.4v9.3z"/><path id="路径_15499" class="st9" d="M16.2 0h4.9C23 0 24.2.4 25 1.4c2 2.9 2 6.7 0 9.6-.8 1-2 1.5-3.9 1.5h-4.9V0zm4.9 10.3c1.9 0 2.9-1.3 2.9-4 0-2.8-1-4.1-2.9-4.1h-2.3v8.2l2.3-.1z"/><path id="路径_15500" class="st9" d="M34.4 12.5h-5.6V0h5.6c3.3 0 4.1 2.1 4.1 3.3 0 1.1-.5 1.8-1.7 2.6 1.2.5 2 1.7 2.1 3-.1 1.5-1 3.6-4.5 3.6zM31.3 5h2.8c1.2 0 1.8-.5 1.8-1.4 0-.9-.6-1.4-1.8-1.4h-2.8V5zm0 5.3h3.1c1.2 0 1.9-.6 1.9-1.6 0-1.1-.7-1.6-1.9-1.6h-3.1v3.2z"/></g><path id="路径_15501" class="st9" d="M10.8 0L0 6.3v12.5L10.8 25l10.8-6.3V6.3L10.8 0zm0 8.3v12.5l-3.6-2.1v-8.4l-3.6 2.1V8.3l7.2-4.2 3.6 2.1-3.6 2.1zm7.3 8.4l-3.6 2.1v-8.3l3.6-2.1v8.3z"/></g></g><g class="st10"><path class="st8" d="M2508.9-1097.8v6.1h-10v31.6h-7.6v-31.6h-10v-6.1h27.6zM2516.3-1094.8c-.9-.8-1.3-1.9-1.3-3.2 0-1.3.4-2.3 1.3-3.2.9-.8 2-1.3 3.3-1.3 1.3 0 2.4.4 3.3 1.3.9.8 1.3 1.9 1.3 3.2 0 1.3-.4 2.3-1.3 3.2-.9.8-2 1.3-3.3 1.3-1.3-.1-2.4-.5-3.3-1.3zm7 4.8v29.9h-7.6v-29.9h7.6zM2555.8-1095.5c3 1.5 5.3 3.8 7 6.6 1.6 2.9 2.5 6.2 2.5 10s-.8 7.1-2.5 9.9c-1.6 2.8-4 5-7 6.6-3 1.5-6.5 2.3-10.4 2.3h-13.2v-37.7h13.2c3.9 0 7.4.8 10.4 2.3zm-1.6 25.7c2.2-2.2 3.2-5.2 3.2-9.1s-1.1-7-3.2-9.2-5.2-3.3-9.2-3.3h-5.3v24.9h5.3c4 0 7.1-1.1 9.2-3.3zM2598.8-1076.2c1.4 1.7 2.1 3.7 2.1 5.9 0 2-.5 3.8-1.5 5.3s-2.4 2.7-4.3 3.6c-1.9.9-4.1 1.3-6.6 1.3h-16.3v-37.7h15.6c2.6 0 4.8.4 6.6 1.2 1.9.8 3.3 2 4.2 3.5 1 1.5 1.4 3.2 1.4 5 0 2.2-.6 4-1.8 5.5-1.2 1.5-2.7 2.5-4.7 3.1 2.2.5 4 1.5 5.3 3.3zm-19-6h6.9c1.8 0 3.2-.4 4.2-1.2 1-.8 1.5-2 1.5-3.5s-.5-2.7-1.5-3.5-2.4-1.2-4.2-1.2h-6.9v9.4zm11.9 14.7c1-.9 1.5-2.1 1.5-3.7s-.5-2.9-1.6-3.8c-1.1-.9-2.5-1.4-4.4-1.4h-7.5v10.2h7.6c1.9 0 3.3-.5 4.4-1.3zM2653.7-1097.8v37.7h-7.6v-16H2630v16h-7.6v-37.7h7.6v15.5h16.1v-15.5h7.6zM2662.4-1083.2c1.2-2.3 2.8-4.1 4.9-5.4 2.1-1.3 4.4-1.9 6.9-1.9 2.2 0 4.2.5 5.9 1.4 1.7.9 3 2 4 3.4v-4.3h7.6v29.9h-7.6v-4.4c-1 1.4-2.3 2.6-4 3.5-1.7.9-3.7 1.4-5.9 1.4-2.5 0-4.8-.6-6.9-1.9-2.1-1.3-3.7-3.1-4.9-5.5-1.2-2.4-1.8-5.1-1.8-8.1 0-3.1.6-5.8 1.8-8.1zm20.7 3.4c-.7-1.3-1.7-2.3-2.9-3-1.2-.7-2.5-1.1-3.9-1.1s-2.7.3-3.9 1c-1.2.7-2.2 1.7-2.9 3-.7 1.3-1.1 2.9-1.1 4.7 0 1.8.4 3.4 1.1 4.7.7 1.3 1.7 2.4 2.9 3.1 1.2.7 2.5 1.1 3.9 1.1s2.7-.4 3.9-1.1c1.2-.7 2.2-1.7 2.9-3 .7-1.3 1.1-2.9 1.1-4.7s-.4-3.4-1.1-4.7zM2700.5-1083.2c1.3-2.3 3-4.1 5.2-5.4 2.2-1.3 4.8-1.9 7.7-1.9 3.7 0 6.8.9 9.2 2.8 2.4 1.9 4.1 4.5 4.9 7.8h-8.2c-.4-1.3-1.2-2.3-2.2-3.1-1-.7-2.3-1.1-3.8-1.1-2.2 0-3.9.8-5.1 2.3-1.3 1.6-1.9 3.8-1.9 6.7 0 2.8.6 5 1.9 6.6 1.3 1.6 3 2.3 5.1 2.3 3.1 0 5.1-1.4 6-4.1h8.2c-.8 3.2-2.5 5.8-4.9 7.7-2.4 1.9-5.5 2.9-9.2 2.9-2.9 0-5.4-.6-7.7-1.9-2.2-1.3-4-3.1-5.2-5.4-1.3-2.3-1.9-5-1.9-8.1 0-3 .6-5.8 1.9-8.1zM2752.1-1060.1l-10.2-12.7v12.7h-7.6v-40h7.6v22.7l10-12.7h9.8l-13.2 15 13.3 14.9h-9.7zM2767.8-1094.8c-.9-.8-1.3-1.9-1.3-3.2 0-1.3.4-2.3 1.3-3.2.9-.8 2-1.3 3.3-1.3 1.3 0 2.4.4 3.3 1.3.9.8 1.3 1.9 1.3 3.2 0 1.3-.4 2.3-1.3 3.2-.9.8-2 1.3-3.3 1.3-1.3-.1-2.5-.5-3.3-1.3zm7 4.8v29.9h-7.6v-29.9h7.6zM2808.8-1087.1c2.2 2.2 3.3 5.4 3.3 9.4v17.5h-7.6v-16.5c0-2.4-.6-4.2-1.8-5.5-1.2-1.3-2.8-1.9-4.9-1.9-2.1 0-3.7.6-4.9 1.9-1.2 1.3-1.8 3.1-1.8 5.5v16.5h-7.6v-29.9h7.6v3.7c1-1.3 2.3-2.3 3.9-3.1 1.6-.7 3.3-1.1 5.2-1.1 3.6.2 6.4 1.3 8.6 3.5zM2838.3-1089.2c1.7.9 3 2 4 3.4v-4.3h7.6v30.1c0 2.8-.6 5.2-1.7 7.4s-2.8 3.9-5 5.2c-2.2 1.3-4.9 1.9-8.1 1.9-4.2 0-7.7-1-10.4-3s-4.3-4.7-4.6-8.1h7.5c.4 1.4 1.3 2.5 2.6 3.3 1.3.8 2.9 1.2 4.8 1.2 2.2 0 4-.7 5.3-2 1.4-1.3 2.1-3.3 2.1-6v-4.6c-1 1.4-2.3 2.6-4 3.5-1.7.9-3.7 1.4-5.9 1.4-2.5 0-4.8-.6-6.9-1.9-2.1-1.3-3.7-3.1-4.9-5.5-1.2-2.4-1.8-5.1-1.8-8.1s.6-5.7 1.8-8c1.2-2.3 2.8-4.1 4.9-5.4 2.1-1.3 4.4-1.9 6.9-1.9 2.1.1 4.1.5 5.8 1.4zm2.9 9.4c-.7-1.3-1.7-2.3-2.9-3s-2.5-1.1-3.9-1.1-2.7.3-3.9 1c-1.2.7-2.2 1.7-2.9 3-.7 1.3-1.1 2.9-1.1 4.7 0 1.8.4 3.4 1.1 4.7.7 1.3 1.7 2.4 2.9 3.1 1.2.7 2.5 1.1 3.9 1.1s2.7-.4 3.9-1.1 2.2-1.7 2.9-3c.7-1.3 1.1-2.9 1.1-4.7s-.4-3.4-1.1-4.7zM2873.5-1089c1.7-2.9 4-5.2 6.9-6.9 2.9-1.6 6.1-2.5 9.7-2.5 4.2 0 7.9 1.1 11.1 3.2 3.2 2.2 5.4 5.1 6.6 9h-8.7c-.9-1.8-2.1-3.2-3.6-4.1-1.6-.9-3.4-1.3-5.4-1.3-2.2 0-4.1.5-5.9 1.5s-3 2.5-4 4.3c-1 1.9-1.4 4.1-1.4 6.6s.5 4.7 1.4 6.6c1 1.9 2.3 3.3 4 4.4 1.7 1 3.7 1.5 5.9 1.5 2.1 0 3.9-.5 5.4-1.4 1.6-.9 2.8-2.3 3.6-4.1h8.7c-1.3 3.9-3.5 6.8-6.6 9-3.2 2.1-6.8 3.2-11.1 3.2-3.6 0-6.8-.8-9.7-2.5-2.9-1.6-5.2-3.9-6.9-6.8s-2.5-6.2-2.5-9.9c0-3.5.8-6.8 2.5-9.8zM2915.5-1083.2c1.2-2.3 2.8-4.1 4.9-5.4 2.1-1.3 4.4-1.9 6.9-1.9 2.2 0 4.2.5 5.9 1.4 1.7.9 3 2 4 3.4v-4.3h7.6v29.9h-7.6v-4.4c-1 1.4-2.3 2.6-4 3.5-1.7.9-3.7 1.4-5.9 1.4-2.5 0-4.8-.6-6.9-1.9s-3.7-3.1-4.9-5.5c-1.2-2.4-1.8-5.1-1.8-8.1 0-3.1.6-5.8 1.8-8.1zm20.7 3.4c-.7-1.3-1.7-2.3-2.9-3s-2.5-1.1-3.9-1.1-2.7.3-3.9 1c-1.2.7-2.2 1.7-2.9 3-.7 1.3-1.1 2.9-1.1 4.7 0 1.8.4 3.4 1.1 4.7.7 1.3 1.7 2.4 2.9 3.1 1.2.7 2.5 1.1 3.9 1.1s2.7-.4 3.9-1.1 2.2-1.7 2.9-3c.7-1.3 1.1-2.9 1.1-4.7s-.4-3.4-1.1-4.7zM2999.6-1087.1c2.2 2.2 3.4 5.4 3.4 9.4v17.5h-7.6v-16.5c0-2.3-.6-4.1-1.8-5.4-1.2-1.2-2.8-1.9-4.9-1.9-2.1 0-3.7.6-4.9 1.9-1.2 1.2-1.8 3-1.8 5.4v16.5h-7.6v-16.5c0-2.3-.6-4.1-1.8-5.4-1.2-1.2-2.8-1.9-4.9-1.9-2.1 0-3.7.6-4.9 1.9-1.2 1.2-1.8 3-1.8 5.4v16.5h-7.6v-29.9h7.6v3.6c1-1.3 2.2-2.2 3.8-3s3.2-1.1 5-1.1c2.3 0 4.4.5 6.3 1.5 1.8 1 3.3 2.4 4.3 4.2 1-1.7 2.4-3.1 4.2-4.2 1.9-1 3.9-1.6 6-1.6 3.8.3 6.8 1.4 9 3.6zM3023.1-1089.1c1.7-.9 3.7-1.4 5.9-1.4 2.6 0 4.9.6 6.9 1.9 2.1 1.3 3.7 3.1 4.9 5.4 1.2 2.3 1.8 5 1.8 8.1 0 3.1-.6 5.8-1.8 8.1-1.2 2.4-2.8 4.2-4.9 5.5-2.1 1.3-4.4 1.9-6.9 1.9-2.2 0-4.1-.5-5.8-1.4s-3-2-4.1-3.4v18.5h-7.6v-44.2h7.6v4.3c1-1.3 2.3-2.4 4-3.3zm10.7 9.3c-.7-1.3-1.7-2.3-2.9-3-1.2-.7-2.5-1-3.9-1s-2.7.4-3.9 1.1c-1.2.7-2.2 1.7-2.9 3.1-.7 1.3-1.1 2.9-1.1 4.7 0 1.8.4 3.4 1.1 4.7.7 1.3 1.7 2.3 2.9 3.1 1.2.7 2.5 1.1 3.9 1.1s2.7-.4 3.9-1.1c1.2-.7 2.2-1.7 2.9-3.1.7-1.3 1.1-2.9 1.1-4.8 0-2-.3-3.5-1.1-4.8zM3065.2-1068.6c3.5-2.9 6.2-5.3 8.3-7.2 2.1-1.9 3.8-3.9 5.1-6s2.1-4.1 2.1-6.2c0-1.8-.4-3.3-1.3-4.3s-2.2-1.6-4-1.6-3.2.6-4.2 1.8c-1 1.2-1.5 2.9-1.5 4.9h-7.3c.1-4.3 1.4-7.6 3.9-9.8 2.4-2.2 5.5-3.3 9.3-3.3 4.1 0 7.3 1.1 9.5 3.3 2.2 2.2 3.3 5 3.3 8.6 0 2.8-.8 5.5-2.3 8-1.5 2.6-3.2 4.8-5.2 6.7-1.9 1.9-4.5 4.2-7.6 6.8h15.9v6.3h-26.7v-5.6l2.7-2.4zM3098.6-1094.9c2.2-3.5 6-5.3 11.2-5.3 5.2 0 9 1.8 11.2 5.3 2.2 3.5 3.4 8.4 3.4 14.6 0 6.3-1.1 11.2-3.4 14.7-2.3 3.6-6 5.3-11.2 5.3-5.2 0-9-1.8-11.2-5.3-2.3-3.6-3.4-8.5-3.4-14.7 0-6.2 1.1-11.1 3.4-14.6zm17.8 7.9c-.3-1.8-1-3.3-2.1-4.5-1-1.2-2.5-1.7-4.6-1.7-2 0-3.5.6-4.6 1.7-1 1.2-1.7 2.6-2.1 4.5-.3 1.8-.5 4.1-.5 6.7 0 2.7.2 5 .5 6.9s1 3.3 2.1 4.5 2.6 1.7 4.6 1.7c2 0 3.5-.6 4.6-1.7 1-1.1 1.7-2.6 2.1-4.5s.5-4.1.5-6.9c0-2.7-.2-4.9-.5-6.7zM3133.8-1068.6c3.5-2.9 6.2-5.3 8.3-7.2 2.1-1.9 3.8-3.9 5.1-6s2.1-4.1 2.1-6.2c0-1.8-.4-3.3-1.3-4.3s-2.2-1.6-4-1.6-3.2.6-4.2 1.8c-1 1.2-1.5 2.9-1.5 4.9h-7.3c.1-4.3 1.4-7.6 3.9-9.8 2.4-2.2 5.5-3.3 9.3-3.3 4.1 0 7.3 1.1 9.5 3.3 2.2 2.2 3.3 5 3.3 8.6 0 2.8-.8 5.5-2.3 8-1.5 2.6-3.2 4.8-5.2 6.7-1.9 1.9-4.5 4.2-7.6 6.8h15.9v6.3H3131v-5.6l2.8-2.4zM3162.8-1092.5v-7h13v39.4h-7.8v-32.4h-5.2z"/></g></g></svg>