<svg xmlns="http://www.w3.org/2000/svg" viewBox="0 0 125.62 160"><defs><style>.cls-1{fill:#3d6cb9;}</style></defs><title>Asset 2</title><g id="Layer_2" data-name="Layer 2"><g id="tools"><path class="cls-1" d="M44.76,0H3.49A3.49,3.49,0,0,0,0,3.49v150A3.49,3.49,0,0,0,3.49,157H44.76c6.21,0,11.07-4.33,11.07-9.87V10.47C55.83,4.79,50.76,0,44.76,0Zm4.09,147.15c0,1.73-2.11,2.89-4.09,2.89H7v-7H17.45v-7H7v-7H24.43v-7H7v-7H17.45v-7H7v-7H24.43v-7H7v-7H17.45v-7H7v-7H24.43v-7H7v-7H17.45v-7H7v-7H24.43v-7H7v-7H17.45v-7H7V7H44.76c2.07,0,4.09,1.73,4.09,3.49Z"/><path class="cls-1" d="M118.64,3.49H90.72a7,7,0,0,0-7,7V122.13A7,7,0,0,0,87,128l13.31,29.94a3.49,3.49,0,0,0,6.38,0l12.83-28.88a7,7,0,0,0,6.15-6.92V10.47A7,7,0,0,0,118.64,3.49Zm0,118.64H108.17V10.47h10.47ZM90.72,10.47h10.47V122.13H90.72Zm12.73,137.45-8.36-18.81h16.72Z"/></g></g></svg>