<svg xmlns="http://www.w3.org/2000/svg" xmlns:xlink="http://www.w3.org/1999/xlink" viewBox="0 0 352 237"><defs><style>.cls-1{fill:url(#未命名的渐变);}.cls-2{isolation:isolate;}.cls-3{fill:#fff;}</style><linearGradient id="未命名的渐变" x1="-1207.28" y1="657.73" x2="-1206.28" y2="656.73" gradientTransform="matrix(352, 0, 0, -237, 424962.97, 155881)" gradientUnits="userSpaceOnUse"><stop offset="0" stop-color="#32e0a1"/><stop offset="1" stop-color="#4242e8"/></linearGradient></defs><g id="图层_2" data-name="图层 2"><g id="图层_1-2" data-name="图层 1"><g id="组_4488" data-name="组 4488"><rect id="截屏2020-12-17_16.16.31" data-name="截屏2020-12-17 16.16.31" class="cls-1" width="352" height="237"/><g id="万元精彩大礼" class="cls-2"><g class="cls-2"><path class="cls-3" d="M134.84,136.7v2H124.72v1c0,1-.08,1.86-.16,2.72h8.68c0,5.48-.26,8.78-.66,9.86a2.29,2.29,0,0,1-2.24,1.62c-1,0-2.1,0-3.44-.12l-.54-2,3.48.14c.52,0,.86-.46,1-1.28s.2-2.92.24-6.32h-6.78A18.72,18.72,0,0,1,123,149a10.77,10.77,0,0,1-5,5l-1.18-1.84a9.83,9.83,0,0,0,4.58-4.68,24.21,24.21,0,0,0,1.28-7.82v-1h-5.48v-2Z"/><path class="cls-3" d="M154.66,142.34v2h-5.3v6.76c0,.52.22.78.68.78h2.2a.62.62,0,0,0,.56-.46,11.49,11.49,0,0,0,.28-2.92l1.88.6c-.14,2.26-.4,3.6-.76,4a2,2,0,0,1-1.58.62h-3.18c-1.42,0-2.12-.74-2.12-2.2v-7.2h-3v.4a11.66,11.66,0,0,1-1.68,6.1,9.58,9.58,0,0,1-4.84,3.28l-1.12-1.76a8.51,8.51,0,0,0,4.36-2.84,9.79,9.79,0,0,0,1.24-4.78v-.4h-5v-2Zm-1.74-5.86v2h-14v-2Z"/><path class="cls-3" d="M159.64,142.46v-6.84h2v6.84h2.18v1.9h-2.18v.56a39.56,39.56,0,0,1,2.84,2.92l-1.2,1.78c-.64-1.12-1.18-2.06-1.64-2.82v7.28h-2v-6.72a19,19,0,0,1-2.18,4.08l-.9-2.28a13.32,13.32,0,0,0,2.94-4.8H157v-1.9Zm-.46-1-1.36.36c-.24-1.4-.52-2.76-.84-4l1.48-.48C158.74,138.46,159,139.86,159.18,141.42Zm5.08-4.24a17,17,0,0,1-.88,4.44l-1.34-.44a18.74,18.74,0,0,0,.7-4.2Zm6.54-1.62v1.12h4v1.68h-4v.84h3.38v1.64H170.8v.86h4.4v1.72H164.32V141.7h4.46v-.86h-3.5V139.2h3.5v-.84H164.7v-1.68h4.08v-1.12ZM167.14,154h-2v-9.82h9.14V152a1.73,1.73,0,0,1-2,1.94H171l-.5-1.84,1.28.1c.36,0,.54-.22.54-.64V151h-5.18Zm5.18-8.14h-5.18v1h5.18Zm-5.18,3.5h5.18v-.94h-5.18Z"/><path class="cls-3" d="M181.58,144.48v-1.7h2.08v1.7h3.72v2h-3.72v.82a42.39,42.39,0,0,1,3.62,2.24L186,151.4c-.92-.88-1.72-1.6-2.38-2.14v4.82h-2.08V148.7a17.28,17.28,0,0,1-3.6,4.06l-1.24-1.82a14.9,14.9,0,0,0,4.36-4.46h-3.66v-2Zm6-7.08a35.55,35.55,0,0,1-10.14,1.18l-.62-1.84a40.06,40.06,0,0,0,9.76-1Zm-7.2,5.24-1.66.42a24.17,24.17,0,0,0-1.44-3.38l1.64-.54A19,19,0,0,1,180.36,142.64Zm3.24-1.06-1.74.66a23.46,23.46,0,0,0-1.1-3l1.76-.5A25,25,0,0,1,183.6,141.58Zm3.66-2.66a18.87,18.87,0,0,1-1.48,4.1l-1.64-.6a19.52,19.52,0,0,0,1.4-4Zm8.12,8.86A25,25,0,0,1,188.3,154l-.94-2a19.4,19.4,0,0,0,6.6-5.84ZM193.9,137a19.08,19.08,0,0,1-5.4,4.5l-.9-1.9a14.46,14.46,0,0,0,4.92-4.16Zm.86,5.36a20.79,20.79,0,0,1-5.92,4.9l-.9-1.9a15.66,15.66,0,0,0,5.46-4.56Z"/><path class="cls-3" d="M204.72,140.6c.12-1,.2-2.1.22-3.22v-1.8h2.12v1.32a30.94,30.94,0,0,1-.22,3.7h8v2h-7.54a17.5,17.5,0,0,0,8,9.68L214,154a18.68,18.68,0,0,1-7.94-9.66,15.88,15.88,0,0,1-8,9.84l-1.34-1.76a13.87,13.87,0,0,0,7.68-9.82h-7.22v-2Z"/><path class="cls-3" d="M217.4,148.26l-.64-2.14q4.89-3.09,6.66-6h-5.9v-2h3c-.24-.74-.5-1.44-.78-2.12l2-.58c.32,1,.58,1.88.76,2.7h3.16v1.8a13.73,13.73,0,0,1-2.66,3.84,18.92,18.92,0,0,1,3.46,2.3l-1.18,1.8a22.43,22.43,0,0,0-2.66-2.12v8.42h-2.1V146C219.6,146.76,218.56,147.5,217.4,148.26Zm11.88,5.52c-1.52,0-2.28-.86-2.28-2.54V135.68h2.1V151c0,.52.22.8.66.8h2.42a.84.84,0,0,0,.78-.44,15.54,15.54,0,0,0,.28-3.16l2,.64c-.12,2.34-.36,3.76-.7,4.26a2.41,2.41,0,0,1-2,.72Z"/></g></g><g id="云启特别赞助" class="cls-2"><g class="cls-2"><path class="cls-3" d="M114.59,90.21v2.85H100.37c-2.58,5.16-4.83,8.85-6.78,11.07,4.92-.3,9.84-.81,14.7-1.5-1-1.71-2-3.48-3.15-5.28l2.28-1.41a97.38,97.38,0,0,1,6.33,10.59l-2.55,1.77c-.48-1-1-2-1.5-3.06q-9,1.26-19.65,2l-.75-2.91A3.29,3.29,0,0,0,90,104q2.74-2.07,7.2-11H87.5V90.21Zm-2.67-8.28v2.76H90.38V81.93Z"/><path class="cls-3" d="M123.17,94a25.48,25.48,0,0,1-4,14.19l-2.25-2C119.18,103,120.32,99,120.35,94V83.43h9.84a18.11,18.11,0,0,0-1.26-2.88l3-.48c.42,1,.81,2.13,1.2,3.36h9.66V92.7H123.17Zm0-7.89v4h16.77v-4Zm19.23,22.11h-2.76V106.8H127.31v1.41h-2.79v-12H142.4Zm-2.76-4.08V98.94H127.31v5.19Z"/><path class="cls-3" d="M149.54,93.42l-2.49-.72a40.65,40.65,0,0,0,1.53-9.9l2.58.18c-.06,1.17-.12,2.31-.24,3.45h1.8v-6h2.73v6h2.4v2.76h-2.4v6.39c.87-.36,1.71-.69,2.52-1v2.7c-.84.36-1.68.72-2.52,1v9.84h-2.73V99.24q-2.39.81-4.86,1.44l-.69-2.76c1.86-.36,3.72-.81,5.55-1.35V89.19h-2.19Q150.13,91.35,149.54,93.42Zm18.57-13v3h5.28V86h-5.28v2.85h6.6v2.7H158.6v-2.7h6.63V86h-5V83.37h5v-3Zm.39,14V92.7h2.76v1.71h3.18v2.7h-3.18v7.8c0,2-.93,3-2.73,3h-3.81l-.6-2.7c1.2.12,2.34.21,3.42.21.63,0,1-.42,1-1.2V97.11h-9.24v-2.7Zm-3.18,8.07-2.25,1.59a38,38,0,0,0-3.48-4.65L161.81,98A44.24,44.24,0,0,1,165.32,102.48Z"/><path class="cls-3" d="M178.7,91.5V81.42h13.17V91.5h-5.76c-.06,1.08-.15,2.1-.24,3.06h6.36q0,8-.45,9.9-.45,3.24-4.5,3.24c-.42,0-1.14-.06-2.1-.12l-.66-2.52c.9.09,1.65.15,2.31.15a2.13,2.13,0,0,0,2.31-2,46.21,46.21,0,0,0,.3-6h-3.93a18.37,18.37,0,0,1-1.14,4.14,16,16,0,0,1-5.52,6.66L177,105.78a13.13,13.13,0,0,0,4.77-5.58,14.6,14.6,0,0,0,.9-3h-5V94.56h5.4q.18-1.44.27-3.06ZM189.14,84h-7.71v5h7.71Zm8.4-.93v18.51h-2.79V83Zm-1.2,24.78-.63-2.73q2.07.18,4,.18c.84,0,1.29-.51,1.29-1.5V80.49h2.82v24c0,2.22-1.05,3.33-3.12,3.33Z"/><path class="cls-3" d="M209.63,86.25l-1.5-1.86a6.56,6.56,0,0,0,2.25-3.57l2.19.33c-.12.48-.27.93-.42,1.35h1.62V80.43h2.58V82.5h3.36v2.19h-3.36v1.59h3.78v2.28h-2.85V91c.9-.3,1.83-.66,2.76-1l.42,2a44,44,0,0,1-5.25,1.89l-1-2.1a1.08,1.08,0,0,0,.66-.87V88.56h-1.74a9.94,9.94,0,0,1-.87,3.54,7.63,7.63,0,0,1-3.06,2.7l-1.62-2.07a6.13,6.13,0,0,0,2.52-1.86,6,6,0,0,0,.72-2.31h-2.64V86.28h5.58V84.69H211A8.84,8.84,0,0,1,209.63,86.25ZM223,98.34a9.64,9.64,0,0,1-3.81,6.39q-2.79,2.16-10,3.42l-1.11-2.64c4.11-.6,7.05-1.44,8.85-2.58A7.46,7.46,0,0,0,220.25,98Zm7.89,4.62h-2.73V96.78H214v6.45h-2.7v-9h19.53ZM220.49,84.54a7.14,7.14,0,0,0,2.13-3.81l2.19.33c-.12.51-.27,1-.42,1.44h2V80.43H229V82.5h4v2.19h-4v1.59h4.8v2.28h-3.9v2c0,.42.15.66.45.66h.87a1.39,1.39,0,0,0,.63-.15c.18-.12.33-.66.42-1.68l2.13.72c-.21,1.62-.48,2.55-.81,2.82a3.59,3.59,0,0,1-1.92.45h-2.1a2,2,0,0,1-1.59-.66,2.36,2.36,0,0,1-.51-1.59V88.56h-1.29a8.64,8.64,0,0,1-.84,2.94,7.48,7.48,0,0,1-3,2.34l-1.59-2a5.37,5.37,0,0,0,2.4-1.56,4.48,4.48,0,0,0,.69-1.74h-2.88V86.28h1Zm13.92,21.27-1.53,2.4a72.65,72.65,0,0,0-11.43-3.45l1.41-2.13A80.26,80.26,0,0,1,234.41,105.81ZM222.08,86.28h4.35V84.69h-3.06A9,9,0,0,1,222.08,86.28Z"/><path class="cls-3" d="M249.59,100.11c.66-.21,1.29-.42,1.89-.6v2.7a138,138,0,0,1-13.65,3.6l-.78-2.73c.72-.15,1.41-.3,2.1-.42V82.05h10.44Zm-2.76-11.85v-3.6h-4.89v3.6Zm0,6.48v-3.9h-4.89v3.9Zm0,6.15v-3.6h-4.89v4.77C243.62,101.67,245.27,101.28,246.83,100.89Zm10.5-20.34v5.76h6.54q0,14.63-.45,18.06c-.33,2.28-1.86,3.45-4.62,3.45-.48,0-1.32-.06-2.49-.12l-.69-2.52c1.05.09,1.95.15,2.73.15a2.26,2.26,0,0,0,2.4-2.19c.18-1.41.27-6.09.33-14.07h-3.75v.3q-.13,12.91-6.27,18.9l-2.13-1.89q5.49-5.26,5.58-17v-.3h-3.42V86.31h3.42V80.55Z"/></g></g></g></g></g></svg>