<svg xmlns="http://www.w3.org/2000/svg" viewBox="0 0 183.28 49.34"><defs><style>.cls-1{fill:#ea5504;}.cls-2{fill:#3e3c39;}</style></defs><g id="图层_2" data-name="图层 2"><g id="图层_1-2" data-name="图层 1"><path class="cls-1" d="M39.3,37.11a2.58,2.58,0,0,0-1.79-.7,2.25,2.25,0,0,0-1.67.77C32,41.52,25.43,42,22.76,42c-5,0-8.73-1.25-11.25-3.72S7.86,32.46,7.77,28c-.19-10.37,5.68-21.1,15.84-21.1,4.85,0,8.62,3.44,10,4.92a2.59,2.59,0,0,0,1.84.82,2.24,2.24,0,0,0,1.76-.8l.4-.47a4.52,4.52,0,0,0,1-3.48,5.1,5.1,0,0,0-1.83-3.33A19.7,19.7,0,0,0,24.08,0,23,23,0,0,0,7.14,7.93,29.12,29.12,0,0,0,0,28.13c.11,6.22,2.15,11.45,5.9,15.13,4,4,9.93,6.05,17.07,6.05,8.38,0,13.57-2.49,16.45-4.56a4.45,4.45,0,0,0,1.83-3.49,5,5,0,0,0-1.58-3.79Z"/><path class="cls-2" d="M70.48,19.52c-1.9-.65-3.79-1.18-5.45-1.65-7-2-7.85-3.82-7.76-5.2.16-2.76,3.93-6.51,10.32-6,4.63.34,7.76,3.89,9.21,6a2.54,2.54,0,0,0,1.65,1.06,2.35,2.35,0,0,0,1.86-.44l.46-.36a4.45,4.45,0,0,0,1.7-3.47,5,5,0,0,0-1.59-3.72A20.26,20.26,0,0,0,68.35.06a20,20,0,0,0-13,3.52c-3.48,2.47-5.68,5.9-5.88,9.18C49,20.87,57.2,23.19,63.21,24.89c1.64.46,3.28,1,5.1,1.55,8.71,2.72,9,5.47,8.34,9.67s-5.32,6.37-12.87,5.81c-7.85-.58-11.09-4.56-12.31-6.88a2.59,2.59,0,0,0-1.53-1.26A2.4,2.4,0,0,0,48,34l-.68.42a4.43,4.43,0,0,0-2.1,3.2,4.93,4.93,0,0,0,1.1,3.81c2.61,3.17,7.69,7.09,17.11,7.78,1.15.09,2.23.13,3.26.13,13.24,0,17.22-6.68,18.16-12.53.7-4.36-.17-7.85-2.66-10.66-2.28-2.57-6-4.68-11.72-6.63"/><path class="cls-2" d="M125.54,4.22h0C121,.93,114.91-.44,107.52.16a46.52,46.52,0,0,0-10.19,2l0,0A3.32,3.32,0,0,0,95,5.08L91.42,44.8a2.57,2.57,0,0,0,1.88,2.67l1.06.29a58.13,58.13,0,0,0,11.55,1.52l1.63,0c7.42,0,13.48-1.75,18-5.22,5.84-4.45,8.71-11.46,8.54-20.81-.16-8.67-3-15.08-8.56-19.06m.79,18.91c.13,7-1.84,12.1-5.84,15.15-6.39,4.88-16,4.3-20.45,3.68a1,1,0,0,1-.83-1l3-32.45a.85.85,0,0,1,.66-.76c7.63-1.85,13.57-1.29,17.65,1.66,3.5,2.53,5.66,7.68,5.78,13.76"/><path class="cls-2" d="M179.73,5.52C176.62,2,171.87.25,165.62.25a21.06,21.06,0,0,0-14.86,6.1l.13-1.48a1.89,1.89,0,0,0-.5-1.46A2,2,0,0,0,149,2.78h-1.5A4.47,4.47,0,0,0,143,6.9l-3.28,39.45a2.58,2.58,0,0,0,2.54,2.74h3a1.72,1.72,0,0,0,1.72-1.57L149.11,24a14.57,14.57,0,0,1,.63-3.14c1.65-5.23,5.86-14,15.4-14a12.38,12.38,0,0,1,8.94,3.37,7.46,7.46,0,0,1,1.64,5.13L173,47a1.89,1.89,0,0,0,.51,1.45,1.93,1.93,0,0,0,1.41.63h2.32A3.39,3.39,0,0,0,180.62,46l2.61-29.66a14.88,14.88,0,0,0-3.5-10.82"/></g></g></svg>